SplineFontDB: 3.0
FontName: Nobile
FullName: Nobile
FamilyName: Nobile
Weight: Book
Copyright: Copyright (c) 2010 by vernon adams. All rights reserved.
Version: 001.000
ItalicAngle: 0
UnderlinePosition: -292
UnderlineWidth: 40
Ascent: 1638
Descent: 410
sfntRevision: 0x00010000
LayerCount: 2
Layer: 0 1 "Back"  1
Layer: 1 1 "Fore"  0
XUID: [1021 332 469972825 9459231]
FSType: 0
OS2Version: 2
OS2_WeightWidthSlopeOnly: 0
OS2_UseTypoMetrics: 1
CreationTime: 1291284648
ModificationTime: 1291304816
PfmFamily: 17
TTFWeight: 400
TTFWidth: 5
LineGap: 0
VLineGap: 0
Panose: 2 0 5 3 5 0 0 2 0 4
OS2TypoAscent: -24
OS2TypoAOffset: 1
OS2TypoDescent: -92
OS2TypoDOffset: 1
OS2TypoLinegap: 0
OS2WinAscent: -622
OS2WinAOffset: 1
OS2WinDescent: -39
OS2WinDOffset: 1
HheadAscent: -622
HheadAOffset: 1
HheadDescent: 39
HheadDOffset: 1
OS2SubXSize: 1331
OS2SubYSize: 1433
OS2SubXOff: 0
OS2SubYOff: 286
OS2SupXSize: 1331
OS2SupYSize: 1433
OS2SupXOff: 0
OS2SupYOff: 983
OS2StrikeYSize: 102
OS2StrikeYPos: 512
OS2Vendor: 'SIL '
OS2CodePages: 00000005.00000000
OS2UnicodeRanges: a000026f.4000000a.00000000.00000000
Lookup: 4 0 1 "'liga' Standard Ligatures in Latin lookup 0"  {"'liga' Standard Ligatures in Latin lookup 0 subtable"  } ['liga' ('latn' <'dflt' > ) ]
Lookup: 258 0 0 "'kern' Horizontal Kerning in Latin lookup 0"  {"'kern' Horizontal Kerning in Latin lookup 0 subtable"  } ['kern' ('latn' <'dflt' > ) ]
MarkAttachClasses: 1
DEI: 91125
TtTable: prep
PUSHW_1
 511
SCANCTRL
PUSHB_1
 1
SCANTYPE
SVTCA[y-axis]
MPPEM
PUSHB_1
 8
LT
IF
PUSHB_2
 1
 1
INSTCTRL
EIF
PUSHB_2
 70
 6
CALL
IF
POP
PUSHB_1
 16
EIF
MPPEM
PUSHB_1
 20
GT
IF
POP
PUSHB_1
 128
EIF
SCVTCI
PUSHB_1
 6
CALL
NOT
IF
SVTCA[y-axis]
PUSHB_1
 5
DUP
RCVT
PUSHB_1
 3
CALL
WCVTP
PUSHB_1
 11
DUP
RCVT
PUSHB_3
 5
 179
 2
CALL
PUSHB_1
 3
CALL
WCVTP
PUSHB_1
 10
DUP
RCVT
PUSHB_3
 11
 122
 2
CALL
PUSHB_1
 3
CALL
WCVTP
PUSHB_1
 9
DUP
RCVT
PUSHB_3
 10
 65
 2
CALL
PUSHB_1
 3
CALL
WCVTP
PUSHB_1
 8
DUP
RCVT
PUSHB_3
 9
 51
 2
CALL
PUSHB_1
 3
CALL
WCVTP
PUSHB_1

StartChar: .notdef
Encoding: 65536 -1 0
Width: 748
Flags: W
HStem: 0 68<136 544> 1297 68<136 544>
VStem: 68 68<68 1297> 544 68<68 1297>
LayerCount: 2
Fore
SplineSet
544 68 m 1,0,-1
 544 1297 l 1,1,-1
 136 1297 l 1,2,-1
 136 68 l 1,3,-1
 544 68 l 1,0,-1
68 1365 m 1,4,-1
 612 1365 l 1,5,-1
 612 0 l 1,6,-1
 68 0 l 1,7,-1
 68 1365 l 1,4,-1
EndSplineSet
EndChar

StartChar: exclam
Encoding: 33 33 6
Width: 790
Flags: W
HStem: 0 202<319 527.084> 1559 20G<319 502>
VStem: 319 213<3.07617 201.951> 319 183<399 1579>
LayerCount: 2
Fore
SplineSet
319 121 m 1,0,-1
 319 202 l 1,1,-1
 444 202 l 1,2,-1
 483 202 l 2,3,4
 498 202 498 202 507 199.5 c 128,-1,5
 516 197 516 197 520.5 189 c 128,-1,6
 525 181 525 181 526.5 165 c 128,-1,7
 528 149 528 149 528 121 c 0,8,9
 528 100 528 100 530 82.5 c 128,-1,10
 532 65 532 65 532 51 c 0,11,12
 532 39 532 39 529 29.5 c 128,-1,13
 526 20 526 20 516.5 13.5 c 128,-1,14
 507 7 507 7 489.5 3.5 c 128,-1,15
 472 0 472 0 444 0 c 2,16,-1
 319 0 l 1,17,-1
 319 121 l 1,0,-1
502 399 m 1,18,-1
 319 399 l 1,19,-1
 319 1579 l 1,20,-1
 502 1579 l 1,21,-1
 502 399 l 1,18,-1
EndSplineSet
EndChar

StartChar: quotedbl
Encoding: 34 34 7
Width: 634
Flags: W
HStem: 1058 521<96 204 434 542>
VStem: 36 228<1400.48 1579> 374 228<1400.48 1579>
LayerCount: 2
Fore
SplineSet
602 1579 m 1,0,-1
 602 1508 l 1,1,-1
 542 1058 l 1,2,-1
 434 1058 l 1,3,-1
 374 1508 l 1,4,-1
 374 1579 l 1,5,-1
 602 1579 l 1,0,-1
264 1579 m 1,6,-1
 264 1508 l 1,7,-1
 204 1058 l 1,8,-1
 96 1058 l 1,9,-1
 36 1508 l 1,10,-1
 36 1579 l 1,11,-1
 264 1579 l 1,6,-1
EndSplineSet
EndChar

StartChar: numbersign
Encoding: 35 35 8
Width: 1234
Flags: W
HStem: 561 123<230 396 549 723 875 1051> 905 125<258 433 586 758 914 1074>
VStem: 363 141<295 436> 478 139<1170 1309> 691 141<295 436> 803 142<1165 1307>
DStem2: 363 295 504 295 0.11269 0.99363<15.8893 268.024 407.482 614.003 755.448 1020.5> 691 295 832 295 0.11097 0.993824<15.6468 267.908 407.016 613.667 755.207 1018.18>
LayerCount: 2
Fore
SplineSet
732 684 m 1,0,-1
 758 905 l 1,1,-1
 576 905 l 1,2,-1
 549 684 l 1,3,-1
 732 684 l 1,0,-1
537 561 m 1,4,-1
 504 295 l 1,5,-1
 363 295 l 1,6,-1
 396 561 l 1,7,-1
 230 561 l 1,8,-1
 230 684 l 1,9,-1
 406 684 l 1,10,-1
 433 905 l 1,11,-1
 258 905 l 1,12,-1
 258 1030 l 1,13,-1
 447 1030 l 1,14,-1
 478 1309 l 1,15,-1
 617 1309 l 1,16,-1
 586 1030 l 1,17,-1
 775 1030 l 1,18,-1
 803 1307 l 1,19,-1
 945 1307 l 1,20,-1
 914 1030 l 1,21,-1
 1074 1030 l 1,22,-1
 1074 905 l 1,23,-1
 902 905 l 1,24,-1
 875 684 l 1,25,-1
 1051 684 l 1,26,-1
 1051 561 l 1,27,-1
 863 561 l 1,28,-1
 832 295 l 1,29,-1
 691 295 l 1,30,-1
 723 561 l 1,31,-1
 537 561 l 1,4,-1
EndSplineSet
EndChar

StartChar: dollar
Encoding: 36 36 9
Width: 1139
Flags: W
HStem: -18 152<298.881 540 643 788.75> 1044 127<809.943 939.402>
VStem: 127 167<831.603 1044.07> 540 103<-178 -20 134 539 739 1099 1236 1390> 864 165<205.888 446.946>
DStem2: 415 786 344 634 0.929115 -0.36979<-138.018 133.52 303.176 560.482>
LayerCount: 2
Fore
SplineSet
643 134 m 1,0,1
 693 135 693 135 734 150 c 128,-1,2
 775 165 775 165 804 190.5 c 128,-1,3
 833 216 833 216 848.5 251.5 c 128,-1,4
 864 287 864 287 864 329 c 0,5,6
 864 367 864 367 854 395.5 c 128,-1,7
 844 424 844 424 819 447.5 c 128,-1,8
 794 471 794 471 751.5 492.5 c 128,-1,9
 709 514 709 514 643 539 c 1,10,-1
 643 134 l 1,0,1
540 1099 m 1,11,12
 465 1099 465 1099 417.5 1085 c 128,-1,13
 370 1071 370 1071 342.5 1047.5 c 128,-1,14
 315 1024 315 1024 304.5 994 c 128,-1,15
 294 964 294 964 294 932 c 0,16,17
 294 902 294 902 303.5 877.5 c 128,-1,18
 313 853 313 853 340 830.5 c 128,-1,19
 367 808 367 808 415 786 c 128,-1,20
 463 764 463 764 540 739 c 1,21,-1
 540 1099 l 1,11,12
540 1390 m 1,22,-1
 643 1390 l 1,23,-1
 643 1236 l 1,24,25
 701 1236 701 1236 759.5 1225.5 c 128,-1,26
 818 1215 818 1215 866 1203 c 0,27,28
 921 1189 921 1189 974 1171 c 1,29,-1
 935 1044 l 1,30,31
 889 1059 889 1059 840 1071 c 0,32,33
 798 1082 798 1082 746 1090.5 c 128,-1,34
 694 1099 694 1099 643 1099 c 1,35,-1
 643 709 l 1,36,37
 758 667 758 667 833 626.5 c 128,-1,38
 908 586 908 586 951.5 542.5 c 128,-1,39
 995 499 995 499 1012 449.5 c 128,-1,40
 1029 400 1029 400 1029 340 c 0,41,42
 1029 248 1029 248 998 183 c 128,-1,43
 967 118 967 118 914.5 76 c 128,-1,44
 862 34 862 34 791.5 11.5 c 128,-1,45
 721 -11 721 -11 643 -18 c 1,46,-1
 643 -178 l 1,47,-1
 540 -178 l 1,48,-1
 540 -20 l 1,49,50
 514 -20 514 -20 484.5 -16.5 c 128,-1,51
 455 -13 455 -13 424 -7.5 c 128,-1,52
 393 -2 393 -2 362 5.5 c 128,-1,53
 331 13 331 13 302 21 c 0,54,55
 234 39 234 39 166 63 c 1,56,-1
 215 207 l 1,57,58
 275 185 275 185 334 168 c 0,59,60
 385 153 385 153 440 141 c 128,-1,61
 495 129 495 129 540 129 c 1,62,-1
 540 568 l 1,63,64
 423 598 423 598 344 634 c 128,-1,65
 265 670 265 670 216.5 714 c 128,-1,66
 168 758 168 758 147.5 811 c 128,-1,67
 127 864 127 864 127 929 c 0,68,69
 127 1022 127 1022 157 1079.5 c 128,-1,70
 187 1137 187 1137 241 1170 c 128,-1,71
 295 1203 295 1203 371 1217.5 c 128,-1,72
 447 1232 447 1232 540 1240 c 1,73,-1
 540 1390 l 1,22,-1
EndSplineSet
EndChar

StartChar: percent
Encoding: 37 37 10
Width: 1724
Flags: W
HStem: -22 21G<539.932 593.38> 11 125<1246.39 1514.18> 604 125<271.388 539.178> 782 120<1248.32 1512.96> 1375 120<273.322 537.959>
VStem: 48 143<818.778 1282.93> 622 144<820.687 1279.62> 1023 143<225.778 689.929> 1597 144<227.687 686.62>
DStem2: 454 37 584 -22 0.423225 0.906025<1.56382 1605.33>
LayerCount: 2
Fore
SplineSet
1380 136 m 256,0,1
 1492 136 1492 136 1544.5 215 c 128,-1,2
 1597 294 1597 294 1597 453 c 256,3,4
 1597 612 1597 612 1546.5 697 c 128,-1,5
 1496 782 1496 782 1380 782 c 0,6,7
 1321 782 1321 782 1280.5 760.5 c 128,-1,8
 1240 739 1240 739 1214.5 697 c 128,-1,9
 1189 655 1189 655 1177.5 593.5 c 128,-1,10
 1166 532 1166 532 1166 453 c 0,11,12
 1166 294 1166 294 1217 215 c 128,-1,13
 1268 136 1268 136 1380 136 c 256,0,1
1382 11 m 0,14,15
 1286 11 1286 11 1217.5 49 c 128,-1,16
 1149 87 1149 87 1106 149 c 128,-1,17
 1063 211 1063 211 1043 290 c 128,-1,18
 1023 369 1023 369 1023 451 c 0,19,20
 1023 558 1023 558 1045.5 642 c 128,-1,21
 1068 726 1068 726 1113 783.5 c 128,-1,22
 1158 841 1158 841 1225 871.5 c 128,-1,23
 1292 902 1292 902 1382 902 c 0,24,25
 1476 902 1476 902 1544 871.5 c 128,-1,26
 1612 841 1612 841 1655.5 783.5 c 128,-1,27
 1699 726 1699 726 1720 642 c 128,-1,28
 1741 558 1741 558 1741 451 c 0,29,30
 1741 374 1741 374 1721.5 295.5 c 128,-1,31
 1702 217 1702 217 1659 154 c 128,-1,32
 1616 91 1616 91 1547.5 51 c 128,-1,33
 1479 11 1479 11 1382 11 c 0,14,15
405 729 m 256,34,35
 517 729 517 729 569.5 808 c 128,-1,36
 622 887 622 887 622 1046 c 256,37,38
 622 1205 622 1205 571.5 1290 c 128,-1,39
 521 1375 521 1375 405 1375 c 0,40,41
 346 1375 346 1375 305.5 1353.5 c 128,-1,42
 265 1332 265 1332 239.5 1290 c 128,-1,43
 214 1248 214 1248 202.5 1186.5 c 128,-1,44
 191 1125 191 1125 191 1046 c 0,45,46
 191 887 191 887 242 808 c 128,-1,47
 293 729 293 729 405 729 c 256,34,35
407 604 m 0,48,49
 311 604 311 604 242.5 642 c 128,-1,50
 174 680 174 680 131 742 c 128,-1,51
 88 804 88 804 68 883 c 128,-1,52
 48 962 48 962 48 1044 c 0,53,54
 48 1151 48 1151 70.5 1235 c 128,-1,55
 93 1319 93 1319 138 1376.5 c 128,-1,56
 183 1434 183 1434 250 1464.5 c 128,-1,57
 317 1495 317 1495 407 1495 c 0,58,59
 501 1495 501 1495 569 1464.5 c 128,-1,60
 637 1434 637 1434 680.5 1376.5 c 128,-1,61
 724 1319 724 1319 745 1235 c 128,-1,62
 766 1151 766 1151 766 1044 c 0,63,64
 766 967 766 967 746.5 888.5 c 128,-1,65
 727 810 727 810 684 747 c 128,-1,66
 641 684 641 684 572.5 644 c 128,-1,67
 504 604 504 604 407 604 c 0,48,49
1136 1497 m 1,68,-1
 1265 1430 l 1,69,-1
 584 -22 l 1,70,-1
 454 37 l 1,71,-1
 1136 1497 l 1,68,-1
EndSplineSet
EndChar

StartChar: ampersand
Encoding: 38 38 11
Width: 1597
Flags: W
HStem: -39 139<472 1016.5> -7 21G<1447.16 1487.86> 1310 135<494.637 832.384>
VStem: 132 182<243.142 602.089> 264 166<993.504 1248.46> 904 160<1006.7 1241.59> 1215.5 158<392.223 796>
DStem2: 609 873 398.5 873 0.773073 -0.634317<-260.579 -79.3907 132.572 762.627 949.195 1224.59> 466 822 560 726 0.946123 0.323807<-162.829 0 212.847 426.732>
LayerCount: 2
Fore
SplineSet
314 418 m 0,0,1
 314 342 314 342 336.5 283 c 128,-1,2
 359 224 359 224 406.5 183.5 c 128,-1,3
 454 143 454 143 526.5 121.5 c 128,-1,4
 599 100 599 100 699 100 c 0,5,6
 802 100 802 100 875.5 109.5 c 128,-1,7
 949 119 949 119 1001 138.5 c 128,-1,8
 1053 158 1053 158 1088 187.5 c 128,-1,9
 1123 217 1123 217 1148 256 c 1,10,-1
 560 726 l 1,11,12
 434 699 434 699 374 624.5 c 128,-1,13
 314 550 314 550 314 418 c 0,0,1
699 -39 m 0,14,15
 132 -39 132 -39 132 396 c 0,16,17
 132 565 132 565 215.5 669.5 c 128,-1,18
 299 774 299 774 466 822 c 1,19,20
 434 843 434 843 398.5 873 c 128,-1,21
 363 903 363 903 333 940.5 c 128,-1,22
 303 978 303 978 283.5 1021.5 c 128,-1,23
 264 1065 264 1065 264 1113 c 0,24,25
 264 1187 264 1187 290.5 1248 c 128,-1,26
 317 1309 317 1309 368 1353 c 128,-1,27
 419 1397 419 1397 493.5 1421 c 128,-1,28
 568 1445 568 1445 663 1445 c 0,29,30
 762 1445 762 1445 837 1419.5 c 128,-1,31
 912 1394 912 1394 962.5 1350 c 128,-1,32
 1013 1306 1013 1306 1038.5 1245.5 c 128,-1,33
 1064 1185 1064 1185 1064 1115 c 0,34,35
 1064 1043 1064 1043 1040 992 c 128,-1,36
 1016 941 1016 941 970 903 c 128,-1,37
 924 865 924 865 857 836.5 c 128,-1,38
 790 808 790 808 705 781 c 1,39,-1
 1200 391 l 1,40,41
 1205 419 1205 419 1208 453.5 c 128,-1,42
 1211 488 1211 488 1213 525.5 c 128,-1,43
 1215 563 1215 563 1215.5 601 c 128,-1,44
 1216 639 1216 639 1216 673 c 0,45,46
 1216 699 1216 699 1215.5 721.5 c 128,-1,47
 1215 744 1215 744 1215 761 c 0,48,49
 1214 780 1214 780 1214 796 c 1,50,-1
 1378 796 l 1,51,52
 1378 796 1378 796 1376 770 c 0,53,54
 1375 745 1375 745 1373.5 704 c 128,-1,55
 1372 663 1372 663 1368.5 612 c 128,-1,56
 1365 561 1365 561 1361.5 510.5 c 128,-1,57
 1358 460 1358 460 1353 415 c 128,-1,58
 1348 370 1348 370 1343 341 c 2,59,-1
 1331 277 l 1,60,-1
 1557 95 l 1,61,-1
 1471 -7 l 1,62,-1
 1260 170 l 1,63,64
 1203 60 1203 60 1066 10.5 c 128,-1,65
 929 -39 929 -39 699 -39 c 0,14,15
904 1119 m 0,66,67
 904 1165 904 1165 887 1200.5 c 128,-1,68
 870 1236 870 1236 838.5 1260.5 c 128,-1,69
 807 1285 807 1285 762.5 1297.5 c 128,-1,70
 718 1310 718 1310 663 1310 c 0,71,72
 430 1310 430 1310 430 1117 c 0,73,74
 430 1052 430 1052 478 989.5 c 128,-1,75
 526 927 526 927 609 873 c 1,76,77
 625 877 625 877 653 886 c 128,-1,78
 681 895 681 895 714 909 c 128,-1,79
 747 923 747 923 780.5 942.5 c 128,-1,80
 814 962 814 962 841.5 988 c 128,-1,81
 869 1014 869 1014 886.5 1046.5 c 128,-1,82
 904 1079 904 1079 904 1119 c 0,66,67
EndSplineSet
EndChar

StartChar: quotesingle
Encoding: 39 39 12
Width: 634
Flags: W
HStem: 1058 521<265 373>
VStem: 205 228<1400.48 1579>
LayerCount: 2
Fore
SplineSet
433 1579 m 1,0,-1
 433 1508 l 1,1,-1
 373 1058 l 1,2,-1
 265 1058 l 1,3,-1
 205 1508 l 1,4,-1
 205 1579 l 1,5,-1
 433 1579 l 1,0,-1
EndSplineSet
EndChar

StartChar: parenleft
Encoding: 40 40 13
Width: 864
Flags: W
HStem: 1575 20G<632 669.765>
VStem: 271 186<338.27 1037.29>
LayerCount: 2
Fore
SplineSet
271 696 m 0,0,1
 271 824 271 824 290 934.5 c 128,-1,2
 309 1045 309 1045 340.5 1137 c 128,-1,3
 372 1229 372 1229 412 1303.5 c 128,-1,4
 452 1378 452 1378 494 1435.5 c 128,-1,5
 536 1493 536 1493 576 1532.5 c 128,-1,6
 616 1572 616 1572 648 1595 c 1,7,-1
 759 1493 l 1,8,9
 718 1457 718 1457 666 1389 c 128,-1,10
 614 1321 614 1321 567.5 1221 c 128,-1,11
 521 1121 521 1121 489 989 c 128,-1,12
 457 857 457 857 457 694 c 256,13,14
 457 531 457 531 486.5 398.5 c 128,-1,15
 516 266 516 266 559.5 166.5 c 128,-1,16
 603 67 603 67 652.5 0.5 c 128,-1,17
 702 -66 702 -66 743 -97 c 1,18,-1
 660 -205 l 1,19,20
 635 -189 635 -189 596 -154.5 c 128,-1,21
 557 -120 557 -120 514 -67 c 128,-1,22
 471 -14 471 -14 427.5 59.5 c 128,-1,23
 384 133 384 133 349.5 228 c 128,-1,24
 315 323 315 323 293 439.5 c 128,-1,25
 271 556 271 556 271 696 c 0,0,1
EndSplineSet
EndChar

StartChar: parenright
Encoding: 41 41 14
Width: 864
Flags: W
HStem: 1579 20G<207.63 229.5>
VStem: 425 187<355.749 1053.92>
LayerCount: 2
Fore
SplineSet
612 710 m 0,0,1
 612 572 612 572 592.5 457 c 128,-1,2
 573 342 573 342 541 248 c 128,-1,3
 509 154 509 154 467.5 80.5 c 128,-1,4
 426 7 426 7 383 -49 c 128,-1,5
 340 -105 340 -105 298 -143.5 c 128,-1,6
 256 -182 256 -182 223 -205 c 1,7,-1
 123 -99 l 1,8,9
 165 -63 165 -63 217 6 c 128,-1,10
 269 75 269 75 315.5 175.5 c 128,-1,11
 362 276 362 276 393.5 406 c 128,-1,12
 425 536 425 536 425 694 c 0,13,14
 425 854 425 854 396.5 985.5 c 128,-1,15
 368 1117 368 1117 325 1217.5 c 128,-1,16
 282 1318 282 1318 232 1387 c 128,-1,17
 182 1456 182 1456 140 1491 c 1,18,-1
 223 1599 l 1,19,20
 236 1590 236 1590 270.5 1561.5 c 128,-1,21
 305 1533 305 1533 348 1483.5 c 128,-1,22
 391 1434 391 1434 437.5 1362 c 128,-1,23
 484 1290 484 1290 523 1194.5 c 128,-1,24
 562 1099 562 1099 587 978 c 128,-1,25
 612 857 612 857 612 710 c 0,0,1
EndSplineSet
EndChar

StartChar: asterisk
Encoding: 42 42 15
Width: 933
Flags: W
HStem: 1090 202<319 521> 1145 92<25 334 506 815>
DStem2: 164 872 266 815 0.4956 0.868551<1.04376 316.218> 506 1145 420 1090 0.4956 -0.868551<5.14873 320.323>
LayerCount: 2
Fore
SplineSet
559 1567 m 1,0,-1
 662 1509 l 1,1,-1
 504 1237 l 1,2,-1
 815 1237 l 1,3,-1
 815 1145 l 1,4,-1
 506 1145 l 1,5,-1
 676 872 l 1,6,-1
 574 815 l 1,7,-1
 420 1090 l 1,8,-1
 266 815 l 1,9,-1
 164 872 l 1,10,-1
 334 1145 l 1,11,-1
 25 1145 l 1,12,-1
 25 1237 l 1,13,-1
 336 1237 l 1,14,-1
 178 1509 l 1,15,-1
 281 1567 l 1,16,-1
 420 1292 l 1,17,-1
 559 1567 l 1,0,-1
EndSplineSet
EndChar

StartChar: plus
Encoding: 43 43 16
Width: 1040
Flags: W
HStem: 518 133<166 479 620 934>
VStem: 479 141<174 518 651 995>
LayerCount: 2
Fore
SplineSet
620 518 m 1,0,-1
 620 174 l 1,1,-1
 479 174 l 1,2,-1
 479 518 l 1,3,-1
 166 518 l 1,4,-1
 166 651 l 1,5,-1
 479 651 l 1,6,-1
 479 995 l 1,7,-1
 620 995 l 1,8,-1
 620 651 l 1,9,-1
 934 651 l 1,10,-1
 934 518 l 1,11,-1
 620 518 l 1,0,-1
EndSplineSet
EndChar

StartChar: comma
Encoding: 44 44 17
Width: 537
Flags: W
HStem: -253 546
VStem: 134 261<2.28125 293> 265 130<-113.881 0>
LayerCount: 2
Fore
SplineSet
134 293 m 1,0,-1
 395 293 l 1,1,-1
 395 44 l 2,2,3
 395 -71 395 -71 336.5 -146 c 128,-1,4
 278 -221 278 -221 166 -253 c 1,5,-1
 135 -159 l 1,6,7
 173 -146 173 -146 198 -131.5 c 128,-1,8
 223 -117 223 -117 238 -98.5 c 128,-1,9
 253 -80 253 -80 259 -56 c 128,-1,10
 265 -32 265 -32 265 0 c 1,11,-1
 134 0 l 1,12,-1
 134 293 l 1,0,-1
EndSplineSet
EndChar

StartChar: hyphen
Encoding: 45 45 18
Width: 944
Flags: W
HStem: 508 157<134 810>
VStem: 134 676<508 665>
LayerCount: 2
Fore
SplineSet
134 508 m 1,0,-1
 134 665 l 1,1,-1
 810 665 l 1,2,-1
 810 508 l 1,3,-1
 134 508 l 1,0,-1
EndSplineSet
EndChar

StartChar: period
Encoding: 46 46 19
Width: 595
Flags: W
HStem: 0 293<190 451>
VStem: 190 261<0 293>
LayerCount: 2
Fore
SplineSet
190 293 m 1,0,-1
 451 293 l 1,1,-1
 451 0 l 1,2,-1
 190 0 l 1,3,-1
 190 293 l 1,0,-1
EndSplineSet
EndChar

StartChar: slash
Encoding: 47 47 20
Width: 1043
Flags: W
DStem2: 193 -117 363 -179 0.320377 0.94729<0 1946.24>
LayerCount: 2
Fore
SplineSet
818 1731 m 1,0,-1
 987 1669 l 1,1,-1
 363 -179 l 1,2,-1
 193 -117 l 1,3,-1
 818 1731 l 1,0,-1
EndSplineSet
EndChar

StartChar: zero
Encoding: 48 48 21
Width: 1356
Flags: W
HStem: -30 143<488.005 868.847> 1070 139<486.655 867.147>
VStem: 109 186<332.853 853.59> 1064 183<332.523 844.91>
LayerCount: 2
Fore
SplineSet
678 113 m 0,0,1
 775 113 775 113 847.5 146.5 c 128,-1,2
 920 180 920 180 968 242 c 128,-1,3
 1016 304 1016 304 1040 393 c 128,-1,4
 1064 482 1064 482 1064 592 c 0,5,6
 1064 645 1064 645 1056.5 701 c 128,-1,7
 1049 757 1049 757 1032 810.5 c 128,-1,8
 1015 864 1015 864 986 911 c 128,-1,9
 957 958 957 958 914 993.5 c 128,-1,10
 871 1029 871 1029 812.5 1049.5 c 128,-1,11
 754 1070 754 1070 678 1070 c 0,12,13
 576 1070 576 1070 503 1034 c 128,-1,14
 430 998 430 998 384 934 c 128,-1,15
 338 870 338 870 316.5 782.5 c 128,-1,16
 295 695 295 695 295 592 c 0,17,18
 295 536 295 536 302 478.5 c 128,-1,19
 309 421 309 421 326.5 368 c 128,-1,20
 344 315 344 315 372.5 268.5 c 128,-1,21
 401 222 401 222 443.5 187.5 c 128,-1,22
 486 153 486 153 544 133 c 128,-1,23
 602 113 602 113 678 113 c 0,0,1
674 1209 m 0,24,25
 779 1209 779 1209 862 1183 c 128,-1,26
 945 1157 945 1157 1008.5 1112.5 c 128,-1,27
 1072 1068 1072 1068 1117.5 1009 c 128,-1,28
 1163 950 1163 950 1191.5 883.5 c 128,-1,29
 1220 817 1220 817 1233.5 746.5 c 128,-1,30
 1247 676 1247 676 1247 610 c 0,31,32
 1247 532 1247 532 1234.5 454.5 c 128,-1,33
 1222 377 1222 377 1194 305.5 c 128,-1,34
 1166 234 1166 234 1121.5 173 c 128,-1,35
 1077 112 1077 112 1013.5 66.5 c 128,-1,36
 950 21 950 21 865.5 -4.5 c 128,-1,37
 781 -30 781 -30 674 -30 c 0,38,39
 542 -30 542 -30 437 15.5 c 128,-1,40
 332 61 332 61 259 143.5 c 128,-1,41
 186 226 186 226 147.5 340.5 c 128,-1,42
 109 455 109 455 109 593 c 0,43,44
 109 670 109 670 122.5 745.5 c 128,-1,45
 136 821 136 821 165 889.5 c 128,-1,46
 194 958 194 958 239 1016.5 c 128,-1,47
 284 1075 284 1075 347 1118 c 128,-1,48
 410 1161 410 1161 491 1185 c 128,-1,49
 572 1209 572 1209 674 1209 c 0,24,25
EndSplineSet
EndChar

StartChar: one
Encoding: 49 49 22
Width: 744
Flags: W
HStem: 0 21G<324 511>
VStem: 324 187<0 1057>
DStem2: 64 1083 117 957 0.907442 0.420177<0 225.01>
LayerCount: 2
Fore
SplineSet
324 1057 m 1,0,-1
 117 957 l 1,1,-1
 64 1083 l 1,2,3
 107 1103 107 1103 149.5 1122.5 c 128,-1,4
 192 1142 192 1142 235 1162 c 2,5,-1
 321 1202 l 1,6,-1
 511 1202 l 1,7,-1
 511 0 l 1,8,-1
 324 0 l 1,9,-1
 324 1057 l 1,0,-1
EndSplineSet
EndChar

StartChar: two
Encoding: 50 50 23
Width: 1104
Flags: W
HStem: 0 152<342 938> 1059 139<289.43 690.489>
VStem: 776 162<683.533 979.967>
DStem2: 123 146 342 152 0.773788 0.633444<173.26 847.181> 307 1168 372 1040 0.973417 0.229039<-109.353 162.081>
LayerCount: 2
Fore
SplineSet
776 846 m 0,0,1
 776 949 776 949 706.5 1004 c 128,-1,2
 637 1059 637 1059 500 1059 c 0,3,4
 473 1059 473 1059 440 1054 c 128,-1,5
 407 1049 407 1049 372 1040 c 128,-1,6
 337 1031 337 1031 301.5 1018.5 c 128,-1,7
 266 1006 266 1006 235 992 c 1,8,-1
 182 1108 l 1,9,10
 203 1123 203 1123 234 1139 c 128,-1,11
 265 1155 265 1155 307 1168 c 128,-1,12
 349 1181 349 1181 402.5 1189.5 c 128,-1,13
 456 1198 456 1198 522 1198 c 0,14,15
 605 1198 605 1198 668.5 1183.5 c 128,-1,16
 732 1169 732 1169 778 1143.5 c 128,-1,17
 824 1118 824 1118 855 1083.5 c 128,-1,18
 886 1049 886 1049 904.5 1010 c 128,-1,19
 923 971 923 971 930.5 928.5 c 128,-1,20
 938 886 938 886 938 845 c 0,21,22
 938 790 938 790 923.5 738 c 128,-1,23
 909 686 909 686 872.5 630.5 c 128,-1,24
 836 575 836 575 775 513 c 128,-1,25
 714 451 714 451 621 376 c 2,26,-1
 342 152 l 1,27,-1
 938 152 l 1,28,-1
 938 0 l 1,29,-1
 123 0 l 1,30,-1
 123 146 l 1,31,-1
 531 480 l 2,32,33
 607 542 607 542 655 590.5 c 128,-1,34
 703 639 703 639 730 681 c 128,-1,35
 757 723 757 723 766.5 762 c 128,-1,36
 776 801 776 801 776 846 c 0,0,1
EndSplineSet
EndChar

StartChar: three
Encoding: 51 51 24
Width: 1136
Flags: W
HStem: -198 139<268.01 704.823> 545 69<577 704.5> 1063 143<265.267 692.234>
VStem: 775 165<708.021 986.724> 799 180<31.0217 340.493>
DStem2: 143 1127 189 992 0.943733 0.33071<0 301.323> 268 -14 237 -152.5 0.962451 -0.271454<-114.434 247.836>
LayerCount: 2
Fore
SplineSet
775 843 m 0,0,1
 775 958 775 958 704.5 1010.5 c 128,-1,2
 634 1063 634 1063 486 1063 c 0,3,4
 445 1063 445 1063 395 1052.5 c 128,-1,5
 345 1042 345 1042 300.5 1029 c 128,-1,6
 256 1016 256 1016 224.5 1004.5 c 128,-1,7
 193 993 193 993 189 992 c 1,8,-1
 143 1127 l 1,9,10
 147 1128 147 1128 179 1141 c 128,-1,11
 211 1154 211 1154 260 1168 c 128,-1,12
 309 1182 309 1182 369.5 1194 c 128,-1,13
 430 1206 430 1206 492 1206 c 0,14,15
 536 1206 536 1206 586 1200.5 c 128,-1,16
 636 1195 636 1195 686 1180.5 c 128,-1,17
 736 1166 736 1166 782 1141.5 c 128,-1,18
 828 1117 828 1117 863 1079 c 128,-1,19
 898 1041 898 1041 919 988.5 c 128,-1,20
 940 936 940 936 940 866 c 0,21,22
 940 806 940 806 925 759 c 128,-1,23
 910 712 910 712 885.5 676 c 128,-1,24
 861 640 861 640 830 615.5 c 128,-1,25
 799 591 799 591 767 575 c 128,-1,26
 735 559 735 559 704.5 552 c 128,-1,27
 674 545 674 545 651 545 c 1,28,29
 680 539 680 539 715.5 528 c 128,-1,30
 751 517 751 517 787.5 497.5 c 128,-1,31
 824 478 824 478 858.5 450 c 128,-1,32
 893 422 893 422 920 381.5 c 128,-1,33
 947 341 947 341 963 288 c 128,-1,34
 979 235 979 235 979 166 c 0,35,36
 979 71 979 71 937.5 2.5 c 128,-1,37
 896 -66 896 -66 829.5 -110.5 c 128,-1,38
 763 -155 763 -155 679 -176.5 c 128,-1,39
 595 -198 595 -198 511 -198 c 0,40,41
 436 -198 436 -198 364.5 -184 c 128,-1,42
 293 -170 293 -170 237 -152.5 c 128,-1,43
 181 -135 181 -135 145.5 -119.5 c 128,-1,44
 110 -104 110 -104 106 -102 c 1,45,-1
 160 31 l 1,46,47
 210 5 210 5 268 -14 c 0,48,49
 318 -31 318 -31 381.5 -45 c 128,-1,50
 445 -59 445 -59 515 -59 c 0,51,52
 659 -59 659 -59 729 3 c 128,-1,53
 799 65 799 65 799 186 c 0,54,55
 799 311 799 311 716.5 381.5 c 128,-1,56
 634 452 634 452 463 471 c 1,57,-1
 463 614 l 1,58,59
 521 614 521 614 577 625 c 128,-1,60
 633 636 633 636 677 662 c 128,-1,61
 721 688 721 688 748 732.5 c 128,-1,62
 775 777 775 777 775 843 c 0,0,1
EndSplineSet
EndChar

StartChar: four
Encoding: 52 52 25
Width: 1199
Flags: W
HStem: 68 137<263 755 924 1110>
VStem: 755 169<-260 68 207 930>
DStem2: 78 205 263 205 0.563413 0.826175<104.231 980.408>
LayerCount: 2
Fore
SplineSet
755 205 m 1,0,-1
 755 930 l 1,1,-1
 263 205 l 1,2,-1
 755 205 l 1,0,-1
924 1169 m 1,3,-1
 924 207 l 1,4,-1
 1110 207 l 1,5,-1
 1110 68 l 1,6,-1
 924 68 l 1,7,-1
 924 -260 l 1,8,-1
 755 -260 l 1,9,-1
 755 68 l 1,10,-1
 106 68 l 1,11,-1
 78 205 l 1,12,-1
 762 1208 l 1,13,-1
 924 1169 l 1,3,-1
EndSplineSet
EndChar

StartChar: five
Encoding: 53 53 26
Width: 1102
Flags: W
HStem: -207 151<279.516 713.231> 549 149<359.848 722.74> 1018 151<316 919>
VStem: 171 145<622 1018> 835 172<60.9636 435.792>
LayerCount: 2
Fore
SplineSet
186 31 m 1,0,1
 260 -9 260 -9 344.5 -32.5 c 128,-1,2
 429 -56 429 -56 518 -56 c 0,3,4
 835 -56 835 -56 835 244 c 0,5,6
 835 400 835 400 761 474.5 c 128,-1,7
 687 549 687 549 538 549 c 0,8,9
 466 549 466 549 397.5 524.5 c 128,-1,10
 329 500 329 500 269 458 c 1,11,-1
 171 537 l 1,12,-1
 171 1169 l 1,13,-1
 919 1169 l 1,14,-1
 919 1018 l 1,15,-1
 316 1018 l 1,16,-1
 316 622 l 2,17,18
 316 621 316 621 329.5 633 c 128,-1,19
 343 645 343 645 372 659.5 c 128,-1,20
 401 674 401 674 446.5 686 c 128,-1,21
 492 698 492 698 556 698 c 0,22,23
 656 698 656 698 739 667.5 c 128,-1,24
 822 637 822 637 881.5 579 c 128,-1,25
 941 521 941 521 974 436.5 c 128,-1,26
 1007 352 1007 352 1007 244 c 0,27,28
 1007 139 1007 139 973 55.5 c 128,-1,29
 939 -28 939 -28 875.5 -86.5 c 128,-1,30
 812 -145 812 -145 721 -176 c 128,-1,31
 630 -207 630 -207 516 -207 c 0,32,33
 418 -207 418 -207 321 -183.5 c 128,-1,34
 224 -160 224 -160 135 -115 c 1,35,-1
 186 31 l 1,0,1
EndSplineSet
EndChar

StartChar: six
Encoding: 54 54 27
Width: 1241
Flags: W
HStem: -156 142<453.204 802.327> 657 136<456.8 824.363> 1174 145<737.242 843.251>
VStem: 124 178<155.039 537.84> 953 176<144.223 522.704>
LayerCount: 2
Fore
SplineSet
1129 335 m 0,0,1
 1129 234 1129 234 1096.5 145 c 128,-1,2
 1064 56 1064 56 1001 -11 c 128,-1,3
 938 -78 938 -78 844.5 -117 c 128,-1,4
 751 -156 751 -156 629 -156 c 0,5,6
 505 -156 505 -156 410.5 -115 c 128,-1,7
 316 -74 316 -74 252.5 1.5 c 128,-1,8
 189 77 189 77 156.5 184.5 c 128,-1,9
 124 292 124 292 124 425 c 0,10,11
 124 555 124 555 151.5 665.5 c 128,-1,12
 179 776 179 776 227.5 868 c 128,-1,13
 276 960 276 960 343 1033.5 c 128,-1,14
 410 1107 410 1107 489.5 1163.5 c 128,-1,15
 569 1220 569 1220 658 1258.5 c 128,-1,16
 747 1297 747 1297 839 1319 c 1,17,-1
 882 1174 l 1,18,19
 803 1157 803 1157 715.5 1120.5 c 128,-1,20
 628 1084 628 1084 549.5 1024 c 128,-1,21
 471 964 471 964 410 879 c 128,-1,22
 349 794 349 794 323 680 c 1,23,24
 356 704 356 704 392.5 724.5 c 128,-1,25
 429 745 429 745 471 760 c 128,-1,26
 513 775 513 775 560.5 784 c 128,-1,27
 608 793 608 793 663 793 c 0,28,29
 771 793 771 793 857 759 c 128,-1,30
 943 725 943 725 1003.5 664.5 c 128,-1,31
 1064 604 1064 604 1096.5 519.5 c 128,-1,32
 1129 435 1129 435 1129 335 c 0,0,1
302 401 m 0,33,34
 302 356 302 356 307 307.5 c 128,-1,35
 312 259 312 259 325.5 212.5 c 128,-1,36
 339 166 339 166 362.5 125 c 128,-1,37
 386 84 386 84 422.5 53 c 128,-1,38
 459 22 459 22 509.5 4 c 128,-1,39
 560 -14 560 -14 629 -14 c 0,40,41
 718 -14 718 -14 780 18 c 128,-1,42
 842 50 842 50 880.5 100.5 c 128,-1,43
 919 151 919 151 936 213 c 128,-1,44
 953 275 953 275 953 335 c 0,45,46
 953 417 953 417 930 477.5 c 128,-1,47
 907 538 907 538 867.5 578 c 128,-1,48
 828 618 828 618 775.5 637.5 c 128,-1,49
 723 657 723 657 663 657 c 0,50,51
 605 657 605 657 547.5 642 c 128,-1,52
 490 627 490 627 441.5 606 c 128,-1,53
 393 585 393 585 357.5 562 c 128,-1,54
 322 539 322 539 308 523 c 1,55,56
 302 485 302 485 302 401 c 0,33,34
EndSplineSet
EndChar

StartChar: seven
Encoding: 55 55 28
Width: 1132
Flags: W
HStem: 1074 155<145 823>
DStem2: 298 -100 466 -176 0.407195 0.913341<0 1286.04>
LayerCount: 2
Fore
SplineSet
1038 1107 m 1,0,-1
 466 -176 l 1,1,-1
 298 -100 l 1,2,-1
 823 1074 l 1,3,-1
 145 1074 l 1,4,-1
 145 1229 l 1,5,-1
 981 1229 l 1,6,-1
 1038 1107 l 1,0,-1
EndSplineSet
EndChar

StartChar: eight
Encoding: 56 56 29
Width: 1262
Flags: W
HStem: -148 139<432.409 837.156> 575 116<477.859 789.221> 1199 135<436.44 831.056>
VStem: 158 178<83.6433 427.899 821.774 1106.74> 926 178<76.9015 429.878 817.651 1109.25>
LayerCount: 2
Fore
SplineSet
926 964 m 0,0,1
 926 1032 926 1032 902 1077.5 c 128,-1,2
 878 1123 878 1123 837.5 1150 c 128,-1,3
 797 1177 797 1177 745 1188 c 128,-1,4
 693 1199 693 1199 637 1199 c 0,5,6
 584 1199 584 1199 530.5 1189 c 128,-1,7
 477 1179 477 1179 433.5 1153 c 128,-1,8
 390 1127 390 1127 363 1081.5 c 128,-1,9
 336 1036 336 1036 336 966 c 0,10,11
 336 907 336 907 360.5 856.5 c 128,-1,12
 385 806 385 806 426.5 769.5 c 128,-1,13
 468 733 468 733 522.5 712 c 128,-1,14
 577 691 577 691 637 691 c 0,15,16
 695 691 695 691 747.5 711.5 c 128,-1,17
 800 732 800 732 840 769 c 128,-1,18
 880 806 880 806 903 855.5 c 128,-1,19
 926 905 926 905 926 964 c 0,0,1
926 253 m 0,20,21
 926 322 926 322 904.5 380.5 c 128,-1,22
 883 439 883 439 844.5 482.5 c 128,-1,23
 806 526 806 526 753 550.5 c 128,-1,24
 700 575 700 575 637 575 c 0,25,26
 572 575 572 575 517 551 c 128,-1,27
 462 527 462 527 422 484.5 c 128,-1,28
 382 442 382 442 359 383 c 128,-1,29
 336 324 336 324 336 255 c 0,30,31
 336 191 336 191 351 142 c 128,-1,32
 366 93 366 93 401.5 59.5 c 128,-1,33
 437 26 437 26 494.5 8.5 c 128,-1,34
 552 -9 552 -9 637 -9 c 0,35,36
 724 -9 724 -9 780 9 c 128,-1,37
 836 27 836 27 868.5 61 c 128,-1,38
 901 95 901 95 913.5 143.5 c 128,-1,39
 926 192 926 192 926 253 c 0,20,21
1104 966 m 0,40,41
 1104 894 1104 894 1081.5 839.5 c 128,-1,42
 1059 785 1059 785 1022 745 c 128,-1,43
 985 705 985 705 938 678 c 128,-1,44
 891 651 891 651 842 634 c 1,45,46
 971 595 971 595 1037.5 494.5 c 128,-1,47
 1104 394 1104 394 1104 231 c 0,48,49
 1104 137 1104 137 1069.5 66 c 128,-1,50
 1035 -5 1035 -5 973 -52.5 c 128,-1,51
 911 -100 911 -100 825.5 -124 c 128,-1,52
 740 -148 740 -148 637 -148 c 0,53,54
 538 -148 538 -148 451 -125 c 128,-1,55
 364 -102 364 -102 298.5 -55 c 128,-1,56
 233 -8 233 -8 195.5 63.5 c 128,-1,57
 158 135 158 135 158 233 c 0,58,59
 158 396 158 396 224.5 496.5 c 128,-1,60
 291 597 291 597 420 636 c 1,61,62
 372 652 372 652 325.5 678.5 c 128,-1,63
 279 705 279 705 241.5 745 c 128,-1,64
 204 785 204 785 181 840 c 128,-1,65
 158 895 158 895 158 968 c 0,66,67
 158 1056 158 1056 194.5 1124 c 128,-1,68
 231 1192 231 1192 295.5 1238.5 c 128,-1,69
 360 1285 360 1285 447.5 1309.5 c 128,-1,70
 535 1334 535 1334 637 1334 c 0,71,72
 737 1334 737 1334 823 1309.5 c 128,-1,73
 909 1285 909 1285 971 1238 c 128,-1,74
 1033 1191 1033 1191 1068.5 1122.5 c 128,-1,75
 1104 1054 1104 1054 1104 966 c 0,40,41
EndSplineSet
EndChar

StartChar: nine
Encoding: 57 57 30
Width: 1246
Flags: W
HStem: -161 145<402.749 508.467> 365 136<421.472 790.901> 1172 142<444.008 792.758>
VStem: 117 176<635.054 1013.08> 944 178<619.124 1000.98>
LayerCount: 2
Fore
SplineSet
583 365 m 0,0,1
 475 365 475 365 388.5 398.5 c 128,-1,2
 302 432 302 432 241.5 493 c 128,-1,3
 181 554 181 554 149 638 c 128,-1,4
 117 722 117 722 117 823 c 0,5,6
 117 923 117 923 149.5 1012.5 c 128,-1,7
 182 1102 182 1102 245 1169 c 128,-1,8
 308 1236 308 1236 401.5 1275 c 128,-1,9
 495 1314 495 1314 617 1314 c 0,10,11
 741 1314 741 1314 835.5 1273 c 128,-1,12
 930 1232 930 1232 993.5 1156.5 c 128,-1,13
 1057 1081 1057 1081 1089.5 973.5 c 128,-1,14
 1122 866 1122 866 1122 733 c 0,15,16
 1122 605 1122 605 1095 495 c 128,-1,17
 1068 385 1068 385 1020 293 c 128,-1,18
 972 201 972 201 905.5 126.5 c 128,-1,19
 839 52 839 52 759.5 -4.5 c 128,-1,20
 680 -61 680 -61 590.5 -100 c 128,-1,21
 501 -139 501 -139 407 -161 c 1,22,-1
 364 -16 l 1,23,24
 414 -6 414 -6 470 14 c 128,-1,25
 526 34 526 34 582.5 64 c 128,-1,26
 639 94 639 94 692.5 134.5 c 128,-1,27
 746 175 746 175 791 226.5 c 128,-1,28
 836 278 836 278 869 341.5 c 128,-1,29
 902 405 902 405 918 481 c 1,30,31
 866 430 866 430 779.5 397.5 c 128,-1,32
 693 365 693 365 583 365 c 0,0,1
293 823 m 0,33,34
 293 741 293 741 316 680.5 c 128,-1,35
 339 620 339 620 378.5 580 c 128,-1,36
 418 540 418 540 470.5 520.5 c 128,-1,37
 523 501 523 501 583 501 c 0,38,39
 641 501 641 501 698 515.5 c 128,-1,40
 755 530 755 530 804 551 c 128,-1,41
 853 572 853 572 888.5 595 c 128,-1,42
 924 618 924 618 938 635 c 1,43,44
 944 672 944 672 944 757 c 0,45,46
 944 802 944 802 939 850.5 c 128,-1,47
 934 899 934 899 920.5 945 c 128,-1,48
 907 991 907 991 883.5 1032.5 c 128,-1,49
 860 1074 860 1074 823.5 1105 c 128,-1,50
 787 1136 787 1136 736 1154 c 128,-1,51
 685 1172 685 1172 617 1172 c 0,52,53
 528 1172 528 1172 466.5 1140 c 128,-1,54
 405 1108 405 1108 366.5 1058 c 128,-1,55
 328 1008 328 1008 310.5 946 c 128,-1,56
 293 884 293 884 293 823 c 0,33,34
EndSplineSet
EndChar

StartChar: colon
Encoding: 58 58 31
Width: 596
Flags: W
HStem: 0 281<180 450> 583 281<180 450>
VStem: 180 270<0 281 583 864>
LayerCount: 2
Fore
SplineSet
180 281 m 1,0,-1
 450 281 l 1,1,-1
 450 0 l 1,2,-1
 180 0 l 1,3,-1
 180 281 l 1,0,-1
180 864 m 1,4,-1
 450 864 l 1,5,-1
 450 583 l 1,6,-1
 180 583 l 1,7,-1
 180 864 l 1,4,-1
EndSplineSet
EndChar

StartChar: semicolon
Encoding: 59 59 32
Width: 574
Flags: W
HStem: 583 281<169 432>
VStem: 171 261<2.28125 293 583 864> 302 130<-113.881 0>
LayerCount: 2
Fore
SplineSet
169 864 m 1,0,-1
 432 864 l 1,1,-1
 432 583 l 1,2,-1
 169 583 l 1,3,-1
 169 864 l 1,0,-1
171 293 m 1,4,-1
 432 293 l 1,5,-1
 432 44 l 2,6,7
 432 -71 432 -71 373.5 -146 c 128,-1,8
 315 -221 315 -221 203 -253 c 1,9,-1
 172 -159 l 1,10,11
 210 -146 210 -146 235 -131.5 c 128,-1,12
 260 -117 260 -117 275 -98.5 c 128,-1,13
 290 -80 290 -80 296 -56 c 128,-1,14
 302 -32 302 -32 302 0 c 1,15,-1
 171 0 l 1,16,-1
 171 293 l 1,4,-1
EndSplineSet
EndChar

StartChar: less
Encoding: 60 60 33
Width: 1250
Flags: W
DStem2: 449 663 243 663 0.735707 -0.6773<0 738.744> 336 749 449 663 0.735707 0.6773<24.8871 763.631>
LayerCount: 2
Fore
SplineSet
336 749 m 1,0,-1
 898 1266 l 1,1,-1
 1000 1156 l 1,2,-1
 449 663 l 1,3,-1
 1000 170 l 1,4,-1
 898 60 l 1,5,-1
 243 663 l 1,6,-1
 336 749 l 1,0,-1
EndSplineSet
EndChar

StartChar: equal
Encoding: 61 61 34
Width: 944
Flags: W
HStem: 280 131<178 766> 508 131<178 766>
VStem: 178 588<280 411 508 639>
LayerCount: 2
Fore
SplineSet
178 280 m 1,0,-1
 178 411 l 1,1,-1
 766 411 l 1,2,-1
 766 280 l 1,3,-1
 178 280 l 1,0,-1
178 508 m 1,4,-1
 178 639 l 1,5,-1
 766 639 l 1,6,-1
 766 508 l 1,7,-1
 178 508 l 1,4,-1
EndSplineSet
EndChar

StartChar: greater
Encoding: 62 62 35
Width: 1290
Flags: W
VStem: 874 206<560 766>
DStem2: 425 1266 323 1156 0.735707 -0.6773<0 738.744> 323 170 425 60 0.735707 0.6773<0.539144 739.283>
LayerCount: 2
Fore
SplineSet
425 60 m 1,0,-1
 323 170 l 1,1,-1
 874 663 l 1,2,-1
 323 1156 l 1,3,-1
 425 1266 l 1,4,-1
 1080 663 l 1,5,-1
 425 60 l 1,0,-1
EndSplineSet
EndChar

StartChar: question
Encoding: 63 63 36
Width: 1201
Flags: W
HStem: 0 218<308 508> 1332 21G<193.586 225> 1418 161<297.786 754.304>
VStem: 318 180<0 218 296 675> 841 191<1042.12 1337.14>
DStem2: 318 777 613.5 716.5 0.941095 0.338142<134.907 459.571>
LayerCount: 2
Fore
SplineSet
508 218 m 1,0,-1
 508 0 l 1,1,-1
 308 0 l 1,2,-1
 308 218 l 1,3,-1
 508 218 l 1,0,-1
841 1195 m 0,4,5
 841 1312 841 1312 767 1365 c 128,-1,6
 693 1418 693 1418 547 1418 c 0,7,8
 475 1418 475 1418 412.5 1404.5 c 128,-1,9
 350 1391 350 1391 303 1375 c 0,10,11
 248 1356 248 1356 202 1332 c 1,12,-1
 141 1477 l 1,13,14
 196 1505 196 1505 261 1528 c 0,15,16
 317 1547 317 1547 390.5 1563 c 128,-1,17
 464 1579 464 1579 549 1579 c 0,18,19
 652 1579 652 1579 740 1556.5 c 128,-1,20
 828 1534 828 1534 893 1487 c 128,-1,21
 958 1440 958 1440 995 1368 c 128,-1,22
 1032 1296 1032 1296 1032 1197 c 0,23,24
 1032 1112 1032 1112 1007.5 1046 c 128,-1,25
 983 980 983 980 942 928.5 c 128,-1,26
 901 877 901 877 847 838 c 128,-1,27
 793 799 793 799 733.5 769 c 128,-1,28
 674 739 674 739 613.5 716.5 c 128,-1,29
 553 694 553 694 498 675 c 1,30,-1
 498 296 l 1,31,-1
 318 296 l 1,32,-1
 318 777 l 1,33,34
 451 822 451 822 549.5 864.5 c 128,-1,35
 648 907 648 907 712.5 955.5 c 128,-1,36
 777 1004 777 1004 809 1062 c 128,-1,37
 841 1120 841 1120 841 1195 c 0,4,5
EndSplineSet
EndChar

StartChar: at
Encoding: 64 64 37
Width: 1927
Flags: W
HStem: -155 139<677.875 1283.44> 199 131<707.841 1026.52 1385 1538.34> 1008 120<871.289 1236.59> 1317 139<731.577 1294.44>
VStem: 138 159<330.003 866.887> 478 155<406.45 771.123> 1237 148<619.253 987> 1258 127<317 548> 1639 160<490.953 1003.94>
DStem2: 1152 1119.5 1120.5 1004.5 0.992278 -0.124035<-61.3555 100.805>
LayerCount: 2
Fore
SplineSet
973 -155 m 0,0,1
 753 -155 753 -155 595 -96 c 128,-1,2
 437 -37 437 -37 335.5 63.5 c 128,-1,3
 234 164 234 164 186 297 c 128,-1,4
 138 430 138 430 138 578 c 0,5,6
 138 720 138 720 171.5 840 c 128,-1,7
 205 960 205 960 264 1057.5 c 128,-1,8
 323 1155 323 1155 404 1229.5 c 128,-1,9
 485 1304 485 1304 579.5 1354.5 c 128,-1,10
 674 1405 674 1405 778.5 1430.5 c 128,-1,11
 883 1456 883 1456 990 1456 c 0,12,13
 1098 1456 1098 1456 1200.5 1437.5 c 128,-1,14
 1303 1419 1303 1419 1393 1380.5 c 128,-1,15
 1483 1342 1483 1342 1557.5 1284.5 c 128,-1,16
 1632 1227 1632 1227 1685.5 1149.5 c 128,-1,17
 1739 1072 1739 1072 1769 973.5 c 128,-1,18
 1799 875 1799 875 1799 756 c 0,19,20
 1799 649 1799 649 1778 566 c 128,-1,21
 1757 483 1757 483 1721.5 421 c 128,-1,22
 1686 359 1686 359 1640.5 316.5 c 128,-1,23
 1595 274 1595 274 1546 248 c 128,-1,24
 1497 222 1497 222 1448 210.5 c 128,-1,25
 1399 199 1399 199 1358 199 c 0,26,27
 1323 199 1323 199 1303.5 208.5 c 128,-1,28
 1284 218 1284 218 1273.5 234 c 128,-1,29
 1263 250 1263 250 1260.5 271 c 128,-1,30
 1258 292 1258 292 1258 316 c 2,31,-1
 1258 548 l 1,32,33
 1246 489 1246 489 1215.5 427.5 c 128,-1,34
 1185 366 1185 366 1134 315 c 128,-1,35
 1083 264 1083 264 1010.5 231.5 c 128,-1,36
 938 199 938 199 842 199 c 0,37,38
 756 199 756 199 688 226.5 c 128,-1,39
 620 254 620 254 573.5 305 c 128,-1,40
 527 356 527 356 502.5 428 c 128,-1,41
 478 500 478 500 478 590 c 0,42,43
 478 655 478 655 497.5 720 c 128,-1,44
 517 785 517 785 552.5 845 c 128,-1,45
 588 905 588 905 639 956.5 c 128,-1,46
 690 1008 690 1008 753 1046 c 128,-1,47
 816 1084 816 1084 889.5 1106 c 128,-1,48
 963 1128 963 1128 1045 1128 c 0,49,50
 1061 1128 1061 1128 1090 1125.5 c 128,-1,51
 1119 1123 1119 1123 1152 1119.5 c 128,-1,52
 1185 1116 1185 1116 1218.5 1112 c 128,-1,53
 1252 1108 1252 1108 1276 1104 c 0,54,55
 1305 1099 1305 1099 1322 1088 c 128,-1,56
 1339 1077 1339 1077 1349.5 1061.5 c 128,-1,57
 1360 1046 1360 1046 1367 1027 c 128,-1,58
 1374 1008 1374 1008 1385 987 c 1,59,-1
 1385 317 l 1,60,61
 1446 317 1446 317 1493.5 341.5 c 128,-1,62
 1541 366 1541 366 1573 419.5 c 128,-1,63
 1605 473 1605 473 1622 556.5 c 128,-1,64
 1639 640 1639 640 1639 758 c 0,65,66
 1639 869 1639 869 1613 953.5 c 128,-1,67
 1587 1038 1587 1038 1541 1100 c 128,-1,68
 1495 1162 1495 1162 1433 1203.5 c 128,-1,69
 1371 1245 1371 1245 1299.5 1270.5 c 128,-1,70
 1228 1296 1228 1296 1150.5 1306.5 c 128,-1,71
 1073 1317 1073 1317 996 1317 c 0,72,73
 845 1317 845 1317 717 1267 c 128,-1,74
 589 1217 589 1217 495.5 1122 c 128,-1,75
 402 1027 402 1027 349.5 889.5 c 128,-1,76
 297 752 297 752 297 578 c 0,77,78
 297 440 297 440 341 329.5 c 128,-1,79
 385 219 385 219 471.5 142.5 c 128,-1,80
 558 66 558 66 686 25 c 128,-1,81
 814 -16 814 -16 983 -16 c 0,82,83
 1072 -16 1072 -16 1143 -4.5 c 128,-1,84
 1214 7 1214 7 1268.5 24 c 128,-1,85
 1323 41 1323 41 1362 61 c 128,-1,86
 1401 81 1401 81 1425.5 97.5 c 128,-1,87
 1450 114 1450 114 1460.5 124.5 c 128,-1,88
 1471 135 1471 135 1470 134 c 1,89,-1
 1561 42 l 1,90,91
 1520 -3 1520 -3 1460 -39.5 c 128,-1,92
 1400 -76 1400 -76 1324.5 -101.5 c 128,-1,93
 1249 -127 1249 -127 1160 -141 c 128,-1,94
 1071 -155 1071 -155 973 -155 c 0,0,1
1061 1008 m 0,95,96
 977 1008 977 1008 899.5 976.5 c 128,-1,97
 822 945 822 945 762.5 888 c 128,-1,98
 703 831 703 831 668 750.5 c 128,-1,99
 633 670 633 670 633 573 c 0,100,101
 633 330 633 330 858 330 c 0,102,103
 944 330 944 330 1014 367.5 c 128,-1,104
 1084 405 1084 405 1133.5 485 c 128,-1,105
 1183 565 1183 565 1210 689 c 128,-1,106
 1237 813 1237 813 1237 987 c 1,107,108
 1238 987 1238 987 1221 990.5 c 128,-1,109
 1204 994 1204 994 1178 997.5 c 128,-1,110
 1152 1001 1152 1001 1120.5 1004.5 c 128,-1,111
 1089 1008 1089 1008 1061 1008 c 0,95,96
EndSplineSet
EndChar

StartChar: A
Encoding: 65 65 38
Width: 1458
Flags: W
HStem: 0 21G<63 268.423 1189.58 1395> 383 102<412 1046> 1456 123<579 879>
VStem: 63 199<0 199> 1196 199<0 199>
DStem2: 63 0 262 0 0.310624 0.950533<61.8141 464.075 569.416 1590.85> 879 1579 729 1456 0.310624 -0.950533<70.322 1091.76 1197.1 1599.36>
LayerCount: 2
Fore
SplineSet
879 1579 m 1,0,-1
 1395 0 l 1,1,-1
 1196 0 l 1,2,-1
 1073 383 l 1,3,-1
 385 383 l 1,4,-1
 262 0 l 1,5,-1
 63 0 l 1,6,-1
 579 1579 l 1,7,-1
 879 1579 l 1,0,-1
412 485 m 1,8,-1
 1046 485 l 1,9,-1
 729 1456 l 1,10,-1
 412 485 l 1,8,-1
EndSplineSet
EndChar

StartChar: B
Encoding: 66 66 39
Width: 1365
Flags: W
HStem: 0 143<347 919.766> 786 129<347 865.219> 1436 143<347 891.992>
VStem: 153 194<143 786 915 1436> 1026 165<1024.7 1335.68> 1091 182<279.661 643.783>
LayerCount: 2
Fore
SplineSet
514 1579 m 2,0,1
 576 1579 576 1579 650.5 1576.5 c 128,-1,2
 725 1574 725 1574 800 1563 c 128,-1,3
 875 1552 875 1552 945.5 1529 c 128,-1,4
 1016 1506 1016 1506 1070.5 1466.5 c 128,-1,5
 1125 1427 1125 1427 1158 1367 c 128,-1,6
 1191 1307 1191 1307 1191 1221 c 0,7,8
 1191 1115 1191 1115 1168 1050 c 128,-1,9
 1145 985 1145 985 1102 947 c 128,-1,10
 1059 909 1059 909 999 891 c 128,-1,11
 939 873 939 873 866 862 c 1,12,13
 908 857 908 857 954.5 848.5 c 128,-1,14
 1001 840 1001 840 1046 821.5 c 128,-1,15
 1091 803 1091 803 1132.5 772.5 c 128,-1,16
 1174 742 1174 742 1205 694.5 c 128,-1,17
 1236 647 1236 647 1254.5 580 c 128,-1,18
 1273 513 1273 513 1273 421 c 0,19,20
 1273 326 1273 326 1250.5 258 c 128,-1,21
 1228 190 1228 190 1185.5 143.5 c 128,-1,22
 1143 97 1143 97 1081.5 68.5 c 128,-1,23
 1020 40 1020 40 942 25 c 128,-1,24
 864 10 864 10 771 5 c 128,-1,25
 678 0 678 0 573 0 c 2,26,-1
 153 0 l 1,27,-1
 153 1579 l 1,28,-1
 514 1579 l 2,0,1
573 143 m 2,29,30
 721 143 721 143 820.5 161 c 128,-1,31
 920 179 920 179 980 217 c 128,-1,32
 1040 255 1040 255 1065.5 314.5 c 128,-1,33
 1091 374 1091 374 1091 457 c 0,34,35
 1091 550 1091 550 1062.5 613.5 c 128,-1,36
 1034 677 1034 677 974.5 715 c 128,-1,37
 915 753 915 753 824.5 769.5 c 128,-1,38
 734 786 734 786 610 786 c 2,39,-1
 347 786 l 1,40,-1
 347 143 l 1,41,-1
 573 143 l 2,29,30
347 915 m 1,42,-1
 606 915 l 2,43,44
 730 915 730 915 811.5 931 c 128,-1,45
 893 947 893 947 940.5 982.5 c 128,-1,46
 988 1018 988 1018 1007 1074.5 c 128,-1,47
 1026 1131 1026 1131 1026 1212 c 0,48,49
 1026 1272 1026 1272 998.5 1314.5 c 128,-1,50
 971 1357 971 1357 910.5 1384 c 128,-1,51
 850 1411 850 1411 753 1423.5 c 128,-1,52
 656 1436 656 1436 518 1436 c 2,53,-1
 347 1436 l 1,54,-1
 347 915 l 1,42,-1
EndSplineSet
EndChar

StartChar: C
Encoding: 67 67 40
Width: 1273
Flags: W
HStem: -41 150<562.329 1018.19> 1458 152<582.595 1064.89>
VStem: 103 201<429.164 1097>
DStem2: 942 1597.5 928.5 1446.5 0.97063 -0.240578<-113.583 241.79>
LayerCount: 2
Fore
SplineSet
304 768 m 0,0,1
 304 613 304 613 331.5 491 c 128,-1,2
 359 369 359 369 416 284 c 128,-1,3
 473 199 473 199 562 154 c 128,-1,4
 651 109 651 109 774 109 c 0,5,6
 852 109 852 109 921.5 126 c 128,-1,7
 991 143 991 143 1044 163 c 0,8,9
 1106 187 1106 187 1157 218 c 1,10,-1
 1213 79 l 1,11,12
 1153 45 1153 45 1083 19 c 0,13,14
 1023 -4 1023 -4 943.5 -22.5 c 128,-1,15
 864 -41 864 -41 773 -41 c 0,16,17
 601 -41 601 -41 475 15 c 128,-1,18
 349 71 349 71 266.5 175.5 c 128,-1,19
 184 280 184 280 143.5 429.5 c 128,-1,20
 103 579 103 579 103 767 c 0,21,22
 103 858 103 858 117 955.5 c 128,-1,23
 131 1053 131 1053 163 1147 c 128,-1,24
 195 1241 195 1241 246.5 1325 c 128,-1,25
 298 1409 298 1409 373.5 1472.5 c 128,-1,26
 449 1536 449 1536 549.5 1573 c 128,-1,27
 650 1610 650 1610 781 1610 c 0,28,29
 868 1610 868 1610 942 1597.5 c 128,-1,30
 1016 1585 1016 1585 1070 1570 c 0,31,32
 1133 1552 1133 1552 1185 1530 c 1,33,-1
 1140 1385 l 1,34,35
 1095 1405 1095 1405 1040 1421 c 0,36,37
 992 1435 992 1435 928.5 1446.5 c 128,-1,38
 865 1458 865 1458 788 1458 c 0,39,40
 660 1458 660 1458 568 1406 c 128,-1,41
 476 1354 476 1354 417.5 1262 c 128,-1,42
 359 1170 359 1170 331.5 1043.5 c 128,-1,43
 304 917 304 917 304 768 c 0,0,1
EndSplineSet
EndChar

StartChar: D
Encoding: 68 68 41
Width: 1489
Flags: W
HStem: 0 144<347 926.277> 1436 143<347 941.82>
VStem: 156 191<144 1436> 1184 201<456.09 1134.78>
LayerCount: 2
Fore
SplineSet
1184 789 m 256,0,1
 1184 1108 1184 1108 1075.5 1272 c 128,-1,2
 967 1436 967 1436 742 1436 c 2,3,-1
 347 1436 l 1,4,-1
 347 144 l 1,5,-1
 719 144 l 2,6,7
 949 144 949 144 1066.5 307 c 128,-1,8
 1184 470 1184 470 1184 789 c 256,0,1
1385 796 m 0,9,10
 1385 688 1385 688 1372.5 587 c 128,-1,11
 1360 486 1360 486 1330 397.5 c 128,-1,12
 1300 309 1300 309 1250 236 c 128,-1,13
 1200 163 1200 163 1125 110.5 c 128,-1,14
 1050 58 1050 58 948.5 29 c 128,-1,15
 847 0 847 0 713 0 c 2,16,-1
 156 0 l 1,17,-1
 156 1579 l 1,18,-1
 695 1579 l 2,19,20
 867 1579 867 1579 996 1533.5 c 128,-1,21
 1125 1488 1125 1488 1211.5 1393 c 128,-1,22
 1298 1298 1298 1298 1341.5 1149.5 c 128,-1,23
 1385 1001 1385 1001 1385 796 c 0,9,10
EndSplineSet
EndChar

StartChar: E
Encoding: 69 69 42
Width: 1192
Flags: W
HStem: 0 143<347 1136> 776 115<347 1025> 1436 143<347 1123>
VStem: 153 194<143 776 891 1436>
LayerCount: 2
Fore
SplineSet
153 0 m 1,0,-1
 153 1579 l 1,1,-1
 1123 1579 l 1,2,-1
 1123 1436 l 1,3,-1
 347 1436 l 1,4,-1
 347 891 l 1,5,-1
 1025 891 l 1,6,-1
 1025 776 l 1,7,-1
 347 776 l 1,8,-1
 347 143 l 1,9,-1
 1136 143 l 1,10,-1
 1136 0 l 1,11,-1
 153 0 l 1,0,-1
EndSplineSet
EndChar

StartChar: F
Encoding: 70 70 43
Width: 1124
Flags: W
HStem: 0 21G<153 347> 764 115<347 1013> 1436 143<347 1074>
VStem: 153 194<0 764 879 1436>
LayerCount: 2
Fore
SplineSet
347 0 m 1,0,-1
 153 0 l 1,1,-1
 153 1579 l 1,2,-1
 1074 1579 l 1,3,-1
 1074 1436 l 1,4,-1
 347 1436 l 1,5,-1
 347 879 l 1,6,-1
 1013 879 l 1,7,-1
 1013 764 l 1,8,-1
 347 764 l 1,9,-1
 347 0 l 1,0,-1
EndSplineSet
EndChar

StartChar: G
Encoding: 71 71 44
Width: 1469
Flags: W
HStem: -41 152<547.983 1005.36> 0 21G<1249.02 1342> 684 127<755 1166> 1458 152<558.562 1033.52>
VStem: 103 201<440.781 1146.04> 1166 176<241.613 684> 1254 88<0 57.6145>
LayerCount: 2
Fore
SplineSet
1166 684 m 1,0,-1
 755 684 l 1,1,-1
 755 811 l 1,2,-1
 1342 811 l 1,3,-1
 1342 0 l 1,4,-1
 1254 0 l 1,5,-1
 1201 213 l 1,6,7
 1189 162 1189 162 1156 116 c 128,-1,8
 1123 70 1123 70 1067 35 c 128,-1,9
 1011 0 1011 0 930.5 -20.5 c 128,-1,10
 850 -41 850 -41 744 -41 c 0,11,12
 585 -41 585 -41 465 21 c 128,-1,13
 345 83 345 83 264.5 193 c 128,-1,14
 184 303 184 303 143.5 455 c 128,-1,15
 103 607 103 607 103 786 c 0,16,17
 103 996 103 996 149 1151 c 128,-1,18
 195 1306 195 1306 282 1408 c 128,-1,19
 369 1510 369 1510 494 1560 c 128,-1,20
 619 1610 619 1610 777 1610 c 0,21,22
 835 1610 835 1610 895 1602.5 c 128,-1,23
 955 1595 955 1595 1013.5 1579 c 128,-1,24
 1072 1563 1072 1563 1127.5 1537.5 c 128,-1,25
 1183 1512 1183 1512 1233 1476 c 1,26,-1
 1167 1341 l 1,27,28
 1139 1365 1139 1365 1098 1386 c 128,-1,29
 1057 1407 1057 1407 1005 1423 c 128,-1,30
 953 1439 953 1439 892.5 1448.5 c 128,-1,31
 832 1458 832 1458 765 1458 c 0,32,33
 652 1458 652 1458 566 1418.5 c 128,-1,34
 480 1379 480 1379 421.5 1297 c 128,-1,35
 363 1215 363 1215 333.5 1089.5 c 128,-1,36
 304 964 304 964 304 792 c 0,37,38
 304 628 304 628 328 501.5 c 128,-1,39
 352 375 352 375 406 288 c 128,-1,40
 460 201 460 201 548 156 c 128,-1,41
 636 111 636 111 764 111 c 0,42,43
 850 111 850 111 923.5 126 c 128,-1,44
 997 141 997 141 1051 175.5 c 128,-1,45
 1105 210 1105 210 1135.5 264.5 c 128,-1,46
 1166 319 1166 319 1166 399 c 2,47,-1
 1166 684 l 1,0,-1
EndSplineSet
EndChar

StartChar: H
Encoding: 72 72 45
Width: 1527
Flags: W
HStem: 0 21G<153 347 1179 1373> 764 115<347 1179> 1559 20G<153 347 1179 1373>
VStem: 153 194<0 764 879 1579> 1179 194<0 764 879 1579>
LayerCount: 2
Fore
SplineSet
1179 764 m 1,0,-1
 347 764 l 1,1,-1
 347 0 l 1,2,-1
 153 0 l 1,3,-1
 153 1579 l 1,4,-1
 347 1579 l 1,5,-1
 347 879 l 1,6,-1
 1179 879 l 1,7,-1
 1179 1579 l 1,8,-1
 1373 1579 l 1,9,-1
 1373 0 l 1,10,-1
 1179 0 l 1,11,-1
 1179 764 l 1,0,-1
EndSplineSet
EndChar

StartChar: I
Encoding: 73 73 46
Width: 781
Flags: W
HStem: 0 112<98 302 485 691> 1461 118<98 302 485 691>
VStem: 302 183<112 1461>
LayerCount: 2
Fore
SplineSet
302 112 m 1,0,-1
 302 1461 l 1,1,-1
 98 1461 l 1,2,-1
 98 1579 l 1,3,-1
 691 1579 l 1,4,-1
 691 1461 l 1,5,-1
 485 1461 l 1,6,-1
 485 112 l 1,7,-1
 691 112 l 1,8,-1
 691 0 l 1,9,-1
 98 0 l 1,10,-1
 98 112 l 1,11,-1
 302 112 l 1,0,-1
EndSplineSet
EndChar

StartChar: J
Encoding: 74 74 47
Width: 721
Flags: W
HStem: -90 125<94.1509 202.155> 1559 20G<375 567>
VStem: 375 192<190.499 1579>
LayerCount: 2
Fore
SplineSet
49 35 m 1,0,1
 160 55 160 55 224.5 89 c 128,-1,2
 289 123 289 123 322.5 175.5 c 128,-1,3
 356 228 356 228 365.5 302.5 c 128,-1,4
 375 377 375 377 375 479 c 2,5,-1
 375 1579 l 1,6,-1
 567 1579 l 1,7,-1
 567 514 l 2,8,9
 567 391 567 391 551.5 286 c 128,-1,10
 536 181 536 181 487 102.5 c 128,-1,11
 438 24 438 24 345.5 -26 c 128,-1,12
 253 -76 253 -76 100 -90 c 1,13,-1
 49 35 l 1,0,1
EndSplineSet
EndChar

StartChar: K
Encoding: 75 75 48
Width: 1389
Flags: W
HStem: 0 21G<153 347 1102.14 1334> 747 107<347 562> 1559 20G<153 347 1046.48 1267>
VStem: 153 194<0 747 854 1579> 1060 207<1372 1579> 1117 217<0 217>
DStem2: 724 798 562 747 0.607302 -0.794471<0 872.658> 570 854 724 798 0.570849 0.821055<41.9316 874.981>
LayerCount: 2
Fore
SplineSet
347 0 m 1,0,-1
 153 0 l 1,1,-1
 153 1579 l 1,2,-1
 347 1579 l 1,3,-1
 347 854 l 1,4,-1
 570 854 l 1,5,-1
 1060 1579 l 1,6,-1
 1267 1579 l 1,7,-1
 724 798 l 1,8,-1
 1334 0 l 1,9,-1
 1117 0 l 1,10,-1
 562 747 l 1,11,-1
 347 747 l 1,12,-1
 347 0 l 1,0,-1
EndSplineSet
EndChar

StartChar: L
Encoding: 76 76 49
Width: 1180
Flags: W
HStem: 0 143<347 1093> 1559 20G<153 347>
VStem: 153 194<143 1579>
LayerCount: 2
Fore
SplineSet
153 0 m 1,0,-1
 153 1579 l 1,1,-1
 347 1579 l 1,2,-1
 347 143 l 1,3,-1
 1093 143 l 1,4,-1
 1093 0 l 1,5,-1
 153 0 l 1,0,-1
EndSplineSet
EndChar

StartChar: M
Encoding: 77 77 50
Width: 1917
Flags: W
HStem: 0 208<756 1160> 1559 20G<153 489.929 1426.07 1763>
VStem: 153 194<0 1459> 1569 194<0 1459>
DStem2: 483 1579 347 1459 0.331704 -0.943384<68.0943 1450.94> 958 208 1056 0 0.331704 0.943384<0 1382.84>
LayerCount: 2
Fore
SplineSet
347 1459 m 1,0,-1
 347 0 l 1,1,-1
 153 0 l 1,2,-1
 153 1579 l 1,3,-1
 483 1579 l 1,4,-1
 958 208 l 1,5,-1
 1433 1579 l 1,6,-1
 1763 1579 l 1,7,-1
 1763 0 l 1,8,-1
 1569 0 l 1,9,-1
 1569 1459 l 1,10,-1
 1056 0 l 1,11,-1
 860 0 l 1,12,-1
 347 1459 l 1,0,-1
EndSplineSet
EndChar

StartChar: N
Encoding: 78 78 51
Width: 1597
Flags: W
HStem: 0 21G<153 347 1181.93 1443> 1559 20G<153 426.966 1249 1443>
VStem: 153 194<0 1404> 1249 194<185 1579>
DStem2: 415 1579 347 1404 0.516557 -0.856253<114.718 1624.42>
LayerCount: 2
Fore
SplineSet
1194 0 m 1,0,-1
 347 1404 l 1,1,-1
 347 0 l 1,2,-1
 153 0 l 1,3,-1
 153 1579 l 1,4,-1
 415 1579 l 1,5,-1
 1249 185 l 1,6,-1
 1249 1579 l 1,7,-1
 1443 1579 l 1,8,-1
 1443 0 l 1,9,-1
 1194 0 l 1,0,-1
EndSplineSet
EndChar

StartChar: O
Encoding: 79 79 52
Width: 1516
Flags: W
HStem: -43 155<556.728 965.75> 1459 149<554.418 965.228>
VStem: 102 201<429.485 1140.85> 1213 202<422.521 1140.13>
LayerCount: 2
Fore
SplineSet
1415 806 m 0,0,1
 1415 696 1415 696 1403 590.5 c 128,-1,2
 1391 485 1391 485 1362.5 390.5 c 128,-1,3
 1334 296 1334 296 1285.5 216.5 c 128,-1,4
 1237 137 1237 137 1164 79.5 c 128,-1,5
 1091 22 1091 22 990.5 -10.5 c 128,-1,6
 890 -43 890 -43 758 -43 c 0,7,8
 625 -43 625 -43 524 -9.5 c 128,-1,9
 423 24 423 24 350.5 84 c 128,-1,10
 278 144 278 144 230 226 c 128,-1,11
 182 308 182 308 153.5 405 c 128,-1,12
 125 502 125 502 113.5 609.5 c 128,-1,13
 102 717 102 717 102 829 c 0,14,15
 102 1010 102 1010 144.5 1154.5 c 128,-1,16
 187 1299 187 1299 270 1400 c 128,-1,17
 353 1501 353 1501 475.5 1554.5 c 128,-1,18
 598 1608 598 1608 758 1608 c 0,19,20
 919 1608 919 1608 1042 1554 c 128,-1,21
 1165 1500 1165 1500 1248 1397 c 128,-1,22
 1331 1294 1331 1294 1373 1145 c 128,-1,23
 1415 996 1415 996 1415 806 c 0,0,1
303 775 m 0,24,25
 303 439 303 439 419.5 275.5 c 128,-1,26
 536 112 536 112 758 112 c 0,27,28
 862 112 862 112 946 147.5 c 128,-1,29
 1030 183 1030 183 1089.5 262 c 128,-1,30
 1149 341 1149 341 1181 467.5 c 128,-1,31
 1213 594 1213 594 1213 775 c 256,32,33
 1213 956 1213 956 1183 1085.5 c 128,-1,34
 1153 1215 1153 1215 1095.5 1298 c 128,-1,35
 1038 1381 1038 1381 954.5 1420 c 128,-1,36
 871 1459 871 1459 765 1459 c 0,37,38
 655 1459 655 1459 569 1421.5 c 128,-1,39
 483 1384 483 1384 424 1302 c 128,-1,40
 365 1220 365 1220 334 1090 c 128,-1,41
 303 960 303 960 303 775 c 0,24,25
EndSplineSet
EndChar

StartChar: P
Encoding: 80 80 53
Width: 1330
Flags: W
HStem: 0 21G<153 347> 639 145<347 862.362> 1436 143<347 885.711>
VStem: 153 194<0 639 784 1436> 1050 200<926.522 1287.68>
LayerCount: 2
Fore
SplineSet
1250 1112 m 0,0,1
 1250 993 1250 993 1211 904 c 128,-1,2
 1172 815 1172 815 1085 756 c 128,-1,3
 998 697 998 697 858 668 c 128,-1,4
 718 639 718 639 517 639 c 2,5,-1
 347 639 l 1,6,-1
 347 0 l 1,7,-1
 153 0 l 1,8,-1
 153 1579 l 1,9,-1
 550 1579 l 2,10,11
 631 1579 631 1579 714.5 1572 c 128,-1,12
 798 1565 798 1565 876 1546.5 c 128,-1,13
 954 1528 954 1528 1022 1495.5 c 128,-1,14
 1090 1463 1090 1463 1140.5 1411 c 128,-1,15
 1191 1359 1191 1359 1220.5 1285.5 c 128,-1,16
 1250 1212 1250 1212 1250 1112 c 0,0,1
499 784 m 2,17,18
 650 784 650 784 755.5 801.5 c 128,-1,19
 861 819 861 819 926 856 c 128,-1,20
 991 893 991 893 1020.5 950.5 c 128,-1,21
 1050 1008 1050 1008 1050 1088 c 0,22,23
 1050 1208 1050 1208 1011.5 1277 c 128,-1,24
 973 1346 973 1346 905.5 1381.5 c 128,-1,25
 838 1417 838 1417 745 1426.5 c 128,-1,26
 652 1436 652 1436 544 1436 c 2,27,-1
 347 1436 l 1,28,-1
 347 784 l 1,29,-1
 499 784 l 2,17,18
EndSplineSet
EndChar

StartChar: Q
Encoding: 81 81 54
Width: 1533
Flags: W
HStem: -424 21G<1136.65 1180.17> 1458 152<559.095 975.113>
VStem: 103 201<430.743 1135.76> 1230 200<442.331 1139.73>
LayerCount: 2
Fore
SplineSet
1430 772 m 0,0,1
 1430 610 1430 610 1399 472.5 c 128,-1,2
 1368 335 1368 335 1303.5 231 c 128,-1,3
 1239 127 1239 127 1139.5 60 c 128,-1,4
 1040 -7 1040 -7 902 -29 c 1,5,-1
 1281 -293 l 1,6,-1
 1162 -424 l 1,7,-1
 669 -35 l 1,8,9
 553 -22 553 -22 466 20 c 128,-1,10
 379 62 379 62 316 125 c 128,-1,11
 253 188 253 188 212 267.5 c 128,-1,12
 171 347 171 347 146.5 434.5 c 128,-1,13
 122 522 122 522 112.5 614 c 128,-1,14
 103 706 103 706 103 794 c 0,15,16
 103 898 103 898 118 998.5 c 128,-1,17
 133 1099 133 1099 165 1190 c 128,-1,18
 197 1281 197 1281 248 1358 c 128,-1,19
 299 1435 299 1435 371 1491 c 128,-1,20
 443 1547 443 1547 537.5 1578.5 c 128,-1,21
 632 1610 632 1610 751 1610 c 0,22,23
 915 1610 915 1610 1041.5 1558.5 c 128,-1,24
 1168 1507 1168 1507 1254.5 1402.5 c 128,-1,25
 1341 1298 1341 1298 1385.5 1140.5 c 128,-1,26
 1430 983 1430 983 1430 772 c 0,0,1
767 1458 m 0,27,28
 637 1458 637 1458 548.5 1408 c 128,-1,29
 460 1358 460 1358 405.5 1268.5 c 128,-1,30
 351 1179 351 1179 327.5 1055.5 c 128,-1,31
 304 932 304 932 304 784 c 0,32,33
 304 634 304 634 327.5 510 c 128,-1,34
 351 386 351 386 405.5 297.5 c 128,-1,35
 460 209 460 209 548.5 160 c 128,-1,36
 637 111 637 111 767 111 c 0,37,38
 865 111 865 111 938 141.5 c 128,-1,39
 1011 172 1011 172 1062.5 223.5 c 128,-1,40
 1114 275 1114 275 1146.5 343 c 128,-1,41
 1179 411 1179 411 1197.5 485.5 c 128,-1,42
 1216 560 1216 560 1223 636.5 c 128,-1,43
 1230 713 1230 713 1230 783 c 0,44,45
 1230 922 1230 922 1208.5 1044.5 c 128,-1,46
 1187 1167 1187 1167 1134 1259 c 128,-1,47
 1081 1351 1081 1351 991.5 1404.5 c 128,-1,48
 902 1458 902 1458 767 1458 c 0,27,28
EndSplineSet
EndChar

StartChar: R
Encoding: 82 82 55
Width: 1377
Flags: W
HStem: 0 21G<153 347 1050 1244> 733 129<347 831.683> 1436 143<347 912.564>
VStem: 153 194<0 733 862 1436> 1050 194<0 604.521 1011.45 1315.27>
LayerCount: 2
Fore
SplineSet
647 862 m 2,0,1
 760 862 760 862 836.5 887 c 128,-1,2
 913 912 913 912 959 954.5 c 128,-1,3
 1005 997 1005 997 1024.5 1053.5 c 128,-1,4
 1044 1110 1044 1110 1044 1174 c 0,5,6
 1044 1240 1044 1240 1022.5 1285.5 c 128,-1,7
 1001 1331 1001 1331 964 1360 c 128,-1,8
 927 1389 927 1389 878.5 1404.5 c 128,-1,9
 830 1420 830 1420 776 1427 c 128,-1,10
 722 1434 722 1434 665.5 1435 c 128,-1,11
 609 1436 609 1436 557 1436 c 2,12,-1
 347 1436 l 1,13,-1
 347 862 l 1,14,-1
 647 862 l 2,0,1
833 797 m 1,15,16
 943 785 943 785 1021 754 c 128,-1,17
 1099 723 1099 723 1148.5 673 c 128,-1,18
 1198 623 1198 623 1221 554 c 128,-1,19
 1244 485 1244 485 1244 397 c 2,20,-1
 1244 0 l 1,21,-1
 1050 0 l 1,22,-1
 1050 412 l 2,23,24
 1050 492 1050 492 1032 546.5 c 128,-1,25
 1014 601 1014 601 981 636.5 c 128,-1,26
 948 672 948 672 901 691.5 c 128,-1,27
 854 711 854 711 796 720.5 c 128,-1,28
 738 730 738 730 670 731.5 c 128,-1,29
 602 733 602 733 527 733 c 2,30,-1
 347 733 l 1,31,-1
 347 0 l 1,32,-1
 153 0 l 1,33,-1
 153 1579 l 1,34,-1
 619 1579 l 2,35,36
 764 1579 764 1579 880.5 1557.5 c 128,-1,37
 997 1536 997 1536 1078 1489.5 c 128,-1,38
 1159 1443 1159 1443 1202.5 1369 c 128,-1,39
 1246 1295 1246 1295 1246 1190 c 0,40,41
 1246 1090 1246 1090 1215 1016 c 128,-1,42
 1184 942 1184 942 1128.5 893.5 c 128,-1,43
 1073 845 1073 845 997.5 821 c 128,-1,44
 922 797 922 797 833 797 c 1,15,16
EndSplineSet
EndChar

StartChar: S
Encoding: 83 83 56
Width: 1264
Flags: W
HStem: -41 152<324.952 829.923> 1458 152<379.619 870.904>
VStem: 78 200<1081.78 1365.08> 972 200<239.473 563.804>
DStem2: 293 166 288 15 0.958323 -0.285686<-110.797 285.511> 471 986 436 807 0.944375 -0.328872<-177.298 533.139> 734 1599.5 741.5 1447 0.966753 -0.25571<-68.3769 352.871> 974.5 1530.5 955.5 1380.5 0.885241 -0.465132<-179.396 106.169>
LayerCount: 2
Fore
SplineSet
1172 418 m 0,0,1
 1172 332 1172 332 1143.5 250 c 128,-1,2
 1115 168 1115 168 1048.5 103 c 128,-1,3
 982 38 982 38 873 -1.5 c 128,-1,4
 764 -41 764 -41 604 -41 c 0,5,6
 516 -41 516 -41 434 -23.5 c 128,-1,7
 352 -6 352 -6 288 15 c 0,8,9
 213 40 213 40 147 72 c 1,10,-1
 167 222 l 1,11,12
 226 191 226 191 293 166 c 0,13,14
 350 145 350 145 424 128 c 128,-1,15
 498 111 498 111 577 111 c 256,16,17
 656 111 656 111 728 123.5 c 128,-1,18
 800 136 800 136 854 169 c 128,-1,19
 908 202 908 202 940 260 c 128,-1,20
 972 318 972 318 972 409 c 0,21,22
 972 466 972 466 954.5 512 c 128,-1,23
 937 558 937 558 904 594.5 c 128,-1,24
 871 631 871 631 824.5 658.5 c 128,-1,25
 778 686 778 686 720 707 c 2,26,-1
 436 807 l 2,27,28
 368 831 368 831 303.5 864.5 c 128,-1,29
 239 898 239 898 189 945.5 c 128,-1,30
 139 993 139 993 108.5 1055 c 128,-1,31
 78 1117 78 1117 78 1198 c 0,32,33
 78 1309 78 1309 116 1387 c 128,-1,34
 154 1465 154 1465 222.5 1514.5 c 128,-1,35
 291 1564 291 1564 385.5 1587 c 128,-1,36
 480 1610 480 1610 594 1610 c 0,37,38
 667 1610 667 1610 734 1599.5 c 128,-1,39
 801 1589 801 1589 861.5 1571 c 128,-1,40
 922 1553 922 1553 974.5 1530.5 c 128,-1,41
 1027 1508 1027 1508 1070 1484 c 1,42,-1
 1040 1337 l 1,43,44
 1003 1359 1003 1359 955.5 1380.5 c 128,-1,45
 908 1402 908 1402 854 1419 c 128,-1,46
 800 1436 800 1436 741.5 1447 c 128,-1,47
 683 1458 683 1458 624 1458 c 0,48,49
 531 1458 531 1458 465.5 1444 c 128,-1,50
 400 1430 400 1430 358.5 1400 c 128,-1,51
 317 1370 317 1370 297.5 1323 c 128,-1,52
 278 1276 278 1276 278 1210 c 0,53,54
 278 1053 278 1053 471 986 c 2,55,-1
 784 877 l 2,56,57
 862 850 862 850 932.5 809.5 c 128,-1,58
 1003 769 1003 769 1056.5 713 c 128,-1,59
 1110 657 1110 657 1141 584 c 128,-1,60
 1172 511 1172 511 1172 418 c 0,0,1
EndSplineSet
EndChar

StartChar: T
Encoding: 84 84 57
Width: 1247
Flags: W
HStem: 0 21G<524 718> 1436 143<66 524 718 1174>
VStem: 524 194<0 1436>
LayerCount: 2
Fore
SplineSet
718 1436 m 1,0,-1
 718 0 l 1,1,-1
 524 0 l 1,2,-1
 524 1436 l 1,3,-1
 66 1436 l 1,4,-1
 66 1579 l 1,5,-1
 1174 1579 l 1,6,-1
 1174 1436 l 1,7,-1
 718 1436 l 1,0,-1
EndSplineSet
EndChar

StartChar: U
Encoding: 85 85 58
Width: 1533
Flags: W
HStem: -41 152<542.382 997.229> 1559 20G<134 328 1196 1390>
VStem: 134 194<366.883 1579> 1196 194<359.487 1579>
LayerCount: 2
Fore
SplineSet
762 111 m 0,0,1
 888 111 888 111 972 144.5 c 128,-1,2
 1056 178 1056 178 1105.5 250 c 128,-1,3
 1155 322 1155 322 1175.5 436 c 128,-1,4
 1196 550 1196 550 1196 711 c 2,5,-1
 1196 1579 l 1,6,-1
 1390 1579 l 1,7,-1
 1390 715 l 2,8,9
 1390 537 1390 537 1355.5 396.5 c 128,-1,10
 1321 256 1321 256 1247 159 c 128,-1,11
 1173 62 1173 62 1055 10.5 c 128,-1,12
 937 -41 937 -41 771 -41 c 0,13,14
 593 -41 593 -41 471.5 10.5 c 128,-1,15
 350 62 350 62 275 159.5 c 128,-1,16
 200 257 200 257 167 397 c 128,-1,17
 134 537 134 537 134 715 c 2,18,-1
 134 1579 l 1,19,-1
 328 1579 l 1,20,-1
 328 711 l 2,21,22
 328 550 328 550 353 436 c 128,-1,23
 378 322 378 322 430.5 250 c 128,-1,24
 483 178 483 178 565.5 144.5 c 128,-1,25
 648 111 648 111 762 111 c 0,0,1
EndSplineSet
EndChar

StartChar: V
Encoding: 86 86 59
Width: 1360
Flags: W
HStem: 0 180<559 803> 1559 20G<63 253.204 1108.8 1297>
VStem: 63 184<1395 1579> 1115 182<1397 1579>
DStem2: 247 1579 63 1579 0.299685 -0.954038<0 1464.76> 681 180 803 0 0.298585 0.954383<0 1464.77>
LayerCount: 2
Fore
SplineSet
681 180 m 1,0,-1
 1115 1579 l 1,1,-1
 1297 1579 l 1,2,-1
 803 0 l 1,3,-1
 559 0 l 1,4,-1
 63 1579 l 1,5,-1
 247 1579 l 1,6,-1
 681 180 l 1,0,-1
EndSplineSet
EndChar

StartChar: W
Encoding: 87 87 60
Width: 1961
Flags: W
HStem: -6 21G<396.617 687.063 1231.53 1556.37> 1559 20G<55 245.211 834.928 1117.07 1706.79 1898>
VStem: 55 186<1393 1579> 1711 187<1392 1579>
DStem2: 241 1579 55 1579 0.214047 -0.976823<0 1475.6> 545 135 683 0 0.19908 0.979983<0 1387.04> 1407 135 1552 -6 0.213274 0.976992<0 1475.61>
LayerCount: 2
Fore
SplineSet
1113 1579 m 1,0,-1
 1407 135 l 1,1,-1
 1711 1579 l 1,2,-1
 1898 1579 l 1,3,-1
 1552 -6 l 1,4,-1
 1235 -6 l 1,5,-1
 980 1462 l 1,6,-1
 683 0 l 1,7,-1
 401 0 l 1,8,-1
 55 1579 l 1,9,-1
 241 1579 l 1,10,-1
 545 135 l 1,11,-1
 839 1579 l 1,12,-1
 1113 1579 l 1,0,-1
EndSplineSet
EndChar

StartChar: X
Encoding: 88 88 61
Width: 1322
Flags: W
HStem: 0 21G<55 285.396 1036.6 1267> 626 297<512.5 809.5> 1559 20G<57 265.439 1056.56 1265>
VStem: 55 218<0 218> 57 196<1383 1579> 1049 218<0 218> 1069 196<1383 1579>
DStem2: 55 0 273 0 0.531974 0.846761<115.97 852.448 1103.94 1435.49 1597.3 1876.46>
LayerCount: 2
Fore
SplineSet
1069 1579 m 1,0,-1
 1265 1579 l 1,1,-1
 770 780 l 1,2,-1
 1267 0 l 1,3,-1
 1049 0 l 1,4,-1
 661 626 l 1,5,-1
 273 0 l 1,6,-1
 55 0 l 1,7,-1
 552 780 l 1,8,-1
 57 1579 l 1,9,-1
 253 1579 l 1,10,-1
 661 923 l 1,11,-1
 1069 1579 l 1,0,-1
EndSplineSet
EndChar

StartChar: Y
Encoding: 89 89 62
Width: 1318
Flags: W
HStem: 0 21G<562 752> 1559 20G<48 254.246 1065.84 1266>
VStem: 562 190<0 485>
DStem2: 245 1579 48 1579 0.425239 -0.905081<0 993.708> 662 677 752 485 0.425239 0.905081<0 992.007>
LayerCount: 2
Fore
SplineSet
1075 1579 m 1,0,-1
 1266 1579 l 1,1,-1
 752 485 l 1,2,-1
 752 0 l 1,3,-1
 562 0 l 1,4,-1
 562 485 l 1,5,-1
 48 1579 l 1,6,-1
 245 1579 l 1,7,-1
 662 677 l 1,8,-1
 1075 1579 l 1,0,-1
EndSplineSet
EndChar

StartChar: Z
Encoding: 90 90 63
Width: 1244
Flags: W
HStem: 0 143<309 1144> 1436 143<112 941>
DStem2: 112 180 309 143 0.546648 0.837362<76.7073 1504.9>
LayerCount: 2
Fore
SplineSet
1142 1419 m 1,0,-1
 309 143 l 1,1,-1
 1144 143 l 1,2,-1
 1144 0 l 1,3,-1
 112 0 l 1,4,-1
 112 180 l 1,5,-1
 941 1436 l 1,6,-1
 112 1436 l 1,7,-1
 112 1579 l 1,8,-1
 1142 1579 l 1,9,-1
 1142 1419 l 1,0,-1
EndSplineSet
EndChar

StartChar: bracketleft
Encoding: 91 91 64
Width: 1054
Flags: W
HStem: 0 143<462 933> 1436 143<462 933>
VStem: 269 193<143 1436>
LayerCount: 2
Fore
SplineSet
933 1579 m 1,0,-1
 933 1436 l 1,1,-1
 462 1436 l 1,2,-1
 462 143 l 1,3,-1
 933 143 l 1,4,-1
 933 0 l 1,5,-1
 269 0 l 1,6,-1
 269 1579 l 1,7,-1
 933 1579 l 1,0,-1
EndSplineSet
EndChar

StartChar: backslash
Encoding: 92 92 65
Width: 1031
Flags: W
DStem2: 275 1731 117 1679 0.318071 -0.948067<0 1947.34>
LayerCount: 2
Fore
SplineSet
898 -114 m 1,0,-1
 738 -172 l 1,1,-1
 117 1679 l 1,2,-1
 275 1731 l 1,3,-1
 898 -114 l 1,0,-1
EndSplineSet
EndChar

StartChar: bracketright
Encoding: 93 93 66
Width: 1114
Flags: W
HStem: 0 143<161 632> 1436 143<161 632>
VStem: 632 193<143 1436>
LayerCount: 2
Fore
SplineSet
825 1579 m 1,0,-1
 825 0 l 1,1,-1
 161 0 l 1,2,-1
 161 143 l 1,3,-1
 632 143 l 1,4,-1
 632 1436 l 1,5,-1
 161 1436 l 1,6,-1
 161 1579 l 1,7,-1
 825 1579 l 1,0,-1
EndSplineSet
EndChar

StartChar: asciicircum
Encoding: 94 94 67
Width: 1428
Flags: W
HStem: 809 202<565 863>
VStem: 374 680
DStem2: 374 510 502 432 0.503549 0.863966<0 429.533> 762 1011 714 809 0.503549 -0.863966<150.351 579.884>
LayerCount: 2
Fore
SplineSet
762 1011 m 1,0,-1
 1054 510 l 1,1,-1
 926 432 l 1,2,-1
 714 809 l 1,3,-1
 502 432 l 1,4,-1
 374 510 l 1,5,-1
 666 1011 l 1,6,-1
 762 1011 l 1,0,-1
EndSplineSet
EndChar

StartChar: underscore
Encoding: 95 95 68
Width: 1265
Flags: W
HStem: -111 144<127 1067>
LayerCount: 2
Fore
SplineSet
127 -111 m 1,0,-1
 127 33 l 1,1,-1
 1067 33 l 1,2,-1
 1067 -111 l 1,3,-1
 127 -111 l 1,0,-1
EndSplineSet
EndChar

StartChar: grave
Encoding: 96 96 69
Width: 778
Flags: W
HStem: 90 644
VStem: 88 395
LayerCount: 2
Fore
SplineSet
88 645 m 1,0,-1
 330 734 l 1,1,-1
 483 116 l 1,2,-1
 416 90 l 1,3,-1
 88 645 l 1,0,-1
EndSplineSet
EndChar

StartChar: a
Encoding: 97 97 70
Width: 1200
Flags: W
HStem: -20 137<365.029 716.597> 0 21G<922.854 1066> 569 103<645.095 876> 590 125<388.127 856.422> 1053 137<380.079 802.469>
VStem: 101 191<189.631 501.284> 876 190<233.236 574.811 665 979.241> 926 140<0 91.136>
LayerCount: 2
Fore
SplineSet
610 1053 m 0,0,1
 565 1053 565 1053 515.5 1045 c 128,-1,2
 466 1037 466 1037 417.5 1021.5 c 128,-1,3
 369 1006 369 1006 323.5 983.5 c 128,-1,4
 278 961 278 961 241 932 c 1,5,-1
 173 1064 l 1,6,7
 230 1095 230 1095 279 1118.5 c 128,-1,8
 328 1142 328 1142 378.5 1158 c 128,-1,9
 429 1174 429 1174 484.5 1182 c 128,-1,10
 540 1190 540 1190 610 1190 c 0,11,12
 761 1190 761 1190 851.5 1157 c 128,-1,13
 942 1124 942 1124 989.5 1055 c 128,-1,14
 1037 986 1037 986 1051.5 879 c 128,-1,15
 1066 772 1066 772 1066 624 c 2,16,-1
 1066 0 l 1,17,-1
 926 0 l 1,18,-1
 898 178 l 1,19,20
 824 74 824 74 722 27 c 128,-1,21
 620 -20 620 -20 493 -20 c 0,22,23
 403 -20 403 -20 330.5 3 c 128,-1,24
 258 26 258 26 207 71.5 c 128,-1,25
 156 117 156 117 128.5 185 c 128,-1,26
 101 253 101 253 101 343 c 0,27,28
 101 430 101 430 134 499 c 128,-1,29
 167 568 167 568 223 616 c 128,-1,30
 279 664 279 664 353 689.5 c 128,-1,31
 427 715 427 715 509 715 c 256,32,33
 591 715 591 715 658.5 707 c 128,-1,34
 726 699 726 699 774.5 689.5 c 128,-1,35
 823 680 823 680 850 672 c 2,36,-1
 876 665 l 1,37,38
 876 768 876 768 872 842 c 128,-1,39
 868 916 868 916 843 962.5 c 128,-1,40
 818 1009 818 1009 764 1031 c 128,-1,41
 710 1053 710 1053 610 1053 c 0,0,1
540 117 m 0,42,43
 631 117 631 117 712.5 156 c 128,-1,44
 794 195 794 195 876 271 c 1,45,-1
 876 569 l 1,46,47
 834 575 834 575 794 579 c 0,48,49
 759 583 759 583 719 586.5 c 128,-1,50
 679 590 679 590 644 590 c 0,51,52
 572 590 572 590 508 582.5 c 128,-1,53
 444 575 444 575 396 550 c 128,-1,54
 348 525 348 525 320 478 c 128,-1,55
 292 431 292 431 292 353 c 0,56,57
 292 283 292 283 310 237.5 c 128,-1,58
 328 192 328 192 360.5 165 c 128,-1,59
 393 138 393 138 438.5 127.5 c 128,-1,60
 484 117 484 117 540 117 c 0,42,43
EndSplineSet
EndChar

StartChar: b
Encoding: 98 98 71
Width: 1254
Flags: W
HStem: -20 137<500.46 834.716> 0 21G<144 287.146> 1053 137<498.211 839.633>
VStem: 144 190<236.438 937.188 1030 1579> 144 140<0 91.136> 977 176<298.751 888.596>
LayerCount: 2
Fore
SplineSet
689 117 m 0,0,1
 830 117 830 117 903.5 238 c 128,-1,2
 977 359 977 359 977 613 c 0,3,4
 977 728 977 728 957.5 811 c 128,-1,5
 938 894 938 894 900.5 948 c 128,-1,6
 863 1002 863 1002 809.5 1027.5 c 128,-1,7
 756 1053 756 1053 689 1053 c 0,8,9
 601 1053 601 1053 512.5 1015 c 128,-1,10
 424 977 424 977 334 902 c 1,11,-1
 334 273 l 1,12,13
 502 117 502 117 689 117 c 0,0,1
678 -20 m 0,14,15
 628 -20 628 -20 578.5 -6 c 128,-1,16
 529 8 529 8 482 34 c 128,-1,17
 435 60 435 60 392 96.5 c 128,-1,18
 349 133 349 133 312 178 c 1,19,-1
 284 0 l 1,20,-1
 144 0 l 1,21,-1
 144 1579 l 1,22,-1
 334 1614 l 1,23,-1
 334 1030 l 1,24,25
 373 1070 373 1070 418 1100 c 128,-1,26
 463 1130 463 1130 507.5 1150 c 128,-1,27
 552 1170 552 1170 592.5 1180 c 128,-1,28
 633 1190 633 1190 663 1190 c 0,29,30
 901 1190 901 1190 1027 1048 c 128,-1,31
 1153 906 1153 906 1153 613 c 0,32,33
 1153 426 1153 426 1114 304 c 128,-1,34
 1075 182 1075 182 1009.5 110 c 128,-1,35
 944 38 944 38 858 9 c 128,-1,36
 772 -20 772 -20 678 -20 c 0,14,15
EndSplineSet
EndChar

StartChar: c
Encoding: 99 99 72
Width: 1071
Flags: W
HStem: -20 137<449.531 824.795> 1053 137<464.855 830.143>
VStem: 101 190<306.362 848.359>
DStem2: 874 191 924.5 63.5 0.834555 0.550925<-194.765 61.0799>
LayerCount: 2
Fore
SplineSet
609 -20 m 0,0,1
 495 -20 495 -20 401.5 19.5 c 128,-1,2
 308 59 308 59 241.5 135.5 c 128,-1,3
 175 212 175 212 138 323.5 c 128,-1,4
 101 435 101 435 101 580 c 0,5,6
 101 704 101 704 134.5 814.5 c 128,-1,7
 168 925 168 925 233 1008.5 c 128,-1,8
 298 1092 298 1092 393.5 1141 c 128,-1,9
 489 1190 489 1190 612 1190 c 0,10,11
 723 1190 723 1190 821 1157.5 c 128,-1,12
 919 1125 919 1125 1000 1068 c 1,13,-1
 943 935 l 1,14,15
 918 960 918 960 882 981.5 c 128,-1,16
 846 1003 846 1003 805 1019 c 128,-1,17
 764 1035 764 1035 720.5 1044 c 128,-1,18
 677 1053 677 1053 638 1053 c 1,19,20
 526 1043 526 1043 457.5 1004.5 c 128,-1,21
 389 966 389 966 352 903 c 128,-1,22
 315 840 315 840 303 756 c 128,-1,23
 291 672 291 672 291 572 c 0,24,25
 291 459 291 459 313.5 373.5 c 128,-1,26
 336 288 336 288 377.5 231 c 128,-1,27
 419 174 419 174 477.5 145.5 c 128,-1,28
 536 117 536 117 609 117 c 0,29,30
 669 117 669 117 715.5 125.5 c 128,-1,31
 762 134 762 134 801 150.5 c 128,-1,32
 840 167 840 167 874 191 c 128,-1,33
 908 215 908 215 943 245 c 1,34,-1
 1000 111 l 1,35,36
 965 87 965 87 924.5 63.5 c 128,-1,37
 884 40 884 40 835.5 21.5 c 128,-1,38
 787 3 787 3 730.5 -8.5 c 128,-1,39
 674 -20 674 -20 609 -20 c 0,0,1
EndSplineSet
EndChar

StartChar: d
Encoding: 100 100 73
Width: 1259
Flags: W
HStem: -20 137<424.06 761.622> 0 21G<973.872 1118> 1053 137<422.663 760.099>
VStem: 101 182<298.502 869.313> 928 190<232.259 934.95 1028 1579> 977 141<0 91.648>
LayerCount: 2
Fore
SplineSet
283 584 m 0,0,1
 283 450 283 450 305.5 360.5 c 128,-1,2
 328 271 328 271 368 217 c 128,-1,3
 408 163 408 163 462.5 140 c 128,-1,4
 517 117 517 117 581 117 c 0,5,6
 624 117 624 117 670 127 c 128,-1,7
 716 137 716 137 761 156.5 c 128,-1,8
 806 176 806 176 849 205.5 c 128,-1,9
 892 235 892 235 928 275 c 1,10,-1
 928 903 l 1,11,12
 886 934 886 934 844 961.5 c 128,-1,13
 802 989 802 989 758.5 1009.5 c 128,-1,14
 715 1030 715 1030 669.5 1041.5 c 128,-1,15
 624 1053 624 1053 575 1053 c 0,16,17
 490 1053 490 1053 434 1016.5 c 128,-1,18
 378 980 378 980 344.5 916 c 128,-1,19
 311 852 311 852 297 766.5 c 128,-1,20
 283 681 283 681 283 584 c 0,0,1
549 1190 m 0,21,22
 663 1190 663 1190 759 1151.5 c 128,-1,23
 855 1113 855 1113 928 1028 c 1,24,-1
 928 1579 l 1,25,-1
 1118 1614 l 1,26,-1
 1118 0 l 1,27,-1
 977 0 l 1,28,-1
 949 179 l 1,29,30
 916 137 916 137 874.5 100.5 c 128,-1,31
 833 64 833 64 785 37 c 128,-1,32
 737 10 737 10 684.5 -5 c 128,-1,33
 632 -20 632 -20 577 -20 c 0,34,35
 461 -20 461 -20 372.5 23 c 128,-1,36
 284 66 284 66 223.5 147 c 128,-1,37
 163 228 163 228 132 344.5 c 128,-1,38
 101 461 101 461 101 608 c 0,39,40
 101 725 101 725 132.5 830.5 c 128,-1,41
 164 936 164 936 222.5 1016 c 128,-1,42
 281 1096 281 1096 364 1143 c 128,-1,43
 447 1190 447 1190 549 1190 c 0,21,22
EndSplineSet
EndChar

StartChar: e
Encoding: 101 101 74
Width: 1144
Flags: W
HStem: -20 137<449.864 836.656> 567 115<291 891> 1053 137<455.554 767.144>
VStem: 101 190<300.774 567 682 848.041> 891 168<682.002 917.216>
LayerCount: 2
Fore
SplineSet
1005 101 m 1,0,1
 965 72 965 72 914 49.5 c 128,-1,2
 863 27 863 27 810.5 11.5 c 128,-1,3
 758 -4 758 -4 709 -12 c 128,-1,4
 660 -20 660 -20 625 -20 c 0,5,6
 493 -20 493 -20 394.5 24 c 128,-1,7
 296 68 296 68 231 147.5 c 128,-1,8
 166 227 166 227 133.5 336.5 c 128,-1,9
 101 446 101 446 101 578 c 0,10,11
 101 697 101 697 132.5 807.5 c 128,-1,12
 164 918 164 918 226 1003 c 128,-1,13
 288 1088 288 1088 380 1139 c 128,-1,14
 472 1190 472 1190 594 1190 c 0,15,16
 708 1190 708 1190 794.5 1155.5 c 128,-1,17
 881 1121 881 1121 940 1056 c 128,-1,18
 999 991 999 991 1029 897 c 128,-1,19
 1059 803 1059 803 1059 684 c 0,20,21
 1059 652 1059 652 1057 622.5 c 128,-1,22
 1055 593 1055 593 1051 567 c 1,23,-1
 291 567 l 1,24,25
 291 442 291 442 315 356 c 128,-1,26
 339 270 339 270 384 217 c 128,-1,27
 429 164 429 164 494 140.5 c 128,-1,28
 559 117 559 117 641 117 c 0,29,30
 689 117 689 117 729 124.5 c 128,-1,31
 769 132 769 132 804.5 146.5 c 128,-1,32
 840 161 840 161 873.5 183 c 128,-1,33
 907 205 907 205 943 234 c 1,34,-1
 1005 101 l 1,0,1
891 717 m 2,35,36
 891 797 891 797 871 859.5 c 128,-1,37
 851 922 851 922 815 965 c 128,-1,38
 779 1008 779 1008 729.5 1030.5 c 128,-1,39
 680 1053 680 1053 621 1053 c 0,40,41
 542 1053 542 1053 483 1024 c 128,-1,42
 424 995 424 995 383.5 945 c 128,-1,43
 343 895 343 895 320.5 827.5 c 128,-1,44
 298 760 298 760 291 682 c 1,45,-1
 891 682 l 1,46,-1
 891 717 l 2,35,36
EndSplineSet
EndChar

StartChar: f
Encoding: 102 102 75
Width: 837
Flags: W
HStem: 0 21G<233 423> 1064 105<38 233 423 771> 1516 143<473.069 718.704>
VStem: 233 190<0 1064 1169 1475.61>
LayerCount: 2
Fore
SplineSet
571 1516 m 0,0,1
 512 1516 512 1516 481.5 1490.5 c 128,-1,2
 451 1465 451 1465 438 1419.5 c 128,-1,3
 425 1374 425 1374 424 1310 c 128,-1,4
 423 1246 423 1246 423 1169 c 1,5,-1
 771 1169 l 1,6,-1
 771 1064 l 1,7,-1
 423 1064 l 1,8,-1
 423 0 l 1,9,-1
 233 0 l 1,10,-1
 233 1064 l 1,11,-1
 38 1064 l 1,12,-1
 38 1169 l 1,13,-1
 233 1169 l 1,14,15
 233 1303 233 1303 251.5 1396 c 128,-1,16
 270 1489 270 1489 309 1547.5 c 128,-1,17
 348 1606 348 1606 407.5 1632.5 c 128,-1,18
 467 1659 467 1659 548 1659 c 0,19,20
 619 1659 619 1659 686 1637.5 c 128,-1,21
 753 1616 753 1616 814 1579 c 1,22,-1
 751 1454 l 1,23,24
 710 1477 710 1477 664.5 1496.5 c 128,-1,25
 619 1516 619 1516 571 1516 c 0,0,1
EndSplineSet
EndChar

StartChar: g
Encoding: 103 103 76
Width: 1257
Flags: W
HStem: -427 150<357.645 922.623> 127 133<359.028 929.448> 1025 148<949.705 1187> 1058 132<417.367 803.676>
VStem: 135 158<-214.385 41.413> 181 161<693.505 984.888> 865 165<679.846 983.415> 1007 162<-201.223 57.8474>
DStem2: 378 542 323 408 0.98369 0.179875<-78.2061 0 96.2379 445.158>
LayerCount: 2
Fore
SplineSet
573 -277 m 0,0,1
 676 -277 676 -277 757 -272 c 128,-1,2
 838 -267 838 -267 893.5 -246 c 128,-1,3
 949 -225 949 -225 978 -182.5 c 128,-1,4
 1007 -140 1007 -140 1007 -66 c 0,5,6
 1007 0 1007 0 979.5 38.5 c 128,-1,7
 952 77 952 77 900.5 97 c 128,-1,8
 849 117 849 117 775.5 122.5 c 128,-1,9
 702 128 702 128 611 128 c 0,10,11
 565 128 565 128 514.5 127.5 c 128,-1,12
 464 127 464 127 410 127 c 1,13,14
 389 111 389 111 368 91 c 128,-1,15
 347 71 347 71 330.5 47 c 128,-1,16
 314 23 314 23 303.5 -4.5 c 128,-1,17
 293 -32 293 -32 293 -64 c 0,18,19
 293 -123 293 -123 307 -163.5 c 128,-1,20
 321 -204 321 -204 353.5 -229.5 c 128,-1,21
 386 -255 386 -255 439.5 -266 c 128,-1,22
 493 -277 493 -277 573 -277 c 0,0,1
629 589 m 1,23,24
 684 601 684 601 728 616 c 128,-1,25
 772 631 772 631 802.5 659.5 c 128,-1,26
 833 688 833 688 849 735.5 c 128,-1,27
 865 783 865 783 865 860 c 0,28,29
 865 916 865 916 849.5 954 c 128,-1,30
 834 992 834 992 802 1015 c 128,-1,31
 770 1038 770 1038 721.5 1048 c 128,-1,32
 673 1058 673 1058 608 1058 c 0,33,34
 554 1058 554 1058 505.5 1049 c 128,-1,35
 457 1040 457 1040 421 1016 c 128,-1,36
 385 992 385 992 363.5 950.5 c 128,-1,37
 342 909 342 909 342 845 c 0,38,39
 342 798 342 798 357.5 755 c 128,-1,40
 373 712 373 712 397.5 676 c 128,-1,41
 422 640 422 640 453 613 c 128,-1,42
 484 586 484 586 515 571 c 1,43,-1
 629 589 l 1,23,24
949 1025 m 1,44,45
 987 987 987 987 1008.5 949 c 128,-1,46
 1030 911 1030 911 1030 860 c 0,47,48
 1030 780 1030 780 1010 715.5 c 128,-1,49
 990 651 990 651 947 603 c 128,-1,50
 904 555 904 555 836.5 522 c 128,-1,51
 769 489 769 489 673 472 c 2,52,-1
 323 408 l 1,53,-1
 342 260 l 1,54,-1
 632 260 l 2,55,56
 773 260 773 260 875 243.5 c 128,-1,57
 977 227 977 227 1042 188 c 128,-1,58
 1107 149 1107 149 1138 86 c 128,-1,59
 1169 23 1169 23 1169 -70 c 0,60,61
 1169 -179 1169 -179 1124.5 -248.5 c 128,-1,62
 1080 -318 1080 -318 999.5 -357.5 c 128,-1,63
 919 -397 919 -397 807.5 -412 c 128,-1,64
 696 -427 696 -427 562 -427 c 0,65,66
 469 -427 469 -427 390.5 -408.5 c 128,-1,67
 312 -390 312 -390 255 -350 c 128,-1,68
 198 -310 198 -310 166.5 -247 c 128,-1,69
 135 -184 135 -184 135 -95 c 0,70,71
 135 -46 135 -46 152 -7 c 128,-1,72
 169 32 169 32 196 61.5 c 128,-1,73
 223 91 223 91 257.5 111 c 128,-1,74
 292 131 292 131 328 142 c 1,75,76
 290 150 290 150 264.5 165.5 c 128,-1,77
 239 181 239 181 222 209.5 c 128,-1,78
 205 238 205 238 195 283 c 128,-1,79
 185 328 185 328 179 396 c 0,80,81
 178 399 178 399 178 411 c 0,82,83
 178 450 178 450 201.5 473.5 c 128,-1,84
 225 497 225 497 257 510.5 c 128,-1,85
 289 524 289 524 323 530.5 c 128,-1,86
 357 537 357 537 378 542 c 1,87,88
 341 553 341 553 305.5 581 c 128,-1,89
 270 609 270 609 242.5 650 c 128,-1,90
 215 691 215 691 198 743 c 128,-1,91
 181 795 181 795 181 854 c 0,92,93
 181 932 181 932 210 994 c 128,-1,94
 239 1056 239 1056 294 1099.5 c 128,-1,95
 349 1143 349 1143 429.5 1166.5 c 128,-1,96
 510 1190 510 1190 612 1190 c 0,97,98
 693 1190 693 1190 762 1173 c 128,-1,99
 831 1156 831 1156 882 1114 c 1,100,101
 920 1133 920 1133 945 1144.5 c 128,-1,102
 970 1156 970 1156 997 1162.5 c 128,-1,103
 1024 1169 1024 1169 1060.5 1171 c 128,-1,104
 1097 1173 1097 1173 1157 1173 c 2,105,-1
 1187 1173 l 1,106,-1
 1187 1025 l 1,107,-1
 949 1025 l 1,44,45
EndSplineSet
EndChar

StartChar: h
Encoding: 104 104 77
Width: 1270
Flags: W
HStem: 0 21G<144 334 941 1131> 1053 137<521.314 854.346>
VStem: 144 190<0 928.041 989 1579> 941 190<0 951.861>
LayerCount: 2
Fore
SplineSet
334 989 m 1,0,1
 390 1050 390 1050 438 1089 c 128,-1,2
 486 1128 486 1128 531.5 1150.5 c 128,-1,3
 577 1173 577 1173 624 1181.5 c 128,-1,4
 671 1190 671 1190 726 1190 c 0,5,6
 817 1190 817 1190 882 1169.5 c 128,-1,7
 947 1149 947 1149 992 1112 c 128,-1,8
 1037 1075 1037 1075 1064.5 1023 c 128,-1,9
 1092 971 1092 971 1106.5 908 c 128,-1,10
 1121 845 1121 845 1126 773 c 128,-1,11
 1131 701 1131 701 1131 623 c 2,12,-1
 1131 0 l 1,13,-1
 941 0 l 1,14,-1
 941 623 l 2,15,16
 941 734 941 734 932 815 c 128,-1,17
 923 896 923 896 898 949 c 128,-1,18
 873 1002 873 1002 828 1027.5 c 128,-1,19
 783 1053 783 1053 710 1053 c 0,20,21
 647 1053 647 1053 588 1035.5 c 128,-1,22
 529 1018 529 1018 479 992.5 c 128,-1,23
 429 967 429 967 391.5 938.5 c 128,-1,24
 354 910 354 910 334 888 c 1,25,-1
 334 0 l 1,26,-1
 144 0 l 1,27,-1
 144 1579 l 1,28,-1
 334 1616 l 1,29,-1
 334 989 l 1,0,1
EndSplineSet
EndChar

StartChar: i
Encoding: 105 105 78
Width: 528
Flags: W
HStem: 0 21G<174 356> 1149 20G<174 356> 1347 230<180.116 353.884>
VStem: 157 220<1369.66 1554.34> 174 182<0 1169 1358.67 1565.33>
LayerCount: 2
Fore
SplineSet
174 0 m 1,0,-1
 174 1169 l 1,1,-1
 356 1169 l 1,2,-1
 356 0 l 1,3,-1
 174 0 l 1,0,-1
157 1462 m 0,4,5
 157 1486 157 1486 165.5 1506.5 c 128,-1,6
 174 1527 174 1527 189 1543 c 128,-1,7
 204 1559 204 1559 224 1568 c 128,-1,8
 244 1577 244 1577 267 1577 c 0,9,10
 291 1577 291 1577 311 1567.5 c 128,-1,11
 331 1558 331 1558 346 1542 c 128,-1,12
 361 1526 361 1526 369 1505 c 128,-1,13
 377 1484 377 1484 377 1462 c 0,14,15
 377 1438 377 1438 368.5 1417.5 c 128,-1,16
 360 1397 360 1397 345 1381 c 128,-1,17
 330 1365 330 1365 310 1356 c 128,-1,18
 290 1347 290 1347 267 1347 c 0,19,20
 243 1347 243 1347 223 1356.5 c 128,-1,21
 203 1366 203 1366 188 1382 c 128,-1,22
 173 1398 173 1398 165 1418.5 c 128,-1,23
 157 1439 157 1439 157 1462 c 0,4,5
EndSplineSet
EndChar

StartChar: j
Encoding: 106 106 79
Width: 546
Flags: W
HStem: -373 21G<57.8261 105> 1149 20G<207 397> 1347 230<215.116 388.884>
VStem: 192 220<1369.66 1554.34> 207 190<-100.992 1169>
LayerCount: 2
Fore
SplineSet
192 1462 m 0,0,1
 192 1486 192 1486 200.5 1506.5 c 128,-1,2
 209 1527 209 1527 224 1543 c 128,-1,3
 239 1559 239 1559 259 1568 c 128,-1,4
 279 1577 279 1577 302 1577 c 0,5,6
 326 1577 326 1577 346 1567.5 c 128,-1,7
 366 1558 366 1558 381 1542 c 128,-1,8
 396 1526 396 1526 404 1505 c 128,-1,9
 412 1484 412 1484 412 1462 c 0,10,11
 412 1438 412 1438 403.5 1417.5 c 128,-1,12
 395 1397 395 1397 380 1381 c 128,-1,13
 365 1365 365 1365 345 1356 c 128,-1,14
 325 1347 325 1347 302 1347 c 0,15,16
 278 1347 278 1347 258 1356.5 c 128,-1,17
 238 1366 238 1366 223 1382 c 128,-1,18
 208 1398 208 1398 200 1418.5 c 128,-1,19
 192 1439 192 1439 192 1462 c 0,0,1
19 -258 m 1,20,21
 85 -216 85 -216 123 -166.5 c 128,-1,22
 161 -117 161 -117 179.5 -56 c 128,-1,23
 198 5 198 5 202.5 77.5 c 128,-1,24
 207 150 207 150 207 238 c 2,25,-1
 207 341 l 1,26,-1
 207 1169 l 1,27,-1
 397 1169 l 1,28,-1
 397 154 l 2,29,30
 397 51 397 51 374.5 -37.5 c 128,-1,31
 352 -126 352 -126 309 -194 c 128,-1,32
 266 -262 266 -262 205 -308 c 128,-1,33
 144 -354 144 -354 66 -373 c 1,34,-1
 19 -258 l 1,20,21
EndSplineSet
EndChar

StartChar: k
Encoding: 107 107 80
Width: 1225
Flags: W
HStem: 0 21G<144 334 912.703 1151> 1149 20G<872.373 1118>
VStem: 144 190<0 459 627 1579> 893 225<944 1169> 930 221<0 221>
DStem2: 334 627 565 648 0.717939 0.696106<180.462 778.617> 565 648 450 555 0.670733 -0.741698<0 725.438>
LayerCount: 2
Fore
SplineSet
334 0 m 1,0,-1
 144 0 l 1,1,-1
 144 1579 l 1,2,-1
 334 1614 l 1,3,-1
 334 627 l 1,4,-1
 893 1169 l 1,5,-1
 1118 1169 l 1,6,-1
 565 648 l 1,7,-1
 1151 0 l 1,8,-1
 930 0 l 1,9,-1
 450 555 l 1,10,-1
 334 459 l 1,11,-1
 334 0 l 1,0,-1
EndSplineSet
EndChar

StartChar: l
Encoding: 108 108 81
Width: 508
Flags: W
HStem: 0 21G<158 348>
VStem: 158 190<0 1579>
LayerCount: 2
Fore
SplineSet
348 0 m 1,0,-1
 158 0 l 1,1,-1
 158 1579 l 1,2,-1
 348 1614 l 1,3,-1
 348 0 l 1,0,-1
EndSplineSet
EndChar

StartChar: m
Encoding: 109 109 82
Width: 1941
Flags: W
HStem: 0 21G<144 334 866 1056 1612 1802> 1053 137<519.502 803.899 1247.63 1547.24> 1149 20G<144 287.621>
VStem: 144 190<0 901.618> 144 141<1059.62 1169> 866 190<0 900.059> 1612 190<0 981.887>
LayerCount: 2
Fore
SplineSet
334 0 m 1,0,-1
 144 0 l 1,1,-1
 144 1169 l 1,2,-1
 285 1169 l 1,3,-1
 312 963 l 1,4,5
 344 1015 344 1015 385.5 1057 c 128,-1,6
 427 1099 427 1099 477.5 1128.5 c 128,-1,7
 528 1158 528 1158 585.5 1174 c 128,-1,8
 643 1190 643 1190 707 1190 c 256,9,10
 771 1190 771 1190 823 1172.5 c 128,-1,11
 875 1155 875 1155 915 1125 c 128,-1,12
 955 1095 955 1095 982.5 1054.5 c 128,-1,13
 1010 1014 1010 1014 1026 967 c 1,14,15
 1060 1017 1060 1017 1107 1058 c 128,-1,16
 1154 1099 1154 1099 1208.5 1128.5 c 128,-1,17
 1263 1158 1263 1158 1323.5 1174 c 128,-1,18
 1384 1190 1384 1190 1446 1190 c 0,19,20
 1534 1190 1534 1190 1600.5 1158 c 128,-1,21
 1667 1126 1667 1126 1712 1069.5 c 128,-1,22
 1757 1013 1757 1013 1779.5 935.5 c 128,-1,23
 1802 858 1802 858 1802 766 c 2,24,-1
 1802 0 l 1,25,-1
 1612 0 l 1,26,-1
 1612 768 l 2,27,28
 1612 858 1612 858 1596.5 914 c 128,-1,29
 1581 970 1581 970 1554.5 1000.5 c 128,-1,30
 1528 1031 1528 1031 1492.5 1042 c 128,-1,31
 1457 1053 1457 1053 1418 1053 c 0,32,33
 1326 1053 1326 1053 1237.5 1003 c 128,-1,34
 1149 953 1149 953 1056 858 c 1,35,-1
 1056 0 l 1,36,-1
 866 0 l 1,37,-1
 866 768 l 2,38,39
 866 837 866 837 857 890 c 128,-1,40
 848 943 848 943 826.5 979.5 c 128,-1,41
 805 1016 805 1016 768 1034.5 c 128,-1,42
 731 1053 731 1053 674 1053 c 0,43,44
 595 1053 595 1053 511.5 1003.5 c 128,-1,45
 428 954 428 954 334 860 c 1,46,-1
 334 0 l 1,0,-1
EndSplineSet
EndChar

StartChar: n
Encoding: 110 110 83
Width: 1267
Flags: W
HStem: 0 21G<144 334 938 1128> 1053 137<546.618 850.279> 1149 20G<144 286.567>
VStem: 144 190<0 916.562> 144 140<1057.3 1169> 938 190<0 955.211>
LayerCount: 2
Fore
SplineSet
308 982 m 1,0,1
 338 1019 338 1019 388 1056 c 128,-1,2
 438 1093 438 1093 497.5 1123 c 128,-1,3
 557 1153 557 1153 621.5 1171.5 c 128,-1,4
 686 1190 686 1190 745 1190 c 0,5,6
 850 1190 850 1190 922.5 1158.5 c 128,-1,7
 995 1127 995 1127 1041 1067.5 c 128,-1,8
 1087 1008 1087 1008 1107.5 922 c 128,-1,9
 1128 836 1128 836 1128 727 c 2,10,-1
 1128 0 l 1,11,-1
 938 0 l 1,12,-1
 938 727 l 2,13,14
 938 803 938 803 926 863.5 c 128,-1,15
 914 924 914 924 887 966 c 128,-1,16
 860 1008 860 1008 817 1030.5 c 128,-1,17
 774 1053 774 1053 711 1053 c 0,18,19
 663 1053 663 1053 606 1034 c 128,-1,20
 549 1015 549 1015 496 988 c 128,-1,21
 443 961 443 961 399 931 c 128,-1,22
 355 901 355 901 334 880 c 1,23,-1
 334 0 l 1,24,-1
 144 0 l 1,25,-1
 144 1169 l 1,26,-1
 284 1169 l 1,27,-1
 308 982 l 1,0,1
EndSplineSet
EndChar

StartChar: o
Encoding: 111 111 84
Width: 1264
Flags: W
HStem: -38 133<461 807.796> 1038 139<461 807.733>
VStem: 102 183<304.062 829.75> 981 181<302.375 830.149>
LayerCount: 2
Fore
SplineSet
633 95 m 0,0,1
 705 95 705 95 758.5 115.5 c 128,-1,2
 812 136 812 136 850.5 171.5 c 128,-1,3
 889 207 889 207 914 254 c 128,-1,4
 939 301 939 301 954 353.5 c 128,-1,5
 969 406 969 406 975 461 c 128,-1,6
 981 516 981 516 981 567 c 256,7,8
 981 618 981 618 975 672.5 c 128,-1,9
 969 727 969 727 954 779.5 c 128,-1,10
 939 832 939 832 914 879 c 128,-1,11
 889 926 889 926 850.5 961.5 c 128,-1,12
 812 997 812 997 758 1017.5 c 128,-1,13
 704 1038 704 1038 633 1038 c 256,14,15
 562 1038 562 1038 508.5 1017 c 128,-1,16
 455 996 455 996 416.5 960.5 c 128,-1,17
 378 925 378 925 352.5 878 c 128,-1,18
 327 831 327 831 312 779 c 128,-1,19
 297 727 297 727 291 672 c 128,-1,20
 285 617 285 617 285 567 c 0,21,22
 285 516 285 516 291 461.5 c 128,-1,23
 297 407 297 407 312 354.5 c 128,-1,24
 327 302 327 302 352.5 255 c 128,-1,25
 378 208 378 208 416.5 172.5 c 128,-1,26
 455 137 455 137 508.5 116 c 128,-1,27
 562 95 562 95 633 95 c 0,0,1
1162 570 m 0,28,29
 1162 500 1162 500 1152 427.5 c 128,-1,30
 1142 355 1142 355 1118 287 c 128,-1,31
 1094 219 1094 219 1054.5 160 c 128,-1,32
 1015 101 1015 101 956.5 57 c 128,-1,33
 898 13 898 13 817.5 -12.5 c 128,-1,34
 737 -38 737 -38 632 -38 c 256,35,36
 527 -38 527 -38 446.5 -12.5 c 128,-1,37
 366 13 366 13 307.5 57 c 128,-1,38
 249 101 249 101 209.5 160 c 128,-1,39
 170 219 170 219 146 287 c 128,-1,40
 122 355 122 355 112 427 c 128,-1,41
 102 499 102 499 102 570 c 256,42,43
 102 641 102 641 112 713.5 c 128,-1,44
 122 786 122 786 146 853.5 c 128,-1,45
 170 921 170 921 209.5 980 c 128,-1,46
 249 1039 249 1039 307.5 1083 c 128,-1,47
 366 1127 366 1127 446.5 1152 c 128,-1,48
 527 1177 527 1177 632 1177 c 256,49,50
 737 1177 737 1177 817.5 1152 c 128,-1,51
 898 1127 898 1127 956.5 1083 c 128,-1,52
 1015 1039 1015 1039 1054.5 980 c 128,-1,53
 1094 921 1094 921 1118 853.5 c 128,-1,54
 1142 786 1142 786 1152 713.5 c 128,-1,55
 1162 641 1162 641 1162 570 c 0,28,29
EndSplineSet
EndChar

StartChar: p
Encoding: 112 112 85
Width: 1263
Flags: W
HStem: -487 21G<144 316.727> -20 137<506.873 836.304> 1053 137<517.437 835.183> 1149 20G<144 288.333>
VStem: 144 190<-465 164 239.904 930.8> 144 141<1082.98 1169> 980 182<310.487 861.95>
LayerCount: 2
Fore
SplineSet
699 1053 m 0,0,1
 652 1053 652 1053 601.5 1040.5 c 128,-1,2
 551 1028 551 1028 502.5 1006.5 c 128,-1,3
 454 985 454 985 410.5 955 c 128,-1,4
 367 925 367 925 334 890 c 1,5,-1
 334 285 l 1,6,7
 362 251 362 251 402.5 220.5 c 128,-1,8
 443 190 443 190 489.5 167 c 128,-1,9
 536 144 536 144 585 130.5 c 128,-1,10
 634 117 634 117 679 117 c 0,11,12
 766 117 766 117 824 153.5 c 128,-1,13
 882 190 882 190 916.5 251.5 c 128,-1,14
 951 313 951 313 965.5 393.5 c 128,-1,15
 980 474 980 474 980 561 c 0,16,17
 980 691 980 691 958.5 784 c 128,-1,18
 937 877 937 877 899.5 937 c 128,-1,19
 862 997 862 997 810.5 1025 c 128,-1,20
 759 1053 759 1053 699 1053 c 0,0,1
686 -20 m 0,21,22
 635 -20 635 -20 585 -5.5 c 128,-1,23
 535 9 535 9 489.5 34 c 128,-1,24
 444 59 444 59 404 92.5 c 128,-1,25
 364 126 364 126 334 164 c 1,26,-1
 334 -465 l 1,27,-1
 144 -487 l 1,28,-1
 144 1169 l 1,29,-1
 285 1169 l 1,30,-1
 318 971 l 1,31,32
 352 1016 352 1016 394 1056 c 128,-1,33
 436 1096 436 1096 483 1125.5 c 128,-1,34
 530 1155 530 1155 580 1172.5 c 128,-1,35
 630 1190 630 1190 681 1190 c 0,36,37
 786 1190 786 1190 874.5 1157.5 c 128,-1,38
 963 1125 963 1125 1026.5 1053 c 128,-1,39
 1090 981 1090 981 1126 866 c 128,-1,40
 1162 751 1162 751 1162 587 c 0,41,42
 1162 516 1162 516 1150.5 443.5 c 128,-1,43
 1139 371 1139 371 1115 303.5 c 128,-1,44
 1091 236 1091 236 1053 177 c 128,-1,45
 1015 118 1015 118 962 74.5 c 128,-1,46
 909 31 909 31 840.5 5.5 c 128,-1,47
 772 -20 772 -20 686 -20 c 0,21,22
EndSplineSet
EndChar

StartChar: q
Encoding: 113 113 86
Width: 1259
Flags: W
HStem: -502 21G<928 1093.22> -20 137<425.741 756.226> 1053 137<414.428 744.078> 1149 20G<975.566 1118>
VStem: 101 182<301.057 889.913> 928 190<-479 164 231.184 929.602> 979 139<1085.51 1169>
LayerCount: 2
Fore
SplineSet
597 117 m 0,0,1
 638 117 638 117 687 132.5 c 128,-1,2
 736 148 736 148 782 171 c 128,-1,3
 828 194 828 194 867 220 c 128,-1,4
 906 246 906 246 928 268 c 1,5,-1
 928 891 l 1,6,7
 892 927 892 927 844.5 957 c 128,-1,8
 797 987 797 987 747 1008 c 128,-1,9
 697 1029 697 1029 648.5 1041 c 128,-1,10
 600 1053 600 1053 562 1053 c 0,11,12
 476 1053 476 1053 421.5 1014 c 128,-1,13
 367 975 367 975 336.5 910 c 128,-1,14
 306 845 306 845 294.5 760 c 128,-1,15
 283 675 283 675 283 584 c 0,16,17
 283 462 283 462 301.5 374 c 128,-1,18
 320 286 320 286 358.5 229 c 128,-1,19
 397 172 397 172 456 144.5 c 128,-1,20
 515 117 515 117 597 117 c 0,0,1
571 1190 m 0,21,22
 627 1190 627 1190 681.5 1171.5 c 128,-1,23
 736 1153 736 1153 785 1122.5 c 128,-1,24
 834 1092 834 1092 875 1052.5 c 128,-1,25
 916 1013 916 1013 945 971 c 1,26,-1
 979 1169 l 1,27,-1
 1118 1169 l 1,28,-1
 1118 -479 l 1,29,-1
 928 -502 l 1,30,-1
 928 164 l 1,31,32
 899 128 899 128 861 94.5 c 128,-1,33
 823 61 823 61 777 35.5 c 128,-1,34
 731 10 731 10 678.5 -5 c 128,-1,35
 626 -20 626 -20 568 -20 c 0,36,37
 449 -20 449 -20 361.5 28.5 c 128,-1,38
 274 77 274 77 216 160.5 c 128,-1,39
 158 244 158 244 129.5 355.5 c 128,-1,40
 101 467 101 467 101 593 c 0,41,42
 101 717 101 717 124 825.5 c 128,-1,43
 147 934 147 934 202 1015 c 128,-1,44
 257 1096 257 1096 347 1143 c 128,-1,45
 437 1190 437 1190 571 1190 c 0,21,22
EndSplineSet
EndChar

StartChar: r
Encoding: 114 114 87
Width: 803
Flags: W
HStem: 0 21G<144 334> 1030 160<487.882 737.622> 1149 20G<144 290.125>
VStem: 144 190<0 910.541> 144 143<1077.25 1169>
LayerCount: 2
Fore
SplineSet
317 977 m 1,0,1
 351 1019 351 1019 386 1058 c 128,-1,2
 421 1097 421 1097 459.5 1126 c 128,-1,3
 498 1155 498 1155 542 1172.5 c 128,-1,4
 586 1190 586 1190 639 1190 c 0,5,6
 695 1190 695 1190 739 1178 c 1,7,-1
 739 1026 l 1,8,9
 737 1027 737 1027 728 1028 c 128,-1,10
 719 1029 719 1029 705 1029.5 c 128,-1,11
 691 1030 691 1030 673 1030 c 128,-1,12
 655 1030 655 1030 637 1030 c 0,13,14
 595 1030 595 1030 554 1016 c 128,-1,15
 513 1002 513 1002 474.5 979.5 c 128,-1,16
 436 957 436 957 400.5 928.5 c 128,-1,17
 365 900 365 900 334 870 c 1,18,-1
 334 0 l 1,19,-1
 144 0 l 1,20,-1
 144 1169 l 1,21,-1
 287 1169 l 1,22,-1
 317 977 l 1,0,1
EndSplineSet
EndChar

StartChar: s
Encoding: 115 115 88
Width: 992
Flags: W
HStem: -21 138<293.096 671.152> 1053 137<319.911 695.626>
VStem: 93 160<798.821 990.651> 753 172<191.871 421.221>
DStem2: 585 678 338 584 0.943068 -0.3326<-354.784 225.136>
LayerCount: 2
Fore
SplineSet
338 584 m 2,0,1
 287 602 287 602 242 628.5 c 128,-1,2
 197 655 197 655 164 691.5 c 128,-1,3
 131 728 131 728 112 775 c 128,-1,4
 93 822 93 822 93 881 c 0,5,6
 93 959 93 959 125.5 1017.5 c 128,-1,7
 158 1076 158 1076 212 1114 c 128,-1,8
 266 1152 266 1152 335 1171 c 128,-1,9
 404 1190 404 1190 478 1190 c 0,10,11
 544 1190 544 1190 606.5 1177 c 128,-1,12
 669 1164 669 1164 721.5 1145 c 128,-1,13
 774 1126 774 1126 813 1104.5 c 128,-1,14
 852 1083 852 1083 872 1067 c 1,15,-1
 810 941 l 1,16,17
 749 988 749 988 667.5 1020.5 c 128,-1,18
 586 1053 586 1053 491 1053 c 0,19,20
 432 1053 432 1053 387.5 1039.5 c 128,-1,21
 343 1026 343 1026 313 1003.5 c 128,-1,22
 283 981 283 981 268 952 c 128,-1,23
 253 923 253 923 253 891 c 0,24,25
 253 835 253 835 296.5 799.5 c 128,-1,26
 340 764 340 764 417 737 c 2,27,-1
 585 678 l 2,28,29
 662 651 662 651 724.5 619 c 128,-1,30
 787 587 787 587 831.5 545 c 128,-1,31
 876 503 876 503 900.5 449 c 128,-1,32
 925 395 925 395 925 325 c 0,33,34
 925 262 925 262 903.5 200 c 128,-1,35
 882 138 882 138 833.5 89 c 128,-1,36
 785 40 785 40 707 9.5 c 128,-1,37
 629 -21 629 -21 515 -21 c 0,38,39
 437 -21 437 -21 370.5 -7 c 128,-1,40
 304 7 304 7 252 26.5 c 128,-1,41
 200 46 200 46 162 67.5 c 128,-1,42
 124 89 124 89 103 104 c 1,43,-1
 166 231 l 1,44,45
 188 213 188 213 225.5 193 c 128,-1,46
 263 173 263 173 308.5 156 c 128,-1,47
 354 139 354 139 403 128 c 128,-1,48
 452 117 452 117 497 117 c 0,49,50
 530 117 530 117 574.5 125 c 128,-1,51
 619 133 619 133 658.5 154 c 128,-1,52
 698 175 698 175 725.5 212 c 128,-1,53
 753 249 753 249 753 306 c 0,54,55
 753 346 753 346 739 376.5 c 128,-1,56
 725 407 725 407 699.5 430.5 c 128,-1,57
 674 454 674 454 639 472 c 128,-1,58
 604 490 604 490 562 505 c 2,59,-1
 338 584 l 2,0,1
EndSplineSet
EndChar

StartChar: t
Encoding: 116 116 89
Width: 855
Flags: W
HStem: -20 137<425.971 652.806> 1065 104<34 217 407 740>
VStem: 217 190<131.133 1065 1169 1353.83> 245 162<1322.99 1530>
LayerCount: 2
Fore
SplineSet
485 -20 m 0,0,1
 397 -20 397 -20 344 9.5 c 128,-1,2
 291 39 291 39 263 96.5 c 128,-1,3
 235 154 235 154 226 239.5 c 128,-1,4
 217 325 217 325 217 437 c 2,5,-1
 217 1065 l 1,6,-1
 34 1065 l 1,7,-1
 34 1169 l 1,8,-1
 220 1169 l 1,9,-1
 245 1530 l 1,10,-1
 407 1576 l 1,11,-1
 407 1169 l 1,12,-1
 740 1169 l 1,13,-1
 740 1065 l 1,14,-1
 407 1065 l 1,15,-1
 407 295 l 2,16,17
 407 241 407 241 412.5 206.5 c 128,-1,18
 418 172 418 172 431 152 c 128,-1,19
 444 132 444 132 465.5 124.5 c 128,-1,20
 487 117 487 117 519 117 c 0,21,22
 555 117 555 117 602.5 137.5 c 128,-1,23
 650 158 650 158 731 203 c 1,24,-1
 798 80 l 1,25,26
 710 26 710 26 634 3 c 128,-1,27
 558 -20 558 -20 485 -20 c 0,0,1
EndSplineSet
EndChar

StartChar: u
Encoding: 117 117 90
Width: 1241
Flags: W
HStem: -20 137<415.191 741.313> 0 21G<955.932 1100> 1149 20G<134 324 910 1100>
VStem: 134 190<218.02 1169> 910 190<234.777 1169> 959 141<0 93.4495>
LayerCount: 2
Fore
SplineSet
324 442 m 2,0,1
 324 355 324 355 339.5 293.5 c 128,-1,2
 355 232 355 232 384.5 193 c 128,-1,3
 414 154 414 154 457 135.5 c 128,-1,4
 500 117 500 117 556 117 c 0,5,6
 603 117 603 117 647 125 c 128,-1,7
 691 133 691 133 734 152 c 128,-1,8
 777 171 777 171 820 200.5 c 128,-1,9
 863 230 863 230 910 274 c 1,10,-1
 910 1169 l 1,11,-1
 1100 1169 l 1,12,-1
 1100 0 l 1,13,-1
 959 0 l 1,14,-1
 932 176 l 1,15,16
 904 145 904 145 866.5 110.5 c 128,-1,17
 829 76 829 76 782 47 c 128,-1,18
 735 18 735 18 678 -1 c 128,-1,19
 621 -20 621 -20 554 -20 c 0,20,21
 454 -20 454 -20 376 6 c 128,-1,22
 298 32 298 32 244 88 c 128,-1,23
 190 144 190 144 162 231.5 c 128,-1,24
 134 319 134 319 134 442 c 2,25,-1
 134 1169 l 1,26,-1
 324 1169 l 1,27,-1
 324 442 l 2,0,1
EndSplineSet
EndChar

StartChar: v
Encoding: 118 118 91
Width: 1134
Flags: W
HStem: 0 21G<465.678 666.357> 1149 20G<45 239.928 892.196 1089>
DStem2: 233 1169 45 1169 0.343806 -0.939041<0 1026.39> 569 199 659 0 0.345222 0.938521<0 1024.29>
LayerCount: 2
Fore
SplineSet
473 0 m 1,0,-1
 45 1169 l 1,1,-1
 233 1169 l 1,2,-1
 569 199 l 1,3,-1
 899 1169 l 1,4,-1
 1089 1169 l 1,5,-1
 659 0 l 1,6,-1
 473 0 l 1,0,-1
EndSplineSet
EndChar

StartChar: w
Encoding: 119 119 92
Width: 1644
Flags: W
HStem: 0 21G<359.525 576.065 1067.97 1284.47> 1149 20G<45 233.478 716.062 927.776 1408.42 1599>
VStem: 45 184<985 1169> 1413 186<983 1169>
DStem2: 463 124 571 0 0.239693 0.970849<0 931.899> 923 1169 823 995 0.232248 -0.972656<146.017 1076.43>
LayerCount: 2
Fore
SplineSet
823 995 m 1,0,-1
 571 0 l 1,1,-1
 365 0 l 1,2,-1
 45 1169 l 1,3,-1
 229 1169 l 1,4,-1
 463 124 l 1,5,-1
 721 1169 l 1,6,-1
 923 1169 l 1,7,-1
 1173 122 l 1,8,-1
 1413 1169 l 1,9,-1
 1599 1169 l 1,10,-1
 1279 0 l 1,11,-1
 1073 0 l 1,12,-1
 823 995 l 1,0,-1
EndSplineSet
EndChar

StartChar: x
Encoding: 120 120 93
Width: 1126
Flags: W
HStem: 0 21G<68 292.075 838.176 1054> 1149 20G<64 292.077 839.58 1062>
LayerCount: 2
Fore
SplineSet
280 0 m 1,0,-1
 68 0 l 1,1,-1
 476 584 l 1,2,-1
 64 1169 l 1,3,-1
 280 1169 l 1,4,-1
 562 702 l 1,5,-1
 852 1169 l 1,6,-1
 1062 1169 l 1,7,-1
 656 584 l 1,8,-1
 1054 0 l 1,9,-1
 850 0 l 1,10,-1
 568 477 l 1,11,-1
 280 0 l 1,0,-1
EndSplineSet
EndChar

StartChar: y
Encoding: 121 121 94
Width: 1123
Flags: W
HStem: -459 125<201.151 280.166> 1149 20G<45 234.717 876.457 1078>
DStem2: 227 1169 45 1169 0.366205 -0.930534<0 986.094> 496 23 641 -37 0.340679 0.94018<-286.408 0 241.779 1070.68> 883 1169 1078 1169 0.340679 0.94018<-1495.7 -1209.29 -846.49 0>
LayerCount: 2
Fore
SplineSet
45 1169 m 1,0,-1
 227 1169 l 1,1,-1
 582 249 l 1,2,-1
 883 1169 l 1,3,-1
 1078 1169 l 1,4,-1
 641 -37 l 2,5,6
 613 -114 613 -114 579.5 -173.5 c 128,-1,7
 546 -233 546 -233 510 -277 c 128,-1,8
 474 -321 474 -321 438 -352 c 128,-1,9
 402 -383 402 -383 368 -403 c 0,10,11
 289 -451 289 -451 207 -459 c 1,12,-1
 156 -334 l 1,13,14
 215 -320 215 -320 266 -296.5 c 128,-1,15
 317 -273 317 -273 359 -232 c 128,-1,16
 401 -191 401 -191 435.5 -129 c 128,-1,17
 470 -67 470 -67 496 23 c 1,18,-1
 45 1169 l 1,0,-1
EndSplineSet
EndChar

StartChar: z
Encoding: 122 122 95
Width: 1024
Flags: W
HStem: 0 136<279 905> 1035 134<133 741>
DStem2: 103 166 279 136 0.591806 0.80608<79.9754 1078.06>
LayerCount: 2
Fore
SplineSet
133 1035 m 1,0,-1
 133 1169 l 1,1,-1
 905 1169 l 1,2,-1
 905 1004 l 1,3,-1
 279 136 l 1,4,-1
 905 136 l 1,5,-1
 905 0 l 1,6,-1
 103 0 l 1,7,-1
 103 166 l 1,8,-1
 741 1035 l 1,9,-1
 133 1035 l 1,0,-1
EndSplineSet
EndChar

StartChar: braceleft
Encoding: 123 123 96
Width: 823
Flags: W
HStem: -209 169<572.581 742> 571 188<95 238.843> 1370 169<572.581 742>
VStem: 333 171<34.1855 468.742 860.287 1295.81>
CounterMasks: 1 e0
LayerCount: 2
Fore
SplineSet
504 1096 m 0,0,1
 502 997 502 997 489.5 924 c 128,-1,2
 477 851 477 851 448.5 799.5 c 128,-1,3
 420 748 420 748 374.5 715.5 c 128,-1,4
 329 683 329 683 262 665 c 1,5,6
 328 647 328 647 373.5 615 c 128,-1,7
 419 583 419 583 447.5 531.5 c 128,-1,8
 476 480 476 480 489 407 c 128,-1,9
 502 334 502 334 504 234 c 0,10,11
 505 138 505 138 524.5 83 c 128,-1,12
 544 28 544 28 576 1 c 128,-1,13
 608 -26 608 -26 651 -33 c 128,-1,14
 694 -40 694 -40 742 -40 c 1,15,-1
 742 -209 l 1,16,17
 529 -209 529 -209 431 -91.5 c 128,-1,18
 333 26 333 26 333 263 c 0,19,20
 333 346 333 346 315.5 404.5 c 128,-1,21
 298 463 298 463 266.5 500 c 128,-1,22
 235 537 235 537 191 554 c 128,-1,23
 147 571 147 571 95 571 c 1,24,-1
 95 759 l 1,25,26
 149 759 149 759 193 776 c 128,-1,27
 237 793 237 793 268 830 c 128,-1,28
 299 867 299 867 316 925.5 c 128,-1,29
 333 984 333 984 333 1067 c 0,30,31
 333 1304 333 1304 431 1421.5 c 128,-1,32
 529 1539 529 1539 742 1539 c 1,33,-1
 742 1370 l 1,34,35
 694 1370 694 1370 651 1363 c 128,-1,36
 608 1356 608 1356 576 1329 c 128,-1,37
 544 1302 544 1302 524.5 1247 c 128,-1,38
 505 1192 505 1192 504 1096 c 0,0,1
EndSplineSet
EndChar

StartChar: bar
Encoding: 124 124 97
Width: 625
Flags: W
VStem: 224 178<-111 1696>
LayerCount: 2
Fore
SplineSet
224 1696 m 1,0,-1
 402 1696 l 1,1,-1
 402 -111 l 1,2,-1
 224 -111 l 1,3,-1
 224 1696 l 1,0,-1
EndSplineSet
EndChar

StartChar: braceright
Encoding: 125 125 98
Width: 827
Flags: W
HStem: -209 169<125 294.419> 571 188<628.074 772> 1370 169<125 294.419>
VStem: 363 171<34.1855 468.742 860.287 1295.81>
CounterMasks: 1 e0
LayerCount: 2
Fore
SplineSet
363 1096 m 1,0,1
 361 1192 361 1192 342 1247 c 128,-1,2
 323 1302 323 1302 291 1329 c 128,-1,3
 259 1356 259 1356 216 1363 c 128,-1,4
 173 1370 173 1370 125 1370 c 1,5,-1
 125 1539 l 1,6,7
 338 1539 338 1539 436 1421.5 c 128,-1,8
 534 1304 534 1304 534 1067 c 0,9,10
 534 984 534 984 551 925.5 c 128,-1,11
 568 867 568 867 599 830 c 128,-1,12
 630 793 630 793 674 776 c 128,-1,13
 718 759 718 759 772 759 c 1,14,-1
 772 571 l 1,15,16
 719 571 719 571 675.5 554 c 128,-1,17
 632 537 632 537 600.5 500 c 128,-1,18
 569 463 569 463 551.5 404.5 c 128,-1,19
 534 346 534 346 534 263 c 0,20,21
 534 26 534 26 436 -91.5 c 128,-1,22
 338 -209 338 -209 125 -209 c 1,23,-1
 125 -40 l 1,24,25
 173 -40 173 -40 216 -33 c 128,-1,26
 259 -26 259 -26 291 1 c 128,-1,27
 323 28 323 28 342 83 c 128,-1,28
 361 138 361 138 363 234 c 1,29,30
 364 334 364 334 377.5 407 c 128,-1,31
 391 480 391 480 419.5 531.5 c 128,-1,32
 448 583 448 583 493.5 615 c 128,-1,33
 539 647 539 647 605 665 c 1,34,35
 538 683 538 683 492.5 715.5 c 128,-1,36
 447 748 447 748 418.5 799.5 c 128,-1,37
 390 851 390 851 377 924 c 128,-1,38
 364 997 364 997 363 1096 c 1,0,1
EndSplineSet
EndChar

StartChar: asciitilde
Encoding: 126 126 99
Width: 899
Flags: W
HStem: 390 139<507.562 690.453> 509 145<260.612 419.598>
VStem: 93 156<394 483.724> 696 157<530.489 640>
DStem2: 385 634.5 344 502 0.896983 -0.442066<-6.9437 274.3>
LayerCount: 2
Fore
SplineSet
656 390 m 0,0,1
 652 390 652 390 649 390 c 0,2,3
 614 390 614 390 580 399 c 0,4,5
 542 409 542 409 504 425 c 0,6,7
 463 442 463 442 433.5 457 c 128,-1,8
 404 472 404 472 382 483.5 c 128,-1,9
 360 495 360 495 344 502 c 128,-1,10
 328 509 328 509 315 509 c 0,11,12
 279 509 279 509 264 484.5 c 128,-1,13
 249 460 249 460 249 394 c 1,14,-1
 93 394 l 1,15,16
 93 468 93 468 108.5 518 c 128,-1,17
 124 568 124 568 151.5 598 c 128,-1,18
 179 628 179 628 217 641 c 128,-1,19
 255 654 255 654 300 654 c 0,20,21
 341 654 341 654 385 634.5 c 128,-1,22
 429 615 429 615 473 591.5 c 128,-1,23
 517 568 517 568 559.5 548.5 c 128,-1,24
 602 529 602 529 640 529 c 0,25,26
 661 529 661 529 672.5 540.5 c 128,-1,27
 684 552 684 552 689.5 569 c 128,-1,28
 695 586 695 586 696 605.5 c 128,-1,29
 697 625 697 625 697 640 c 1,30,-1
 853 640 l 1,31,32
 853 585 853 585 840.5 539 c 128,-1,33
 828 493 828 493 803 460 c 128,-1,34
 778 427 778 427 741 408.5 c 128,-1,35
 704 390 704 390 656 390 c 0,0,1
EndSplineSet
EndChar

StartChar: exclamdown
Encoding: 161 161 101
Width: 790
Flags: W
HStem: 0 21G<343 502> 1377 203<322.312 526.326>
VStem: 319 213<1377.03 1554.17> 343 159<0 1180>
LayerCount: 2
Fore
SplineSet
502 0 m 1,0,-1
 343 0 l 1,1,-1
 343 1180 l 1,2,-1
 502 1180 l 1,3,-1
 502 0 l 1,0,-1
319 1458 m 2,4,5
 319 1499 319 1499 321 1523.5 c 128,-1,6
 323 1548 323 1548 330 1560.5 c 128,-1,7
 337 1573 337 1573 350 1576.5 c 128,-1,8
 363 1580 363 1580 385 1580 c 0,9,10
 432 1580 432 1580 461 1578 c 128,-1,11
 490 1576 490 1576 505.5 1570.5 c 128,-1,12
 521 1565 521 1565 526.5 1554.5 c 128,-1,13
 532 1544 532 1544 532 1528 c 0,14,15
 532 1514 532 1514 530 1496.5 c 128,-1,16
 528 1479 528 1479 528 1458 c 0,17,18
 528 1430 528 1430 526.5 1414 c 128,-1,19
 525 1398 525 1398 520.5 1389.5 c 128,-1,20
 516 1381 516 1381 507 1378.5 c 128,-1,21
 498 1376 498 1376 483 1376 c 0,22,23
 475 1376 475 1376 465 1376.5 c 128,-1,24
 455 1377 455 1377 444 1377 c 2,25,-1
 319 1377 l 1,26,-1
 319 1458 l 2,4,5
EndSplineSet
EndChar

StartChar: cent
Encoding: 162 162 102
Width: 1138
Flags: W
HStem: -22 151<486.717 616 719 920.3> 1037 152<493.699 616 719 901.784> 1309 20G<616 719>
VStem: 142 190<313.116 844.618> 616 103<-159 -19 130 1037 1186 1329>
LayerCount: 2
Fore
SplineSet
332 580 m 0,0,1
 332 480 332 480 349.5 400 c 128,-1,2
 367 320 367 320 402 262 c 128,-1,3
 437 204 437 204 490.5 170 c 128,-1,4
 544 136 544 136 616 129 c 1,5,-1
 616 1037 l 1,6,7
 542 1027 542 1027 488.5 990.5 c 128,-1,8
 435 954 435 954 400.5 894.5 c 128,-1,9
 366 835 366 835 349 755.5 c 128,-1,10
 332 676 332 676 332 580 c 0,0,1
616 -22 m 1,11,12
 502 -14 502 -14 414 31.5 c 128,-1,13
 326 77 326 77 265.5 154.5 c 128,-1,14
 205 232 205 232 173.5 340 c 128,-1,15
 142 448 142 448 142 580 c 0,16,17
 142 713 142 713 173.5 821 c 128,-1,18
 205 929 205 929 266 1007.5 c 128,-1,19
 327 1086 327 1086 415 1132.5 c 128,-1,20
 503 1179 503 1179 616 1189 c 1,21,-1
 616 1329 l 1,22,-1
 719 1329 l 1,23,-1
 719 1186 l 1,24,25
 757 1186 757 1186 800.5 1177 c 128,-1,26
 844 1168 844 1168 886.5 1152.5 c 128,-1,27
 929 1137 929 1137 969 1117.5 c 128,-1,28
 1009 1098 1009 1098 1041 1077 c 1,29,-1
 984 944 l 1,30,31
 923 987 923 987 857 1011.5 c 128,-1,32
 791 1036 791 1036 719 1038 c 1,33,-1
 719 130 l 1,34,35
 791 132 791 132 856 151 c 128,-1,36
 921 170 921 170 984 205 c 1,37,-1
 1030 68 l 1,38,39
 1003 53 1003 53 966 38 c 128,-1,40
 929 23 929 23 887 10 c 128,-1,41
 845 -3 845 -3 801.5 -11 c 128,-1,42
 758 -19 758 -19 719 -19 c 1,43,-1
 719 -159 l 1,44,-1
 616 -159 l 1,45,-1
 616 -22 l 1,11,12
EndSplineSet
EndChar

StartChar: sterling
Encoding: 163 163 103
Width: 1128
Flags: W
HStem: 0 143<388 1004> 603 103<152 322 507 935> 1180 142<464.376 875.238>
VStem: 209 182<801.585 1109.44> 336 162<288.278 603>
LayerCount: 2
Fore
SplineSet
207 137 m 1,0,1
 232 167 232 167 257.5 214 c 128,-1,2
 283 261 283 261 303 321 c 128,-1,3
 323 381 323 381 336 452.5 c 128,-1,4
 349 524 349 524 349 603 c 1,5,-1
 152 603 l 1,6,-1
 152 706 l 1,7,-1
 322 706 l 1,8,9
 268 762 268 762 238.5 832 c 128,-1,10
 209 902 209 902 209 992 c 0,11,12
 209 1086 209 1086 244.5 1149 c 128,-1,13
 280 1212 280 1212 342.5 1250.5 c 128,-1,14
 405 1289 405 1289 490.5 1305.5 c 128,-1,15
 576 1322 576 1322 676 1322 c 0,16,17
 773 1322 773 1322 863.5 1295 c 128,-1,18
 954 1268 954 1268 1039 1219 c 1,19,-1
 989 1088 l 1,20,21
 904 1128 904 1128 821 1154 c 128,-1,22
 738 1180 738 1180 659 1180 c 0,23,24
 521 1180 521 1180 456 1129 c 128,-1,25
 391 1078 391 1078 391 978 c 0,26,27
 391 931 391 931 398.5 895.5 c 128,-1,28
 406 860 406 860 420.5 829.5 c 128,-1,29
 435 799 435 799 456.5 769.5 c 128,-1,30
 478 740 478 740 507 706 c 1,31,-1
 935 706 l 1,32,-1
 935 603 l 1,33,-1
 507 603 l 1,34,35
 507 534 507 534 498 467 c 128,-1,36
 489 400 489 400 473 340 c 128,-1,37
 457 280 457 280 435 229.5 c 128,-1,38
 413 179 413 179 388 143 c 1,39,-1
 1004 143 l 1,40,-1
 1004 0 l 1,41,-1
 207 0 l 1,42,-1
 207 137 l 1,0,1
EndSplineSet
EndChar

StartChar: currency
Encoding: 164 164 104
Width: 1366
Flags: W
HStem: 558 141<523.419 818.457> 1266 143<538.031 833.117>
VStem: 253 143<826.051 1122.34> 962 142<842.285 1138.26>
DStem2: 258 1526 134 1402 0.707107 -0.707107<0 283.176 1078.76 1373.91> 134 555 258 430 0.707107 0.707107<0 276.071 1099.96 1373.91>
LayerCount: 2
Fore
SplineSet
321 742 m 1,0,1
 253 846 253 846 253 970 c 0,2,3
 253 1097 253 1097 328 1208 c 1,4,-1
 134 1402 l 1,5,-1
 258 1526 l 1,6,-1
 452 1333 l 1,7,8
 564 1409 564 1409 691 1409 c 0,9,10
 816 1409 816 1409 920 1341 c 1,11,-1
 1106 1526 l 1,12,-1
 1230 1402 l 1,13,-1
 1043 1215 l 1,14,15
 1104 1118 1104 1118 1104 993 c 0,16,17
 1104 869 1104 869 1028 757 c 1,18,-1
 1230 555 l 1,19,-1
 1106 430 l 1,20,-1
 903 633 l 1,21,22
 793 558 793 558 669 558 c 0,23,24
 544 558 544 558 447 619 c 1,25,-1
 258 430 l 1,26,-1
 134 555 l 1,27,-1
 321 742 l 1,0,1
685 1266 m 256,28,29
 628 1266 628 1266 575.5 1242 c 128,-1,30
 523 1218 523 1218 483.5 1177.5 c 128,-1,31
 444 1137 444 1137 420 1084.5 c 128,-1,32
 396 1032 396 1032 396 975 c 256,33,34
 396 918 396 918 418 867.5 c 128,-1,35
 440 817 440 817 478 779.5 c 128,-1,36
 516 742 516 742 566 720.5 c 128,-1,37
 616 699 616 699 672 699 c 0,38,39
 729 699 729 699 781 723 c 128,-1,40
 833 747 833 747 873.5 787 c 128,-1,41
 914 827 914 827 938 879.5 c 128,-1,42
 962 932 962 932 962 989 c 256,43,44
 962 1046 962 1046 940 1096.5 c 128,-1,45
 918 1147 918 1147 880.5 1184.5 c 128,-1,46
 843 1222 843 1222 792.5 1244 c 128,-1,47
 742 1266 742 1266 685 1266 c 256,28,29
EndSplineSet
EndChar

StartChar: yen
Encoding: 165 165 105
Width: 1277
Flags: W
HStem: 0 788<171 1149> 389 99<263 565 755 1051> 584 104<263 524 788 1051> 1559 20G<41 245.619 1064.38 1269>
VStem: 565 190<0 389 488 584>
DStem2: 235 1579 41 1579 0.476569 -0.879137<0 895.556> 655 788 788 688 0.475042 0.879963<0 895.568>
LayerCount: 2
Fore
SplineSet
1075 1579 m 1,0,-1
 1269 1579 l 1,1,-1
 788 688 l 1,2,-1
 1051 688 l 1,3,-1
 1051 584 l 1,4,-1
 755 584 l 1,5,-1
 755 488 l 1,6,-1
 1051 488 l 1,7,-1
 1051 389 l 1,8,-1
 755 389 l 1,9,-1
 755 0 l 1,10,-1
 565 0 l 1,11,-1
 565 389 l 1,12,-1
 263 389 l 1,13,-1
 263 488 l 1,14,-1
 565 488 l 1,15,-1
 565 584 l 1,16,-1
 263 584 l 1,17,-1
 263 688 l 1,18,-1
 524 688 l 1,19,-1
 41 1579 l 1,20,-1
 235 1579 l 1,21,-1
 655 788 l 1,22,-1
 1075 1579 l 1,0,-1
EndSplineSet
EndChar

StartChar: brokenbar
Encoding: 166 166 106
Width: 640
Flags: W
HStem: 0 21G<249 437> 1559 20G<249 437>
VStem: 249 188<0 690 889 1579>
LayerCount: 2
Fore
SplineSet
249 1579 m 1,0,-1
 437 1579 l 1,1,-1
 437 889 l 1,2,-1
 249 889 l 1,3,-1
 249 1579 l 1,0,-1
249 690 m 1,4,-1
 437 690 l 1,5,-1
 437 0 l 1,6,-1
 249 0 l 1,7,-1
 249 690 l 1,4,-1
EndSplineSet
EndChar

StartChar: section
Encoding: 167 167 107
Width: 1192
Flags: W
HStem: -99 149<390.18 784.68> 1424 145<432.84 804.041>
VStem: 225 154<648.926 857.024 1192.06 1376.31> 846 169<107.356 338.422 641.944 863.194>
DStem2: 559.5 1129.5 480 995 0.93733 -0.348442<-202.172 -27.6523 130.309 374.789> 438.5 637.5 665 405 0.9437 -0.330802<-70.0324 176.442 345.382 480.939>
LayerCount: 2
Fore
SplineSet
616 600 m 0,0,1
 658 600 658 600 700.5 605.5 c 128,-1,2
 743 611 743 611 777 627 c 128,-1,3
 811 643 811 643 832 673 c 128,-1,4
 853 703 853 703 853 751 c 256,5,6
 853 799 853 799 833 829.5 c 128,-1,7
 813 860 813 860 780 877 c 128,-1,8
 747 894 747 894 703.5 900 c 128,-1,9
 660 906 660 906 614 906 c 0,10,11
 561 906 561 906 518 898 c 128,-1,12
 475 890 475 890 444 871.5 c 128,-1,13
 413 853 413 853 396 824 c 128,-1,14
 379 795 379 795 379 753 c 0,15,16
 379 675 379 675 438.5 637.5 c 128,-1,17
 498 600 498 600 616 600 c 0,0,1
906 1316 m 1,18,19
 840 1367 840 1367 768.5 1395.5 c 128,-1,20
 697 1424 697 1424 612 1424 c 0,21,22
 491 1424 491 1424 436 1386.5 c 128,-1,23
 381 1349 381 1349 381 1271 c 0,24,25
 381 1236 381 1236 401.5 1212 c 128,-1,26
 422 1188 422 1188 462 1168.5 c 128,-1,27
 502 1149 502 1149 559.5 1129.5 c 128,-1,28
 617 1110 617 1110 692 1083 c 0,29,30
 763 1057 763 1057 822 1027 c 128,-1,31
 881 997 881 997 923.5 958.5 c 128,-1,32
 966 920 966 920 989.5 870.5 c 128,-1,33
 1013 821 1013 821 1013 756 c 0,34,35
 1013 690 1013 690 990 647.5 c 128,-1,36
 967 605 967 605 930.5 579 c 128,-1,37
 894 553 894 553 850 540.5 c 128,-1,38
 806 528 806 528 764 522 c 1,39,40
 836 496 836 496 884 465 c 128,-1,41
 932 434 932 434 961 394 c 128,-1,42
 990 354 990 354 1002.5 304 c 128,-1,43
 1015 254 1015 254 1015 191 c 0,44,45
 1015 132 1015 132 986 79.5 c 128,-1,46
 957 27 957 27 905 -13 c 128,-1,47
 853 -53 853 -53 781 -76 c 128,-1,48
 709 -99 709 -99 624 -99 c 0,49,50
 556 -99 556 -99 492.5 -85.5 c 128,-1,51
 429 -72 429 -72 377 -53.5 c 128,-1,52
 325 -35 325 -35 288 -14.5 c 128,-1,53
 251 6 251 6 235 20 c 1,54,-1
 296 158 l 1,55,56
 326 127 326 127 366.5 106 c 128,-1,57
 407 85 407 85 447.5 72.5 c 128,-1,58
 488 60 488 60 524 55 c 128,-1,59
 560 50 560 50 582 50 c 0,60,61
 711 50 711 50 778.5 90 c 128,-1,62
 846 130 846 130 846 223 c 0,63,64
 846 266 846 266 832.5 295 c 128,-1,65
 819 324 819 324 795 344 c 128,-1,66
 771 364 771 364 737.5 377.5 c 128,-1,67
 704 391 704 391 665 405 c 2,68,-1
 505 459 l 2,69,70
 449 478 449 478 398 500.5 c 128,-1,71
 347 523 347 523 308.5 556 c 128,-1,72
 270 589 270 589 247.5 635.5 c 128,-1,73
 225 682 225 682 225 750 c 0,74,75
 225 798 225 798 238 839.5 c 128,-1,76
 251 881 251 881 280.5 913 c 128,-1,77
 310 945 310 945 359 966 c 128,-1,78
 408 987 408 987 480 995 c 1,79,80
 403 1023 403 1023 354 1052 c 128,-1,81
 305 1081 305 1081 276 1116 c 128,-1,82
 247 1151 247 1151 236 1195 c 128,-1,83
 225 1239 225 1239 225 1296 c 0,84,85
 225 1368 225 1368 260.5 1419.5 c 128,-1,86
 296 1471 296 1471 351.5 1504.5 c 128,-1,87
 407 1538 407 1538 475.5 1553.5 c 128,-1,88
 544 1569 544 1569 609 1569 c 0,89,90
 653 1569 653 1569 706.5 1557.5 c 128,-1,91
 760 1546 760 1546 810.5 1528.5 c 128,-1,92
 861 1511 861 1511 902.5 1490.5 c 128,-1,93
 944 1470 944 1470 964 1452 c 1,94,-1
 906 1316 l 1,18,19
EndSplineSet
EndChar

StartChar: dieresis
Encoding: 168 168 108
Width: 952
Flags: W
HStem: 100 230<143.309 322.691 632.309 811.691>
VStem: 121 224<121.746 307.51> 610 224<121.746 307.51>
LayerCount: 2
Fore
SplineSet
121 215 m 256,0,1
 121 238 121 238 129 259 c 128,-1,2
 137 280 137 280 152 295.5 c 128,-1,3
 167 311 167 311 187.5 321 c 128,-1,4
 208 331 208 331 233 330 c 0,5,6
 258 330 258 330 278.5 320.5 c 128,-1,7
 299 311 299 311 314 295.5 c 128,-1,8
 329 280 329 280 337 259 c 128,-1,9
 345 238 345 238 345 215 c 256,10,11
 345 192 345 192 337 171 c 128,-1,12
 329 150 329 150 314 134 c 128,-1,13
 299 118 299 118 278.5 109 c 128,-1,14
 258 100 258 100 233 100 c 256,15,16
 208 100 208 100 187.5 109 c 128,-1,17
 167 118 167 118 152 134 c 128,-1,18
 137 150 137 150 129 171 c 128,-1,19
 121 192 121 192 121 215 c 256,0,1
610 215 m 256,20,21
 610 238 610 238 618 259 c 128,-1,22
 626 280 626 280 641 295.5 c 128,-1,23
 656 311 656 311 676.5 321 c 128,-1,24
 697 331 697 331 722 330 c 0,25,26
 747 330 747 330 767.5 320.5 c 128,-1,27
 788 311 788 311 803 295.5 c 128,-1,28
 818 280 818 280 826 259 c 128,-1,29
 834 238 834 238 834 215 c 256,30,31
 834 192 834 192 826 171 c 128,-1,32
 818 150 818 150 803 134 c 128,-1,33
 788 118 788 118 767.5 109 c 128,-1,34
 747 100 747 100 722 100 c 256,35,36
 697 100 697 100 676.5 109 c 128,-1,37
 656 118 656 118 641 134 c 128,-1,38
 626 150 626 150 618 171 c 128,-1,39
 610 192 610 192 610 215 c 256,20,21
EndSplineSet
EndChar

StartChar: copyright
Encoding: 169 169 109
Width: 2101
Flags: W
HStem: -23 124<774.603 1303.92> 336 128<843.462 1281.06> 1198 128<842.307 1281.06> 1562 125<794.206 1281.53>
VStem: 164 148<564.852 1085.34> 554 162<596.172 1065.7> 1766 148<564.912 1083.71>
LayerCount: 2
Fore
SplineSet
1039 101 m 256,0,1
 1202 101 1202 101 1336 158 c 128,-1,2
 1470 215 1470 215 1565.5 313.5 c 128,-1,3
 1661 412 1661 412 1713.5 544.5 c 128,-1,4
 1766 677 1766 677 1766 829 c 0,5,6
 1766 942 1766 942 1736 1040.5 c 128,-1,7
 1706 1139 1706 1139 1654.5 1220.5 c 128,-1,8
 1603 1302 1603 1302 1532.5 1365.5 c 128,-1,9
 1462 1429 1462 1429 1381.5 1472.5 c 128,-1,10
 1301 1516 1301 1516 1213.5 1539 c 128,-1,11
 1126 1562 1126 1562 1039 1562 c 0,12,13
 951 1562 951 1562 863 1539 c 128,-1,14
 775 1516 775 1516 694 1472 c 128,-1,15
 613 1428 613 1428 543.5 1364.5 c 128,-1,16
 474 1301 474 1301 422.5 1219.5 c 128,-1,17
 371 1138 371 1138 341.5 1040 c 128,-1,18
 312 942 312 942 312 829 c 0,19,20
 312 677 312 677 364.5 544.5 c 128,-1,21
 417 412 417 412 512.5 313.5 c 128,-1,22
 608 215 608 215 742 158 c 128,-1,23
 876 101 876 101 1039 101 c 256,0,1
716 831 m 256,24,25
 716 724 716 724 737.5 653 c 128,-1,26
 759 582 759 582 802 540 c 128,-1,27
 845 498 845 498 910 481 c 128,-1,28
 975 464 975 464 1062 464 c 0,29,30
 1205 464 1205 464 1356 540 c 1,31,-1
 1356 414 l 1,32,33
 1203 336 1203 336 1076 336 c 0,34,35
 920 336 920 336 818.5 378 c 128,-1,36
 717 420 717 420 658.5 489 c 128,-1,37
 600 558 600 558 577 647 c 128,-1,38
 554 736 554 736 554 831 c 0,39,40
 554 894 554 894 563.5 955 c 128,-1,41
 573 1016 573 1016 596.5 1071 c 128,-1,42
 620 1126 620 1126 658.5 1173 c 128,-1,43
 697 1220 697 1220 755 1254 c 128,-1,44
 813 1288 813 1288 892 1307 c 128,-1,45
 971 1326 971 1326 1076 1326 c 0,46,47
 1203 1326 1203 1326 1356 1248 c 1,48,-1
 1356 1122 l 1,49,50
 1205 1198 1205 1198 1062 1198 c 0,51,52
 975 1198 975 1198 910 1181 c 128,-1,53
 845 1164 845 1164 802 1122 c 128,-1,54
 759 1080 759 1080 737.5 1009 c 128,-1,55
 716 938 716 938 716 831 c 256,24,25
1039 -23 m 0,56,57
 928 -23 928 -23 820 4 c 128,-1,58
 712 31 712 31 614.5 82 c 128,-1,59
 517 133 517 133 434.5 207.5 c 128,-1,60
 352 282 352 282 292 377 c 128,-1,61
 232 472 232 472 198 585.5 c 128,-1,62
 164 699 164 699 164 830 c 256,63,64
 164 961 164 961 199 1075 c 128,-1,65
 234 1189 234 1189 296 1284 c 128,-1,66
 358 1379 358 1379 442 1454 c 128,-1,67
 526 1529 526 1529 623 1581 c 128,-1,68
 720 1633 720 1633 826 1660 c 128,-1,69
 932 1687 932 1687 1039 1687 c 256,70,71
 1146 1687 1146 1687 1252.5 1659.5 c 128,-1,72
 1359 1632 1359 1632 1456.5 1580 c 128,-1,73
 1554 1528 1554 1528 1637.5 1453 c 128,-1,74
 1721 1378 1721 1378 1782.5 1283 c 128,-1,75
 1844 1188 1844 1188 1879 1074 c 128,-1,76
 1914 960 1914 960 1914 830 c 0,77,78
 1914 702 1914 702 1881 589 c 128,-1,79
 1848 476 1848 476 1788.5 381.5 c 128,-1,80
 1729 287 1729 287 1647 211.5 c 128,-1,81
 1565 136 1565 136 1468 84 c 128,-1,82
 1371 32 1371 32 1262 4.5 c 128,-1,83
 1153 -23 1153 -23 1039 -23 c 0,56,57
EndSplineSet
EndChar

StartChar: ordfeminine
Encoding: 170 170 110
Width: 1186
Flags: W
HStem: 446 129<270 954> 668 113<407.339 701.412> 1158 100<435.062 797.408> 1513 125<375.453 752.234>
VStem: 206 161<821.783 1093.22> 799 161<855.555 1147.53 1218 1465.58> 844 116<686 761.397>
LayerCount: 2
Fore
SplineSet
817 828 m 2,0,1
 816 828 816 828 801 803 c 128,-1,2
 786 778 786 778 752 748 c 128,-1,3
 718 718 718 718 662 693 c 128,-1,4
 606 668 606 668 523 668 c 0,5,6
 449 668 449 668 390.5 687.5 c 128,-1,7
 332 707 332 707 291 744 c 128,-1,8
 250 781 250 781 228 835.5 c 128,-1,9
 206 890 206 890 206 960 c 0,10,11
 206 1032 206 1032 232 1087.5 c 128,-1,12
 258 1143 258 1143 305.5 1181 c 128,-1,13
 353 1219 353 1219 419 1238.5 c 128,-1,14
 485 1258 485 1258 565 1258 c 0,15,16
 608 1258 608 1258 649.5 1253 c 128,-1,17
 691 1248 691 1248 723.5 1241 c 128,-1,18
 756 1234 756 1234 776.5 1227.5 c 128,-1,19
 797 1221 797 1221 799 1218 c 1,20,-1
 799 1276 l 2,21,22
 799 1334 799 1334 792.5 1378.5 c 128,-1,23
 786 1423 786 1423 765.5 1453 c 128,-1,24
 745 1483 745 1483 707.5 1498 c 128,-1,25
 670 1513 670 1513 607 1513 c 0,26,27
 548 1513 548 1513 495.5 1502 c 128,-1,28
 443 1491 443 1491 403.5 1478 c 128,-1,29
 364 1465 364 1465 340.5 1454 c 128,-1,30
 317 1443 317 1443 316 1443 c 2,31,-1
 263 1552 l 2,32,33
 264 1552 264 1552 290 1565.5 c 128,-1,34
 316 1579 316 1579 361 1595 c 128,-1,35
 406 1611 406 1611 467 1624.5 c 128,-1,36
 528 1638 528 1638 599 1638 c 0,37,38
 701 1638 701 1638 770 1616 c 128,-1,39
 839 1594 839 1594 881.5 1545.5 c 128,-1,40
 924 1497 924 1497 942 1420.5 c 128,-1,41
 960 1344 960 1344 960 1235 c 2,42,-1
 960 686 l 1,43,-1
 844 686 l 1,44,-1
 817 828 l 2,0,1
799 1141 m 1,45,46
 748 1149 748 1149 704 1153.5 c 128,-1,47
 660 1158 660 1158 623 1158 c 0,48,49
 367 1158 367 1158 367 971 c 0,50,51
 367 918 367 918 377 882 c 128,-1,52
 387 846 387 846 409.5 823.5 c 128,-1,53
 432 801 432 801 469 791 c 128,-1,54
 506 781 506 781 561 781 c 256,55,56
 616 781 616 781 660 799.5 c 128,-1,57
 704 818 704 818 735 840.5 c 128,-1,58
 766 863 766 863 782.5 882 c 128,-1,59
 799 901 799 901 799 903 c 2,60,-1
 799 1141 l 1,45,46
270 575 m 1,61,-1
 954 575 l 1,62,-1
 954 446 l 1,63,-1
 270 446 l 1,64,-1
 270 575 l 1,61,-1
EndSplineSet
EndChar

StartChar: guillemotleft
Encoding: 171 171 111
Width: 1533
Flags: W
HStem: 99 207<551 758 1159 1366> 842 207<551 758 1159 1366>
DStem2: 150 666 322 577 0.846117 0.532998<98.0953 608.247> 322 577 150 481 0.846744 -0.532<0 513.353> 758 666 929 577 0.846117 0.532998<97.2491 608.247> 929 577 758 481 0.846744 -0.532<0 514.199>
LayerCount: 2
Fore
SplineSet
929 577 m 1,0,-1
 1366 306 l 1,1,-1
 1366 99 l 1,2,-1
 758 481 l 1,3,-1
 758 666 l 1,4,-1
 1366 1049 l 1,5,-1
 1366 842 l 1,6,-1
 929 577 l 1,0,-1
322 577 m 1,7,-1
 758 306 l 1,8,-1
 758 99 l 1,9,-1
 150 481 l 1,10,-1
 150 666 l 1,11,-1
 758 1049 l 1,12,-1
 758 842 l 1,13,-1
 322 577 l 1,7,-1
EndSplineSet
EndChar

StartChar: logicalnot
Encoding: 172 172 112
Width: 1724
Flags: W
HStem: 1018 151<94 1272>
VStem: 1272 176<338 1018>
LayerCount: 2
Fore
SplineSet
94 1018 m 1,0,-1
 94 1169 l 1,1,-1
 1448 1169 l 1,2,-1
 1448 338 l 1,3,-1
 1272 338 l 1,4,-1
 1272 1018 l 1,5,-1
 94 1018 l 1,0,-1
EndSplineSet
EndChar

StartChar: uni00AD
Encoding: 173 173 113
Width: 864
Flags: W
HStem: 508 131<154 622>
VStem: 154 468<508 639>
LayerCount: 2
Fore
SplineSet
154 508 m 1,0,-1
 154 639 l 1,1,-1
 622 639 l 1,2,-1
 622 508 l 1,3,-1
 154 508 l 1,0,-1
EndSplineSet
EndChar

StartChar: registered
Encoding: 174 174 114
Width: 1334
Flags: W
HStem: 542 99<480.17 896.939> 1068 82<617 652> 1326 82<617 805.219> 1572 102<483.874 899.265>
VStem: 102 122<898.113 1311.96> 511 106<807 1068 1150 1326> 816 104<1164.36 1309.76> 1159 122<901.675 1310.44>
DStem2: 754 1086 652 1068 0.517742 -0.855537<0 279.35>
LayerCount: 2
Fore
SplineSet
102 1108 m 0,0,1
 102 1224 102 1224 147 1327 c 128,-1,2
 192 1430 192 1430 271 1507 c 128,-1,3
 350 1584 350 1584 457.5 1629 c 128,-1,4
 565 1674 565 1674 691 1674 c 0,5,6
 815 1674 815 1674 922.5 1630 c 128,-1,7
 1030 1586 1030 1586 1109.5 1509.5 c 128,-1,8
 1189 1433 1189 1433 1235 1329.5 c 128,-1,9
 1281 1226 1281 1226 1281 1108 c 0,10,11
 1281 989 1281 989 1235.5 886 c 128,-1,12
 1190 783 1190 783 1110.5 706.5 c 128,-1,13
 1031 630 1031 630 923 586 c 128,-1,14
 815 542 815 542 691 542 c 0,15,16
 565 542 565 542 457 586.5 c 128,-1,17
 349 631 349 631 270 708 c 128,-1,18
 191 785 191 785 146.5 888 c 128,-1,19
 102 991 102 991 102 1108 c 0,0,1
690 641 m 0,20,21
 793 641 793 641 879.5 677.5 c 128,-1,22
 966 714 966 714 1028 777 c 128,-1,23
 1090 840 1090 840 1124.5 924.5 c 128,-1,24
 1159 1009 1159 1009 1159 1106 c 0,25,26
 1159 1205 1159 1205 1124 1290 c 128,-1,27
 1089 1375 1089 1375 1027 1438 c 128,-1,28
 965 1501 965 1501 878.5 1536.5 c 128,-1,29
 792 1572 792 1572 690 1572 c 0,30,31
 587 1572 587 1572 501.5 1536 c 128,-1,32
 416 1500 416 1500 354.5 1437.5 c 128,-1,33
 293 1375 293 1375 258.5 1289.5 c 128,-1,34
 224 1204 224 1204 224 1105 c 0,35,36
 224 1007 224 1007 258 922 c 128,-1,37
 292 837 292 837 353.5 774.5 c 128,-1,38
 415 712 415 712 500.5 676.5 c 128,-1,39
 586 641 586 641 690 641 c 0,20,21
816 1244 m 0,40,41
 816 1266 816 1266 808 1281.5 c 128,-1,42
 800 1297 800 1297 778 1307 c 128,-1,43
 756 1317 756 1317 717 1321.5 c 128,-1,44
 678 1326 678 1326 617 1326 c 1,45,-1
 617 1150 l 1,46,47
 638 1150 638 1150 659 1150 c 128,-1,48
 680 1150 680 1150 701 1149 c 1,49,50
 759 1149 759 1149 787.5 1168 c 128,-1,51
 816 1187 816 1187 816 1244 c 0,40,41
816 797 m 1,52,-1
 652 1068 l 1,53,-1
 617 1068 l 1,54,-1
 617 807 l 1,55,-1
 511 807 l 1,56,-1
 511 1408 l 1,57,-1
 649 1408 l 2,58,59
 700 1408 700 1408 748.5 1401.5 c 128,-1,60
 797 1395 797 1395 835.5 1377 c 128,-1,61
 874 1359 874 1359 897 1327 c 128,-1,62
 920 1295 920 1295 920 1244 c 0,63,64
 920 1208 920 1208 912 1179.5 c 128,-1,65
 904 1151 904 1151 885 1131 c 128,-1,66
 866 1111 866 1111 834 1099.5 c 128,-1,67
 802 1088 802 1088 754 1086 c 1,68,-1
 909 847 l 1,69,-1
 816 797 l 1,52,-1
EndSplineSet
EndChar

StartChar: macron
Encoding: 175 175 115
Width: 1003
Flags: W
HStem: 98 117<98 780>
LayerCount: 2
Fore
SplineSet
98 215 m 1,0,-1
 780 215 l 1,1,-1
 780 98 l 1,2,-1
 98 98 l 1,3,-1
 98 215 l 1,0,-1
EndSplineSet
EndChar

StartChar: degree
Encoding: 176 176 116
Width: 780
Flags: W
HStem: 660 90<281.856 487.865> 1048 91<280.54 488.325>
VStem: 143 97<791.08 1007.41> 526 97<787.917 1010.28>
LayerCount: 2
Fore
SplineSet
143 899 m 0,0,1
 143 951 143 951 161 995 c 128,-1,2
 179 1039 179 1039 211.5 1071 c 128,-1,3
 244 1103 244 1103 289 1121 c 128,-1,4
 334 1139 334 1139 387 1139 c 0,5,6
 439 1139 439 1139 482.5 1121 c 128,-1,7
 526 1103 526 1103 557 1070.5 c 128,-1,8
 588 1038 588 1038 605.5 994 c 128,-1,9
 623 950 623 950 623 899 c 256,10,11
 623 848 623 848 606 804 c 128,-1,12
 589 760 589 760 558 728 c 128,-1,13
 527 696 527 696 483.5 678 c 128,-1,14
 440 660 440 660 387 660 c 0,15,16
 333 660 333 660 288 678.5 c 128,-1,17
 243 697 243 697 210.5 729 c 128,-1,18
 178 761 178 761 160.5 804.5 c 128,-1,19
 143 848 143 848 143 899 c 0,0,1
385 1048 m 0,20,21
 353 1048 353 1048 326.5 1036 c 128,-1,22
 300 1024 300 1024 281 1004 c 128,-1,23
 262 984 262 984 251 956.5 c 128,-1,24
 240 929 240 929 240 899 c 0,25,26
 240 868 240 868 251.5 841 c 128,-1,27
 263 814 263 814 282.5 793.5 c 128,-1,28
 302 773 302 773 328.5 761.5 c 128,-1,29
 355 750 355 750 385 750 c 0,30,31
 416 750 416 750 442 761.5 c 128,-1,32
 468 773 468 773 487 793.5 c 128,-1,33
 506 814 506 814 516 841 c 128,-1,34
 526 868 526 868 526 899 c 256,35,36
 526 930 526 930 516 957.5 c 128,-1,37
 506 985 506 985 487 1005 c 128,-1,38
 468 1025 468 1025 442 1036.5 c 128,-1,39
 416 1048 416 1048 385 1048 c 0,20,21
EndSplineSet
EndChar

StartChar: plusminus
Encoding: 177 177 117
Width: 1143
Flags: W
HStem: -56 139<240 941> 577 133<206 519 660 974>
VStem: 519 141<233 577 710 1054>
LayerCount: 2
Fore
SplineSet
240 -56 m 1,0,-1
 240 83 l 1,1,-1
 941 83 l 1,2,-1
 941 -56 l 1,3,-1
 240 -56 l 1,0,-1
660 577 m 1,4,-1
 660 233 l 1,5,-1
 519 233 l 1,6,-1
 519 577 l 1,7,-1
 206 577 l 1,8,-1
 206 710 l 1,9,-1
 519 710 l 1,10,-1
 519 1054 l 1,11,-1
 660 1054 l 1,12,-1
 660 710 l 1,13,-1
 974 710 l 1,14,-1
 974 577 l 1,15,-1
 660 577 l 1,4,-1
EndSplineSet
EndChar

StartChar: uni00B2
Encoding: 178 178 118
Width: 1126
Flags: W
HStem: 668 152<485 891> 1500 138<295.062 697.491>
VStem: 747 172<1223.75 1459.24>
DStem2: 354 1612 371 1474 0.978716 0.205218<-86.3479 183.034> 524 1045 485 820 0.744503 0.667619<-179.25 329.827>
LayerCount: 2
Fore
SplineSet
253 805 m 1,0,-1
 524 1045 l 2,1,2
 592 1105 592 1105 635.5 1148 c 128,-1,3
 679 1191 679 1191 703.5 1225 c 128,-1,4
 728 1259 728 1259 737.5 1289 c 128,-1,5
 747 1319 747 1319 747 1354 c 0,6,7
 747 1424 747 1424 699 1462 c 128,-1,8
 651 1500 651 1500 566 1500 c 0,9,10
 518 1500 518 1500 466.5 1492 c 128,-1,11
 415 1484 415 1484 371 1474 c 0,12,13
 320 1463 320 1463 270 1448 c 1,14,-1
 270 1586 l 1,15,16
 306 1601 306 1601 354 1612 c 0,17,18
 395 1622 395 1622 451 1630 c 128,-1,19
 507 1638 507 1638 576 1638 c 0,20,21
 676 1638 676 1638 742 1610 c 128,-1,22
 808 1582 808 1582 847.5 1540 c 128,-1,23
 887 1498 887 1498 903 1448.5 c 128,-1,24
 919 1399 919 1399 919 1357 c 0,25,26
 919 1309 919 1309 907 1266.5 c 128,-1,27
 895 1224 895 1224 867 1180.5 c 128,-1,28
 839 1137 839 1137 792.5 1089 c 128,-1,29
 746 1041 746 1041 676 982 c 2,30,-1
 485 820 l 1,31,-1
 891 820 l 1,32,-1
 891 668 l 1,33,-1
 253 668 l 1,34,-1
 253 805 l 1,0,-1
EndSplineSet
EndChar

StartChar: uni00B3
Encoding: 179 179 119
Width: 1208
Flags: W
HStem: 540 132<414.711 782.79> 1142 65<679 811> 1541 136<402.424 775.782>
VStem: 832 154<1274.25 1491.54> 851 166<737.132 983.917>
DStem2: 352.5 1622.5 426.5 1505.5 0.945934 0.324359<-23.7642 214.393>
LayerCount: 2
Fore
SplineSet
351 745 m 1,0,1
 376 733 376 733 406.5 720 c 128,-1,2
 437 707 437 707 472.5 696.5 c 128,-1,3
 508 686 508 686 548 679 c 128,-1,4
 588 672 588 672 631 672 c 0,5,6
 679 672 679 672 719.5 685 c 128,-1,7
 760 698 760 698 789.5 721.5 c 128,-1,8
 819 745 819 745 835 778.5 c 128,-1,9
 851 812 851 812 851 853 c 0,10,11
 851 947 851 947 788 1002 c 128,-1,12
 725 1057 725 1057 589 1072 c 1,13,-1
 589 1207 l 1,14,15
 635 1207 635 1207 679 1217.5 c 128,-1,16
 723 1228 723 1228 757 1249.5 c 128,-1,17
 791 1271 791 1271 811.5 1304.5 c 128,-1,18
 832 1338 832 1338 832 1383 c 0,19,20
 832 1458 832 1458 777.5 1499.5 c 128,-1,21
 723 1541 723 1541 608 1541 c 0,22,23
 579 1541 579 1541 548 1536.5 c 128,-1,24
 517 1532 517 1532 486 1524 c 128,-1,25
 455 1516 455 1516 426.5 1505.5 c 128,-1,26
 398 1495 398 1495 374 1484 c 1,27,-1
 327 1611 l 1,28,29
 329 1612 329 1612 352.5 1622.5 c 128,-1,30
 376 1633 376 1633 415 1645 c 128,-1,31
 454 1657 454 1657 505 1667 c 128,-1,32
 556 1677 556 1677 613 1677 c 0,33,34
 650 1677 650 1677 692 1671.5 c 128,-1,35
 734 1666 734 1666 775.5 1653.5 c 128,-1,36
 817 1641 817 1641 855 1620 c 128,-1,37
 893 1599 893 1599 922 1567.5 c 128,-1,38
 951 1536 951 1536 968.5 1493 c 128,-1,39
 986 1450 986 1450 986 1394 c 0,40,41
 986 1324 986 1324 958.5 1276 c 128,-1,42
 931 1228 931 1228 892 1198 c 128,-1,43
 853 1168 853 1168 811 1155 c 128,-1,44
 769 1142 769 1142 741 1142 c 1,45,46
 766 1137 766 1137 796.5 1127.5 c 128,-1,47
 827 1118 827 1118 857.5 1102.5 c 128,-1,48
 888 1087 888 1087 917 1063.5 c 128,-1,49
 946 1040 946 1040 968 1007.5 c 128,-1,50
 990 975 990 975 1003.5 932.5 c 128,-1,51
 1017 890 1017 890 1017 835 c 0,52,53
 1017 758 1017 758 982 702 c 128,-1,54
 947 646 947 646 891 610 c 128,-1,55
 835 574 835 574 765.5 557 c 128,-1,56
 696 540 696 540 628 540 c 0,57,58
 537 540 537 540 455.5 559 c 128,-1,59
 374 578 374 578 300 618 c 1,60,-1
 351 745 l 1,0,1
EndSplineSet
EndChar

StartChar: acute
Encoding: 180 180 120
Width: 1097
Flags: W
HStem: 101 637
VStem: 489 391
LayerCount: 2
Fore
SplineSet
489 127 m 1,0,-1
 648 738 l 1,1,-1
 880 647 l 1,2,-1
 546 101 l 1,3,-1
 489 127 l 1,0,-1
EndSplineSet
EndChar

StartChar: uni00B5
Encoding: 181 181 121
Width: 1320
Flags: W
HStem: -20 143<457.493 805.168> 1149 20G<185 359 958 1166>
VStem: 185 174<-291 113 229.619 1169> 958 208<232.308 1169> 1020 146<16 107.989>
LayerCount: 2
Fore
SplineSet
185 1169 m 1,0,-1
 359 1169 l 1,1,-1
 359 442 l 2,2,3
 359 123 359 123 611 123 c 0,4,5
 681 123 681 123 740 142 c 128,-1,6
 799 161 799 161 844.5 186.5 c 128,-1,7
 890 212 890 212 919 237 c 128,-1,8
 948 262 948 262 958 274 c 1,9,-1
 958 1169 l 1,10,-1
 1166 1169 l 1,11,-1
 1166 16 l 1,12,-1
 1020 16 l 1,13,-1
 996 170 l 1,14,15
 825 -20 825 -20 599 -20 c 0,16,17
 553 -20 553 -20 515 -6.5 c 128,-1,18
 477 7 477 7 447 27.5 c 128,-1,19
 417 48 417 48 395 71 c 128,-1,20
 373 94 373 94 359 113 c 1,21,-1
 359 -291 l 1,22,-1
 185 -291 l 1,23,-1
 185 1169 l 1,0,-1
EndSplineSet
EndChar

StartChar: paragraph
Encoding: 182 182 122
Width: 1314
Flags: W
HStem: 0 21G<617 807 942 1128> 1436 142<807 942>
VStem: 128 679<1076.32 1421.12> 617 190<0 905> 942 186<0 1436>
LayerCount: 2
Fore
SplineSet
1128 0 m 1,0,-1
 942 0 l 1,1,-1
 942 1436 l 1,2,-1
 807 1436 l 1,3,-1
 807 0 l 1,4,-1
 617 0 l 1,5,-1
 617 905 l 1,6,7
 523 905 523 905 435 921 c 128,-1,8
 347 937 347 937 278.5 976.5 c 128,-1,9
 210 1016 210 1016 169 1082.5 c 128,-1,10
 128 1149 128 1149 128 1250 c 0,11,12
 128 1321 128 1321 148.5 1373 c 128,-1,13
 169 1425 169 1425 205.5 1461.5 c 128,-1,14
 242 1498 242 1498 292 1521 c 128,-1,15
 342 1544 342 1544 401.5 1556.5 c 128,-1,16
 461 1569 461 1569 527 1573.5 c 128,-1,17
 593 1578 593 1578 662 1578 c 2,18,-1
 1128 1578 l 1,19,-1
 1128 0 l 1,0,-1
EndSplineSet
EndChar

StartChar: periodcentered
Encoding: 183 183 123
Width: 518
Flags: W
HStem: 535 230<155.309 334.691>
VStem: 133 224<556.746 742.51>
LayerCount: 2
Fore
SplineSet
133 650 m 256,0,1
 133 673 133 673 141 694 c 128,-1,2
 149 715 149 715 164 730.5 c 128,-1,3
 179 746 179 746 199.5 755.5 c 128,-1,4
 220 765 220 765 245 765 c 256,5,6
 270 765 270 765 290.5 755.5 c 128,-1,7
 311 746 311 746 326 730.5 c 128,-1,8
 341 715 341 715 349 694 c 128,-1,9
 357 673 357 673 357 650 c 256,10,11
 357 627 357 627 349 606 c 128,-1,12
 341 585 341 585 326 569 c 128,-1,13
 311 553 311 553 290.5 544 c 128,-1,14
 270 535 270 535 245 535 c 256,15,16
 220 535 220 535 199.5 544 c 128,-1,17
 179 553 179 553 164 569 c 128,-1,18
 149 585 149 585 141 606 c 128,-1,19
 133 627 133 627 133 650 c 256,0,1
EndSplineSet
EndChar

StartChar: cedilla
Encoding: 184 184 124
Width: 575
Flags: W
HStem: -578 114<197.221 480.893> -443 20G<196 196> -186 88<367 457.793>
VStem: 246 121<-98 20> 499 133<-445.94 -227.056>
LayerCount: 2
Fore
SplineSet
196 -423 m 1,0,1
 196 -423 196 -423 218 -430 c 0,2,3
 239 -436 239 -436 266.5 -443.5 c 128,-1,4
 294 -451 294 -451 321 -457.5 c 128,-1,5
 348 -464 348 -464 360 -464 c 0,6,7
 394 -464 394 -464 420 -459.5 c 128,-1,8
 446 -455 446 -455 463.5 -440.5 c 128,-1,9
 481 -426 481 -426 490 -399 c 128,-1,10
 499 -372 499 -372 499 -328 c 0,11,12
 499 -289 499 -289 484.5 -261.5 c 128,-1,13
 470 -234 470 -234 439.5 -217.5 c 128,-1,14
 409 -201 409 -201 361 -193.5 c 128,-1,15
 313 -186 313 -186 246 -186 c 1,16,-1
 246 20 l 1,17,-1
 367 20 l 1,18,-1
 367 -98 l 1,19,20
 427 -98 427 -98 476 -111 c 128,-1,21
 525 -124 525 -124 559.5 -152 c 128,-1,22
 594 -180 594 -180 613 -223 c 128,-1,23
 632 -266 632 -266 632 -327 c 0,24,25
 632 -447 632 -447 571.5 -512.5 c 128,-1,26
 511 -578 511 -578 380 -578 c 0,27,28
 332 -578 332 -578 283.5 -566 c 128,-1,29
 235 -554 235 -554 196 -540 c 1,30,-1
 196 -423 l 1,0,1
EndSplineSet
EndChar

StartChar: uni00B9
Encoding: 185 185 125
Width: 740
Flags: W
VStem: 327 169<478 1304>
DStem2: 119 1345 156 1232 0.928206 0.372066<0 177.812>
LayerCount: 2
Fore
SplineSet
327 1304 m 1,0,-1
 156 1232 l 1,1,-1
 119 1345 l 1,2,-1
 356 1440 l 1,3,-1
 496 1414 l 1,4,-1
 496 478 l 1,5,-1
 327 478 l 1,6,-1
 327 1304 l 1,0,-1
EndSplineSet
EndChar

StartChar: ordmasculine
Encoding: 186 186 126
Width: 1276
Flags: W
HStem: 446 129<300 984> 670 127<488.239 788.38> 1512 126<487.766 787.675>
VStem: 214 157<928.244 1379.51> 905 158<927.281 1379.01>
LayerCount: 2
Fore
SplineSet
638 670 m 0,0,1
 530 670 530 670 450.5 707.5 c 128,-1,2
 371 745 371 745 318.5 810 c 128,-1,3
 266 875 266 875 240 963 c 128,-1,4
 214 1051 214 1051 214 1152 c 0,5,6
 214 1251 214 1251 239.5 1339 c 128,-1,7
 265 1427 265 1427 317.5 1493.5 c 128,-1,8
 370 1560 370 1560 449.5 1599 c 128,-1,9
 529 1638 529 1638 638 1638 c 256,10,11
 747 1638 747 1638 827 1599 c 128,-1,12
 907 1560 907 1560 959.5 1493.5 c 128,-1,13
 1012 1427 1012 1427 1037.5 1339 c 128,-1,14
 1063 1251 1063 1251 1063 1152 c 0,15,16
 1063 1052 1063 1052 1037.5 964.5 c 128,-1,17
 1012 877 1012 877 959.5 811.5 c 128,-1,18
 907 746 907 746 827 708 c 128,-1,19
 747 670 747 670 638 670 c 0,0,1
638 797 m 256,20,21
 710 797 710 797 760.5 823.5 c 128,-1,22
 811 850 811 850 843 897.5 c 128,-1,23
 875 945 875 945 890 1010.5 c 128,-1,24
 905 1076 905 1076 905 1154 c 0,25,26
 905 1230 905 1230 890 1295.5 c 128,-1,27
 875 1361 875 1361 843 1409 c 128,-1,28
 811 1457 811 1457 760.5 1484.5 c 128,-1,29
 710 1512 710 1512 638 1512 c 256,30,31
 566 1512 566 1512 515.5 1485 c 128,-1,32
 465 1458 465 1458 433 1410 c 128,-1,33
 401 1362 401 1362 386 1296.5 c 128,-1,34
 371 1231 371 1231 371 1154 c 256,35,36
 371 1077 371 1077 386 1011.5 c 128,-1,37
 401 946 401 946 433 898.5 c 128,-1,38
 465 851 465 851 515.5 824 c 128,-1,39
 566 797 566 797 638 797 c 256,20,21
300 575 m 1,40,-1
 984 575 l 1,41,-1
 984 446 l 1,42,-1
 300 446 l 1,43,-1
 300 575 l 1,40,-1
EndSplineSet
EndChar

StartChar: guillemotright
Encoding: 187 187 127
Width: 1533
Flags: W
HStem: 99 207<167 374 774 981> 842 207<167 374 774 981>
DStem2: 167 306 167 99 0.847138 0.531374<0 522.673> 774 306 774 99 0.847138 0.531374<0 522.673>
LayerCount: 2
Fore
SplineSet
167 1049 m 1,0,-1
 776 666 l 1,1,-1
 776 481 l 1,2,-1
 167 99 l 1,3,-1
 167 306 l 1,4,-1
 614 577 l 1,5,-1
 167 842 l 1,6,-1
 167 1049 l 1,0,-1
774 1049 m 1,7,-1
 1383 666 l 1,8,-1
 1383 481 l 1,9,-1
 774 99 l 1,10,-1
 774 306 l 1,11,-1
 1221 577 l 1,12,-1
 774 842 l 1,13,-1
 774 1049 l 1,7,-1
EndSplineSet
EndChar

StartChar: onequarter
Encoding: 188 188 128
Width: 1816
Flags: W
HStem: 34 110<997 1385 1530 1681>
VStem: 345 160<568 1413> 1394 136<-227 34 145 697>
DStem2: 233 -30 353 -123 0.598068 0.801445<0 1737.84> 375 1529 345 1413 0.928746 0.370718<-255.444 -70.8656> 838 144 997 144 0.575241 0.817984<91.4633 772.179>
LayerCount: 2
Fore
SplineSet
1394 144 m 1,0,-1
 1394 697 l 1,1,-1
 997 144 l 1,2,-1
 1394 144 l 1,0,-1
1530 915 m 1,3,-1
 1530 145 l 1,4,-1
 1681 145 l 1,5,-1
 1681 34 l 1,6,-1
 1530 34 l 1,7,-1
 1530 -227 l 1,8,-1
 1385 -250 l 1,9,-1
 1385 34 l 1,10,-1
 860 34 l 1,11,-1
 838 144 l 1,12,-1
 1402 946 l 1,13,-1
 1530 915 l 1,3,-1
1272 1365 m 1,14,-1
 1394 1272 l 1,15,-1
 353 -123 l 1,16,-1
 233 -30 l 1,17,-1
 1272 1365 l 1,14,-1
345 1413 m 1,18,-1
 175 1341 l 1,19,-1
 137 1434 l 1,20,-1
 375 1529 l 1,21,-1
 505 1503 l 1,22,-1
 505 568 l 1,23,-1
 345 568 l 1,24,-1
 345 1413 l 1,18,-1
EndSplineSet
EndChar

StartChar: onehalf
Encoding: 189 189 129
Width: 2068
Flags: W
HStem: -172 152<1435 1841> 655 143<1247.21 1650.12>
VStem: 401 160<568 1413> 1697 172<383.75 613.124>
DStem2: 263 -30 401 -123 0.597329 0.801996<7.84577 1737.7> 431 1529 401 1413 0.928746 0.370718<-255.444 -70.8656> 1338.5 85 1435 -20 0.744019 0.668158<1.64122 513.733> 1341.5 781.5 1264.5 614.5 0.971566 0.236768<-125.977 130.719>
LayerCount: 2
Fore
SplineSet
1697 514 m 0,0,1
 1697 584 1697 584 1645 619.5 c 128,-1,2
 1593 655 1593 655 1508 655 c 0,3,4
 1472 655 1472 655 1426.5 648 c 128,-1,5
 1381 641 1381 641 1339 632 c 128,-1,6
 1297 623 1297 623 1264.5 614.5 c 128,-1,7
 1232 606 1232 606 1220 603 c 1,8,-1
 1220 748 l 1,9,10
 1268 765 1268 765 1341.5 781.5 c 128,-1,11
 1415 798 1415 798 1526 798 c 0,12,13
 1626 798 1626 798 1692 770 c 128,-1,14
 1758 742 1758 742 1797.5 700 c 128,-1,15
 1837 658 1837 658 1853 608.5 c 128,-1,16
 1869 559 1869 559 1869 517 c 0,17,18
 1869 469 1869 469 1857 426.5 c 128,-1,19
 1845 384 1845 384 1817 340.5 c 128,-1,20
 1789 297 1789 297 1742.5 249 c 128,-1,21
 1696 201 1696 201 1626 142 c 2,22,-1
 1435 -20 l 1,23,-1
 1841 -20 l 1,24,-1
 1841 -172 l 1,25,-1
 1203 -172 l 1,26,-1
 1203 -35 l 1,27,28
 1271 25 1271 25 1338.5 85 c 128,-1,29
 1406 145 1406 145 1474 205 c 0,30,31
 1542 266 1542 266 1585.5 308.5 c 128,-1,32
 1629 351 1629 351 1653.5 385 c 128,-1,33
 1678 419 1678 419 1687.5 449 c 128,-1,34
 1697 479 1697 479 1697 514 c 0,0,1
401 1413 m 1,35,-1
 231 1341 l 1,36,-1
 193 1434 l 1,37,-1
 431 1529 l 1,38,-1
 561 1503 l 1,39,-1
 561 568 l 1,40,-1
 401 568 l 1,41,-1
 401 1413 l 1,35,-1
1302 1365 m 1,42,-1
 1424 1272 l 1,43,-1
 401 -123 l 1,44,-1
 263 -30 l 1,45,-1
 1302 1365 l 1,42,-1
EndSplineSet
EndChar

StartChar: threequarters
Encoding: 190 190 130
Width: 2159
Flags: W
HStem: 34 110<1303 1691 1836 1987> 540 132<304.959 673.877> 1142 65<570 702> 1541 136<293.424 666.782>
VStem: 723 154<1274.25 1491.54> 742 166<737.636 984.227> 1700 136<-227 34 145 697>
DStem2: 243.5 1622.5 317.5 1505.5 0.945934 0.324359<-23.7642 214.393> 539 -30 659 -123 0.598068 0.801445<0 1734.03> 1144 144 1303 144 0.575241 0.817984<91.4633 772.179>
LayerCount: 2
Fore
SplineSet
1700 144 m 1,0,-1
 1700 697 l 1,1,-1
 1303 144 l 1,2,-1
 1700 144 l 1,0,-1
1836 915 m 1,3,-1
 1836 145 l 1,4,-1
 1987 145 l 1,5,-1
 1987 34 l 1,6,-1
 1836 34 l 1,7,-1
 1836 -227 l 1,8,-1
 1691 -250 l 1,9,-1
 1691 34 l 1,10,-1
 1166 34 l 1,11,-1
 1144 144 l 1,12,-1
 1708 946 l 1,13,-1
 1836 915 l 1,3,-1
1569 1365 m 1,14,-1
 1700 1272 l 1,15,-1
 659 -123 l 1,16,-1
 539 -30 l 1,17,-1
 1569 1365 l 1,14,-1
723 1383 m 0,18,19
 723 1458 723 1458 668.5 1499.5 c 128,-1,20
 614 1541 614 1541 499 1541 c 0,21,22
 470 1541 470 1541 439 1536.5 c 128,-1,23
 408 1532 408 1532 377 1524 c 128,-1,24
 346 1516 346 1516 317.5 1505.5 c 128,-1,25
 289 1495 289 1495 265 1484 c 1,26,-1
 218 1611 l 1,27,28
 220 1612 220 1612 243.5 1622.5 c 128,-1,29
 267 1633 267 1633 306 1645 c 128,-1,30
 345 1657 345 1657 396 1667 c 128,-1,31
 447 1677 447 1677 504 1677 c 0,32,33
 541 1677 541 1677 583 1671.5 c 128,-1,34
 625 1666 625 1666 666.5 1653.5 c 128,-1,35
 708 1641 708 1641 746 1620 c 128,-1,36
 784 1599 784 1599 813 1567.5 c 128,-1,37
 842 1536 842 1536 859.5 1493 c 128,-1,38
 877 1450 877 1450 877 1394 c 0,39,40
 877 1324 877 1324 849.5 1276 c 128,-1,41
 822 1228 822 1228 783 1198 c 128,-1,42
 744 1168 744 1168 702 1155 c 128,-1,43
 660 1142 660 1142 632 1142 c 1,44,45
 657 1137 657 1137 687.5 1127.5 c 128,-1,46
 718 1118 718 1118 748.5 1102.5 c 128,-1,47
 779 1087 779 1087 808 1063.5 c 128,-1,48
 837 1040 837 1040 859 1007.5 c 128,-1,49
 881 975 881 975 894.5 932.5 c 128,-1,50
 908 890 908 890 908 835 c 0,51,52
 908 755 908 755 871.5 698.5 c 128,-1,53
 835 642 835 642 777 607 c 128,-1,54
 719 572 719 572 647.5 556 c 128,-1,55
 576 540 576 540 507 540 c 0,56,57
 429 540 429 540 355 560 c 128,-1,58
 281 580 281 580 191 618 c 1,59,-1
 242 745 l 1,60,61
 267 733 267 733 297.5 720 c 128,-1,62
 328 707 328 707 363.5 696.5 c 128,-1,63
 399 686 399 686 439 679 c 128,-1,64
 479 672 479 672 522 672 c 0,65,66
 570 672 570 672 610.5 685 c 128,-1,67
 651 698 651 698 680.5 721.5 c 128,-1,68
 710 745 710 745 726 778.5 c 128,-1,69
 742 812 742 812 742 853 c 0,70,71
 742 948 742 948 679 1002.5 c 128,-1,72
 616 1057 616 1057 480 1072 c 1,73,-1
 480 1207 l 1,74,75
 526 1207 526 1207 570 1217.5 c 128,-1,76
 614 1228 614 1228 648 1249.5 c 128,-1,77
 682 1271 682 1271 702.5 1304.5 c 128,-1,78
 723 1338 723 1338 723 1383 c 0,18,19
EndSplineSet
EndChar

StartChar: questiondown
Encoding: 191 191 131
Width: 1232
Flags: W
HStem: 0 161<418.696 875.214> 1361 218<665 865>
VStem: 141 191<241.862 538.172> 675 180<904 1283 1361 1579>
DStem2: 559.5 862.5 623.5 714.5 0.941095 0.338142<-214.55 122.729>
LayerCount: 2
Fore
SplineSet
665 1361 m 1,0,-1
 665 1579 l 1,1,-1
 865 1579 l 1,2,-1
 865 1361 l 1,3,-1
 665 1361 l 1,0,-1
332 384 m 0,4,5
 332 267 332 267 406 214 c 128,-1,6
 480 161 480 161 626 161 c 0,7,8
 698 161 698 161 760.5 174 c 128,-1,9
 823 187 823 187 870 204 c 1,10,11
 925 222 925 222 971 247 c 1,12,-1
 1032 102 l 1,13,14
 977 73 977 73 912 51 c 0,15,16
 856 31 856 31 782.5 15.5 c 128,-1,17
 709 0 709 0 624 0 c 0,18,19
 521 0 521 0 433 22.5 c 128,-1,20
 345 45 345 45 280 92 c 128,-1,21
 215 139 215 139 178 211 c 128,-1,22
 141 283 141 283 141 382 c 0,23,24
 141 466 141 466 165.5 532.5 c 128,-1,25
 190 599 190 599 231 650.5 c 128,-1,26
 272 702 272 702 326 741 c 128,-1,27
 380 780 380 780 439.5 810 c 128,-1,28
 499 840 499 840 559.5 862.5 c 128,-1,29
 620 885 620 885 675 904 c 1,30,-1
 675 1283 l 1,31,-1
 855 1283 l 1,32,-1
 855 802 l 1,33,34
 722 757 722 757 623.5 714.5 c 128,-1,35
 525 672 525 672 460.5 624 c 128,-1,36
 396 576 396 576 364 518 c 128,-1,37
 332 460 332 460 332 384 c 0,4,5
EndSplineSet
EndChar

StartChar: AE
Encoding: 198 198 138
Width: 1945
Flags: W
HStem: 0 143<1181 1855> 371 122<524 1014> 764 127<1181 1784> 1436 143<1179 1827>
VStem: 1014 167<143 371 493 764 891 1436>
DStem2: 63 0 272 0 0.463525 0.886084<96.8766 514.611 650.524 650.524>
LayerCount: 2
Fore
SplineSet
1014 1459 m 1,0,-1
 524 493 l 1,1,-1
 1014 493 l 1,2,-1
 1014 1459 l 1,0,-1
1827 1436 m 1,3,-1
 1179 1436 l 1,4,-1
 1179 891 l 1,5,-1
 1784 891 l 1,6,-1
 1784 764 l 1,7,-1
 1181 764 l 1,8,-1
 1181 143 l 1,9,-1
 1855 143 l 1,10,-1
 1855 0 l 1,11,-1
 1016 0 l 1,12,-1
 1016 371 l 1,13,-1
 464 371 l 1,14,-1
 272 0 l 1,15,-1
 63 0 l 1,16,-1
 889 1579 l 1,17,-1
 1827 1579 l 1,18,-1
 1827 1436 l 1,3,-1
EndSplineSet
EndChar

StartChar: Eth
Encoding: 208 208 148
Width: 1471
Flags: W
HStem: 0 143<350 927.549> 764 131<-6 156 350 584> 1436 143<350 923.37>
VStem: 156 194<143 764 895 1436> 1167 201<452.327 1142.8>
LayerCount: 2
Fore
SplineSet
1167 789 m 0,0,1
 1167 932 1167 932 1145.5 1051 c 128,-1,2
 1124 1170 1124 1170 1071.5 1255.5 c 128,-1,3
 1019 1341 1019 1341 930.5 1388.5 c 128,-1,4
 842 1436 842 1436 709 1436 c 2,5,-1
 350 1436 l 1,6,-1
 350 895 l 1,7,-1
 584 895 l 1,8,-1
 584 764 l 1,9,-1
 350 764 l 1,10,-1
 350 143 l 1,11,-1
 709 143 l 2,12,13
 847 143 847 143 936 192 c 128,-1,14
 1025 241 1025 241 1076 327.5 c 128,-1,15
 1127 414 1127 414 1147 532.5 c 128,-1,16
 1167 651 1167 651 1167 789 c 0,0,1
1368 788 m 0,17,18
 1368 680 1368 680 1352 579.5 c 128,-1,19
 1336 479 1336 479 1302.5 391.5 c 128,-1,20
 1269 304 1269 304 1216.5 232 c 128,-1,21
 1164 160 1164 160 1090.5 108.5 c 128,-1,22
 1017 57 1017 57 922 28.5 c 128,-1,23
 827 0 827 0 709 0 c 2,24,-1
 156 0 l 1,25,-1
 156 764 l 1,26,-1
 -6 764 l 1,27,-1
 -6 895 l 1,28,-1
 156 895 l 1,29,-1
 156 1579 l 1,30,-1
 709 1579 l 2,31,32
 886 1579 886 1579 1011 1522.5 c 128,-1,33
 1136 1466 1136 1466 1215.5 1362 c 128,-1,34
 1295 1258 1295 1258 1331.5 1112 c 128,-1,35
 1368 966 1368 966 1368 788 c 0,17,18
EndSplineSet
EndChar

StartChar: multiply
Encoding: 215 215 155
Width: 1365
Flags: W
HStem: 444 204<595 799>
VStem: 595 204<444 648>
DStem2: 380 965 278 863 0.707107 -0.707107<0 448.306 592.555 1040.86> 278 229 380 127 0.707107 0.707107<0 448.306 592.555 1040.86>
LayerCount: 2
Fore
SplineSet
380 965 m 1,0,-1
 697 648 l 1,1,-1
 1014 965 l 1,2,-1
 1116 863 l 1,3,-1
 799 546 l 1,4,-1
 1116 229 l 1,5,-1
 1014 127 l 1,6,-1
 697 444 l 1,7,-1
 380 127 l 1,8,-1
 278 229 l 1,9,-1
 595 546 l 1,10,-1
 278 863 l 1,11,-1
 380 965 l 1,0,-1
EndSplineSet
EndChar

StartChar: Oslash
Encoding: 216 216 156
Width: 1517
Flags: W
HStem: -41 152<570 962.57> 1458 152<551.035 974.841>
VStem: 103 201<421.012 1144.42> 1213 201<420.851 1149.22>
DStem2: 329 -113 430 -159 0.411547 0.911389<0 178.88 353.553 1608.18 1812.13 2000.99>
LayerCount: 2
Fore
SplineSet
402 49 m 1,0,1
 341 90 341 90 286.5 149.5 c 128,-1,2
 232 209 232 209 191.5 296 c 128,-1,3
 151 383 151 383 127 503 c 128,-1,4
 103 623 103 623 103 784 c 0,5,6
 103 965 103 965 134.5 1096.5 c 128,-1,7
 166 1228 166 1228 217.5 1320 c 128,-1,8
 269 1412 269 1412 336 1468.5 c 128,-1,9
 403 1525 403 1525 474 1556.5 c 128,-1,10
 545 1588 545 1588 615.5 1599 c 128,-1,11
 686 1610 686 1610 744 1610 c 0,12,13
 841 1610 841 1610 924 1592.5 c 128,-1,14
 1007 1575 1007 1575 1076 1538 c 1,15,-1
 1154 1710 l 1,16,-1
 1255 1668 l 1,17,-1
 1169 1477 l 1,18,19
 1235 1424 1235 1424 1281.5 1351 c 128,-1,20
 1328 1278 1328 1278 1357.5 1189 c 128,-1,21
 1387 1100 1387 1100 1400.5 997.5 c 128,-1,22
 1414 895 1414 895 1414 784 c 0,23,24
 1414 609 1414 609 1379.5 458.5 c 128,-1,25
 1345 308 1345 308 1267.5 197 c 128,-1,26
 1190 86 1190 86 1064.5 22.5 c 128,-1,27
 939 -41 939 -41 758 -41 c 0,28,29
 701 -41 701 -41 636 -33 c 128,-1,30
 571 -25 571 -25 502 0 c 1,31,-1
 430 -159 l 1,32,-1
 329 -113 l 1,33,-1
 402 49 l 1,0,1
568 147 m 1,34,35
 589 137 589 137 618 129 c 0,36,37
 643 122 643 122 678.5 116.5 c 128,-1,38
 714 111 714 111 759 111 c 0,39,40
 852 111 852 111 922 136.5 c 128,-1,41
 992 162 992 162 1042 208 c 128,-1,42
 1092 254 1092 254 1125.5 317 c 128,-1,43
 1159 380 1159 380 1178 454.5 c 128,-1,44
 1197 529 1197 529 1205 613 c 128,-1,45
 1213 697 1213 697 1213 784 c 0,46,47
 1213 971 1213 971 1182 1099 c 128,-1,48
 1151 1227 1151 1227 1092 1307 c 1,49,-1
 568 147 l 1,34,35
304 784 m 0,50,51
 304 726 304 726 308 650.5 c 128,-1,52
 312 575 312 575 328.5 496 c 128,-1,53
 345 417 345 417 379.5 341.5 c 128,-1,54
 414 266 414 266 475 209 c 1,55,-1
 1009 1390 l 1,56,57
 960 1429 960 1429 895.5 1443.5 c 128,-1,58
 831 1458 831 1458 766 1458 c 0,59,60
 672 1458 672 1458 601 1434 c 128,-1,61
 530 1410 530 1410 479 1366 c 128,-1,62
 428 1322 428 1322 394 1260.5 c 128,-1,63
 360 1199 360 1199 340 1124 c 128,-1,64
 320 1049 320 1049 312 963 c 128,-1,65
 304 877 304 877 304 784 c 0,50,51
EndSplineSet
EndChar

StartChar: Thorn
Encoding: 222 222 162
Width: 1453
Flags: W
HStem: 0 21G<153 347> 504 145<347 873.288> 1300 144<347 902.838> 1559 20G<153 347>
VStem: 153 194<0 504 649 1300 1444 1579> 1060 182<786.821 1172>
LayerCount: 2
Fore
SplineSet
1060 959 m 0,0,1
 1060 1061 1060 1061 1037.5 1127.5 c 128,-1,2
 1015 1194 1015 1194 952 1232 c 128,-1,3
 889 1270 889 1270 776.5 1285 c 128,-1,4
 664 1300 664 1300 484 1300 c 2,5,-1
 347 1300 l 1,6,-1
 347 649 l 1,7,8
 441 649 441 649 518.5 650.5 c 128,-1,9
 596 652 596 652 659.5 656.5 c 128,-1,10
 723 661 723 661 774.5 669 c 128,-1,11
 826 677 826 677 867 691 c 0,12,13
 928 711 928 711 966 739 c 128,-1,14
 1004 767 1004 767 1025 801.5 c 128,-1,15
 1046 836 1046 836 1053 875.5 c 128,-1,16
 1060 915 1060 915 1060 959 c 0,0,1
347 504 m 1,17,-1
 347 0 l 1,18,-1
 153 0 l 1,19,-1
 153 1579 l 1,20,-1
 347 1579 l 1,21,-1
 347 1444 l 1,22,23
 406 1444 406 1444 466.5 1444 c 128,-1,24
 527 1444 527 1444 585 1442.5 c 128,-1,25
 643 1441 643 1441 696 1438 c 128,-1,26
 749 1435 749 1435 794 1429 c 0,27,28
 929 1411 929 1411 1016 1371.5 c 128,-1,29
 1103 1332 1103 1332 1153 1274 c 128,-1,30
 1203 1216 1203 1216 1222.5 1140 c 128,-1,31
 1242 1064 1242 1064 1242 973 c 0,32,33
 1242 868 1242 868 1208 781.5 c 128,-1,34
 1174 695 1174 695 1090 633.5 c 128,-1,35
 1006 572 1006 572 864.5 538 c 128,-1,36
 723 504 723 504 509 504 c 2,37,-1
 347 504 l 1,17,-1
EndSplineSet
EndChar

StartChar: germandbls
Encoding: 223 223 163
Width: 1399
Flags: W
HStem: -129 155<523 872.925> 0 21G<153 347> 774 131<491 856.064> 1436 143<456.003 847.226>
VStem: 153 194<0 1311.07> 943 172<988.411 1349.32> 1115 182<232.068 597.021>
LayerCount: 2
Fore
SplineSet
491 905 m 1,0,1
 574 905 574 905 640 906 c 128,-1,2
 706 907 706 907 756.5 915 c 128,-1,3
 807 923 807 923 842.5 940.5 c 128,-1,4
 878 958 878 958 900 990.5 c 128,-1,5
 922 1023 922 1023 932.5 1074 c 128,-1,6
 943 1125 943 1125 943 1200 c 0,7,8
 943 1268 943 1268 921 1313.5 c 128,-1,9
 899 1359 899 1359 857.5 1386 c 128,-1,10
 816 1413 816 1413 756.5 1424.5 c 128,-1,11
 697 1436 697 1436 622 1436 c 0,12,13
 535 1436 535 1436 481 1407.5 c 128,-1,14
 427 1379 427 1379 397 1322 c 128,-1,15
 367 1265 367 1265 357 1180.5 c 128,-1,16
 347 1096 347 1096 347 984 c 2,17,-1
 347 0 l 1,18,-1
 153 0 l 1,19,-1
 153 991 l 2,20,21
 153 1126 153 1126 175 1234.5 c 128,-1,22
 197 1343 197 1343 251 1419.5 c 128,-1,23
 305 1496 305 1496 395.5 1537.5 c 128,-1,24
 486 1579 486 1579 622 1579 c 0,25,26
 864 1579 864 1579 989.5 1475.5 c 128,-1,27
 1115 1372 1115 1372 1115 1176 c 0,28,29
 1115 1107 1115 1107 1098 1049 c 128,-1,30
 1081 991 1081 991 1048.5 947.5 c 128,-1,31
 1016 904 1016 904 969 876.5 c 128,-1,32
 922 849 922 849 862 842 c 1,33,34
 954 832 954 832 1033.5 802 c 128,-1,35
 1113 772 1113 772 1171.5 718 c 128,-1,36
 1230 664 1230 664 1263.5 585 c 128,-1,37
 1297 506 1297 506 1297 399 c 256,38,39
 1297 292 1297 292 1264.5 211 c 128,-1,40
 1232 130 1232 130 1175.5 71.5 c 128,-1,41
 1119 13 1119 13 1043 -26 c 128,-1,42
 967 -65 967 -65 881 -87.5 c 128,-1,43
 795 -110 795 -110 703.5 -119.5 c 128,-1,44
 612 -129 612 -129 523 -129 c 1,45,-1
 523 27 l 1,46,47
 533 26 533 26 543 26 c 2,48,-1
 576 26 l 2,49,50
 678 26 678 26 775 43.5 c 128,-1,51
 872 61 872 61 947.5 106 c 128,-1,52
 1023 151 1023 151 1069 230 c 128,-1,53
 1115 309 1115 309 1115 432 c 0,54,55
 1115 509 1115 509 1084.5 572 c 128,-1,56
 1054 635 1054 635 981.5 680 c 128,-1,57
 909 725 909 725 789 749.5 c 128,-1,58
 669 774 669 774 491 774 c 1,59,-1
 491 905 l 1,0,1
EndSplineSet
EndChar

StartChar: ae
Encoding: 230 230 170
Width: 1907
Flags: W
HStem: -23 142<379.125 716.409 1223.55 1579.89> 567 115<369.365 556.848 1054 1654> 590 125<400.438 849.658> 1047 143<386.193 792.854 1186.96 1550.29>
VStem: 116 191<189.839 505.88> 864 190<296.084 567 682 898.969> 1654 168<682 923.459>
DStem2: 636.5 711 740 584.5 0.989022 -0.147771<12.1022 231.009>
LayerCount: 2
Fore
SplineSet
1654 682 m 1,0,1
 1654 803 1654 803 1628.5 877 c 128,-1,2
 1603 951 1603 951 1563 991 c 128,-1,3
 1523 1031 1523 1031 1474.5 1044 c 128,-1,4
 1426 1057 1426 1057 1380 1057 c 0,5,6
 1348 1057 1348 1057 1312 1051.5 c 128,-1,7
 1276 1046 1276 1046 1239.5 1031 c 128,-1,8
 1203 1016 1203 1016 1169.5 989.5 c 128,-1,9
 1136 963 1136 963 1110.5 921 c 128,-1,10
 1085 879 1085 879 1069.5 820.5 c 128,-1,11
 1054 762 1054 762 1054 682 c 1,12,-1
 1654 682 l 1,0,1
1768 99 m 1,13,14
 1730 71 1730 71 1679.5 48.5 c 128,-1,15
 1629 26 1629 26 1576.5 10 c 128,-1,16
 1524 -6 1524 -6 1474.5 -14.5 c 128,-1,17
 1425 -23 1425 -23 1388 -23 c 0,18,19
 1233 -23 1233 -23 1126 36 c 128,-1,20
 1019 95 1019 95 955 207 c 1,21,22
 922 163 922 163 875.5 121.5 c 128,-1,23
 829 80 829 80 772 48 c 128,-1,24
 715 16 715 16 648.5 -3.5 c 128,-1,25
 582 -23 582 -23 508 -23 c 0,26,27
 415 -23 415 -23 342 0.5 c 128,-1,28
 269 24 269 24 219 70 c 128,-1,29
 169 116 169 116 142.5 183.5 c 128,-1,30
 116 251 116 251 116 339 c 0,31,32
 116 429 116 429 147.5 499 c 128,-1,33
 179 569 179 569 237 617 c 128,-1,34
 295 665 295 665 377 690 c 128,-1,35
 459 715 459 715 560 715 c 0,36,37
 594 715 594 715 636.5 711 c 128,-1,38
 679 707 679 707 721.5 700 c 128,-1,39
 764 693 764 693 802 684 c 128,-1,40
 840 675 840 675 864 665 c 1,41,42
 864 775 864 775 856.5 848.5 c 128,-1,43
 849 922 849 922 823.5 966 c 128,-1,44
 798 1010 798 1010 747.5 1028.5 c 128,-1,45
 697 1047 697 1047 612 1047 c 0,46,47
 557 1047 557 1047 501 1035 c 128,-1,48
 445 1023 445 1023 395.5 1005.5 c 128,-1,49
 346 988 346 988 307.5 968.5 c 128,-1,50
 269 949 269 949 249 934 c 1,51,-1
 182 1059 l 1,52,53
 213 1086 213 1086 264.5 1109.5 c 128,-1,54
 316 1133 316 1133 375 1151 c 128,-1,55
 434 1169 434 1169 494 1179.5 c 128,-1,56
 554 1190 554 1190 602 1190 c 0,57,58
 683 1190 683 1190 746 1178 c 128,-1,59
 809 1166 809 1166 856 1140 c 128,-1,60
 903 1114 903 1114 934.5 1072 c 128,-1,61
 966 1030 966 1030 984 970 c 1,62,63
 1011 1025 1011 1025 1052.5 1066.5 c 128,-1,64
 1094 1108 1094 1108 1145.5 1135.5 c 128,-1,65
 1197 1163 1197 1163 1256.5 1176.5 c 128,-1,66
 1316 1190 1316 1190 1379 1190 c 0,67,68
 1487 1190 1487 1190 1569.5 1153 c 128,-1,69
 1652 1116 1652 1116 1708 1048.5 c 128,-1,70
 1764 981 1764 981 1793 886 c 128,-1,71
 1822 791 1822 791 1822 676 c 0,72,73
 1822 652 1822 652 1820 625 c 128,-1,74
 1818 598 1818 598 1814 567 c 1,75,-1
 1054 567 l 1,76,77
 1054 468 1054 468 1070 386.5 c 128,-1,78
 1086 305 1086 305 1126 247.5 c 128,-1,79
 1166 190 1166 190 1232.5 158.5 c 128,-1,80
 1299 127 1299 127 1400 127 c 0,81,82
 1569 127 1569 127 1706 244 c 1,83,-1
 1768 99 l 1,13,14
307 356 m 0,84,85
 307 292 307 292 321.5 247 c 128,-1,86
 336 202 336 202 366.5 173.5 c 128,-1,87
 397 145 397 145 443.5 132 c 128,-1,88
 490 119 490 119 555 119 c 0,89,90
 700 119 700 119 864 271 c 1,91,-1
 864 569 l 1,92,93
 798 579 798 579 740 584.5 c 128,-1,94
 682 590 682 590 629 590 c 0,95,96
 532 590 532 590 469.5 573 c 128,-1,97
 407 556 407 556 371 525.5 c 128,-1,98
 335 495 335 495 321 451.5 c 128,-1,99
 307 408 307 408 307 356 c 0,84,85
EndSplineSet
EndChar

StartChar: igrave
Encoding: 236 236 176
Width: 540
Flags: W
HStem: 0 21G<177 359> 1149 20G<177 359>
VStem: 177 182<0 1169>
LayerCount: 2
Fore
SplineSet
-116 1936 m 1,0,-1
 126 2025 l 1,1,-1
 279 1407 l 1,2,-1
 212 1381 l 1,3,-1
 -116 1936 l 1,0,-1
177 0 m 1,4,-1
 177 1169 l 1,5,-1
 359 1169 l 1,6,-1
 359 0 l 1,7,-1
 177 0 l 1,4,-1
EndSplineSet
EndChar

StartChar: iacute
Encoding: 237 237 177
Width: 540
Flags: W
HStem: 0 21G<177 359> 1149 20G<177 359>
VStem: 177 182<0 1169>
LayerCount: 2
Fore
SplineSet
67 1406 m 1,0,-1
 226 2017 l 1,1,-1
 458 1926 l 1,2,-1
 124 1380 l 1,3,-1
 67 1406 l 1,0,-1
177 0 m 1,4,-1
 177 1169 l 1,5,-1
 359 1169 l 1,6,-1
 359 0 l 1,7,-1
 177 0 l 1,4,-1
EndSplineSet
EndChar

StartChar: icircumflex
Encoding: 238 238 178
Width: 540
Flags: W
HStem: 0 21G<177 359> 1149 20G<177 359> 1780 202<124 422>
VStem: 177 182<0 1169>
DStem2: -67 1481 61 1403 0.503549 0.863966<0 429.533> 321 1982 273 1780 0.503549 -0.863966<150.351 579.884>
LayerCount: 2
Fore
SplineSet
321 1982 m 1,0,-1
 613 1481 l 1,1,-1
 485 1403 l 1,2,-1
 273 1780 l 1,3,-1
 61 1403 l 1,4,-1
 -67 1481 l 1,5,-1
 225 1982 l 1,6,-1
 321 1982 l 1,0,-1
177 0 m 1,7,-1
 177 1169 l 1,8,-1
 359 1169 l 1,9,-1
 359 0 l 1,10,-1
 177 0 l 1,7,-1
EndSplineSet
EndChar

StartChar: idieresis
Encoding: 239 239 179
Width: 540
Flags: W
HStem: 0 21G<177 359> 1149 20G<177 359> 1385 230<-97.6914 81.6914 391.309 570.691>
VStem: -120 224<1406.75 1592.51> 177 182<0 1169> 369 224<1406.75 1592.51>
LayerCount: 2
Fore
SplineSet
-120 1500 m 256,0,1
 -120 1523 -120 1523 -112 1544 c 128,-1,2
 -104 1565 -104 1565 -89 1580.5 c 128,-1,3
 -74 1596 -74 1596 -53.5 1606 c 128,-1,4
 -33 1616 -33 1616 -8 1615 c 0,5,6
 17 1615 17 1615 37.5 1605.5 c 128,-1,7
 58 1596 58 1596 73 1580.5 c 128,-1,8
 88 1565 88 1565 96 1544 c 128,-1,9
 104 1523 104 1523 104 1500 c 256,10,11
 104 1477 104 1477 96 1456 c 128,-1,12
 88 1435 88 1435 73 1419 c 128,-1,13
 58 1403 58 1403 37.5 1394 c 128,-1,14
 17 1385 17 1385 -8 1385 c 256,15,16
 -33 1385 -33 1385 -53.5 1394 c 128,-1,17
 -74 1403 -74 1403 -89 1419 c 128,-1,18
 -104 1435 -104 1435 -112 1456 c 128,-1,19
 -120 1477 -120 1477 -120 1500 c 256,0,1
369 1500 m 256,20,21
 369 1523 369 1523 377 1544 c 128,-1,22
 385 1565 385 1565 400 1580.5 c 128,-1,23
 415 1596 415 1596 435.5 1606 c 128,-1,24
 456 1616 456 1616 481 1615 c 0,25,26
 506 1615 506 1615 526.5 1605.5 c 128,-1,27
 547 1596 547 1596 562 1580.5 c 128,-1,28
 577 1565 577 1565 585 1544 c 128,-1,29
 593 1523 593 1523 593 1500 c 256,30,31
 593 1477 593 1477 585 1456 c 128,-1,32
 577 1435 577 1435 562 1419 c 128,-1,33
 547 1403 547 1403 526.5 1394 c 128,-1,34
 506 1385 506 1385 481 1385 c 256,35,36
 456 1385 456 1385 435.5 1394 c 128,-1,37
 415 1403 415 1403 400 1419 c 128,-1,38
 385 1435 385 1435 377 1456 c 128,-1,39
 369 1477 369 1477 369 1500 c 256,20,21
177 0 m 1,40,-1
 177 1169 l 1,41,-1
 359 1169 l 1,42,-1
 359 0 l 1,43,-1
 177 0 l 1,40,-1
EndSplineSet
EndChar

StartChar: eth
Encoding: 240 240 180
Width: 1246
Flags: W
HStem: -20 143<427.838 758.662> 1047 143<428.428 764.69> 1573 20G<1022.47 1099.33>
VStem: 101 182<300.724 867.928> 934 184<343.134 877.07>
DStem2: 442 1401 484 1311 0.958798 0.284088<14.7016 211.681 419.385 675.846> 872 1426 719 1380 0.584269 -0.81156<0 352.955>
LayerCount: 2
Fore
SplineSet
1118 690 m 0,0,1
 1118 -20 1118 -20 585 -20 c 0,2,3
 456 -20 456 -20 364.5 29 c 128,-1,4
 273 78 273 78 214.5 161 c 128,-1,5
 156 244 156 244 128.5 353.5 c 128,-1,6
 101 463 101 463 101 584 c 0,7,8
 101 708 101 708 130.5 818 c 128,-1,9
 160 928 160 928 218 1010.5 c 128,-1,10
 276 1093 276 1093 362.5 1141.5 c 128,-1,11
 449 1190 449 1190 563 1190 c 0,12,13
 621 1190 621 1190 676.5 1175.5 c 128,-1,14
 732 1161 732 1161 780 1138 c 128,-1,15
 828 1115 828 1115 866.5 1086 c 128,-1,16
 905 1057 905 1057 928 1028 c 1,17,18
 899 1116 899 1116 845 1204 c 128,-1,19
 791 1292 791 1292 719 1380 c 1,20,-1
 484 1311 l 1,21,-1
 442 1401 l 1,22,-1
 645 1461 l 1,23,24
 591 1515 591 1515 536.5 1559.5 c 128,-1,25
 482 1604 482 1604 424 1641 c 1,26,-1
 508 1743 l 1,27,28
 574 1706 574 1706 647.5 1650 c 128,-1,29
 721 1594 721 1594 803 1508 c 1,30,-1
 1090 1593 l 1,31,-1
 1132 1503 l 1,32,-1
 872 1426 l 1,33,34
 928 1353 928 1353 973.5 1272.5 c 128,-1,35
 1019 1192 1019 1192 1051 1101.5 c 128,-1,36
 1083 1011 1083 1011 1100.5 908.5 c 128,-1,37
 1118 806 1118 806 1118 690 c 0,0,1
283 587 m 0,38,39
 283 123 283 123 581 123 c 0,40,41
 666 123 666 123 731.5 150.5 c 128,-1,42
 797 178 797 178 842 241.5 c 128,-1,43
 887 305 887 305 910.5 409 c 128,-1,44
 934 513 934 513 934 666 c 0,45,46
 934 742 934 742 918.5 800 c 128,-1,47
 903 858 903 858 876.5 900 c 128,-1,48
 850 942 850 942 816.5 970.5 c 128,-1,49
 783 999 783 999 746.5 1016 c 128,-1,50
 710 1033 710 1033 674 1040 c 128,-1,51
 638 1047 638 1047 607 1047 c 0,52,53
 569 1047 569 1047 530 1041 c 128,-1,54
 491 1035 491 1035 455 1017.5 c 128,-1,55
 419 1000 419 1000 387.5 968.5 c 128,-1,56
 356 937 356 937 333 886 c 128,-1,57
 310 835 310 835 296.5 761.5 c 128,-1,58
 283 688 283 688 283 587 c 0,38,39
EndSplineSet
EndChar

StartChar: divide
Encoding: 247 247 187
Width: 1068
Flags: W
HStem: 185 230<471.309 638.058> 508 131<224 906> 720 230<473.309 640.058>
VStem: 449 220<219.55 380.45 754.55 915.45>
LayerCount: 2
Fore
SplineSet
451 835 m 256,0,1
 451 858 451 858 459 879 c 128,-1,2
 467 900 467 900 482 915.5 c 128,-1,3
 497 931 497 931 517.5 940.5 c 128,-1,4
 538 950 538 950 563 950 c 0,5,6
 611 950 611 950 641 916.5 c 128,-1,7
 671 883 671 883 671 835 c 256,8,9
 671 787 671 787 641 753.5 c 128,-1,10
 611 720 611 720 563 720 c 0,11,12
 538 720 538 720 517.5 729 c 128,-1,13
 497 738 497 738 482 754 c 128,-1,14
 467 770 467 770 459 791 c 128,-1,15
 451 812 451 812 451 835 c 256,0,1
449 300 m 256,16,17
 449 323 449 323 457 344 c 128,-1,18
 465 365 465 365 480 380.5 c 128,-1,19
 495 396 495 396 515.5 405.5 c 128,-1,20
 536 415 536 415 561 415 c 0,21,22
 609 415 609 415 639 381.5 c 128,-1,23
 669 348 669 348 669 300 c 256,24,25
 669 252 669 252 639 218.5 c 128,-1,26
 609 185 609 185 561 185 c 0,27,28
 536 185 536 185 515.5 194 c 128,-1,29
 495 203 495 203 480 219 c 128,-1,30
 465 235 465 235 457 256 c 128,-1,31
 449 277 449 277 449 300 c 256,16,17
224 508 m 1,32,-1
 224 639 l 1,33,-1
 906 639 l 1,34,-1
 906 508 l 1,35,-1
 224 508 l 1,32,-1
EndSplineSet
EndChar

StartChar: oslash
Encoding: 248 248 188
Width: 1263
Flags: W
HStem: -20 137<527.445 806.556> 1051 139<456.208 740.536>
VStem: 101 182<315.972 847.847> 979 183<314.73 846.781>
DStem2: 327 -168 415 -198 0.3262 0.945301<0.346549 212.631 356.406 1261.47 1410.65 1619.77>
LayerCount: 2
Fore
SplineSet
742 1035 m 1,0,1
 697 1051 697 1051 631 1051 c 0,2,3
 529 1051 529 1051 462 1011 c 128,-1,4
 395 971 395 971 355.5 905 c 128,-1,5
 316 839 316 839 299.5 754.5 c 128,-1,6
 283 670 283 670 283 582 c 0,7,8
 283 444 283 444 320 336.5 c 128,-1,9
 357 229 357 229 443 169 c 1,10,-1
 742 1035 l 1,0,1
415 -198 m 1,11,-1
 327 -168 l 1,12,-1
 394 28 l 1,13,14
 320 63 320 63 265.5 117.5 c 128,-1,15
 211 172 211 172 174 243 c 128,-1,16
 137 314 137 314 119 399.5 c 128,-1,17
 101 485 101 485 101 582 c 0,18,19
 101 703 101 703 132.5 813.5 c 128,-1,20
 164 924 164 924 229 1007.5 c 128,-1,21
 294 1091 294 1091 394 1140.5 c 128,-1,22
 494 1190 494 1190 631 1190 c 0,23,24
 712 1190 712 1190 789 1170 c 1,25,-1
 856 1365 l 1,26,-1
 937 1335 l 1,27,-1
 870 1140 l 1,28,29
 946 1101 946 1101 1001 1043.5 c 128,-1,30
 1056 986 1056 986 1092 914.5 c 128,-1,31
 1128 843 1128 843 1145 759 c 128,-1,32
 1162 675 1162 675 1162 582 c 0,33,34
 1162 458 1162 458 1130.5 348.5 c 128,-1,35
 1099 239 1099 239 1033.5 157 c 128,-1,36
 968 75 968 75 868 27.5 c 128,-1,37
 768 -20 768 -20 631 -20 c 0,38,39
 550 -20 550 -20 481 -2 c 1,40,-1
 415 -198 l 1,11,-1
631 117 m 0,41,42
 727 117 727 117 793.5 153.5 c 128,-1,43
 860 190 860 190 901.5 253 c 128,-1,44
 943 316 943 316 961 400.5 c 128,-1,45
 979 485 979 485 979 582 c 0,46,47
 979 718 979 718 942 826.5 c 128,-1,48
 905 935 905 935 821 996 c 1,49,-1
 526 130 l 1,50,51
 568 117 568 117 631 117 c 0,41,42
EndSplineSet
EndChar

StartChar: thorn
Encoding: 254 254 194
Width: 1259
Flags: W
HStem: -487 21G<144 313.091> -20 143<472.367 838.965> 1047 143<510.078 831.251>
VStem: 144 190<-465 117 212.329 890 1004 1565> 976 182<300.367 858.133>
LayerCount: 2
Fore
SplineSet
976 543 m 0,0,1
 976 597 976 597 972 655 c 128,-1,2
 968 713 968 713 956.5 769 c 128,-1,3
 945 825 945 825 925 875.5 c 128,-1,4
 905 926 905 926 873 964 c 128,-1,5
 841 1002 841 1002 796 1024.5 c 128,-1,6
 751 1047 751 1047 689 1047 c 0,7,8
 629 1047 629 1047 574 1028 c 128,-1,9
 519 1009 519 1009 472.5 983 c 128,-1,10
 426 957 426 957 390.5 931 c 128,-1,11
 355 905 355 905 334 890 c 1,12,-1
 334 244 l 1,13,14
 365 218 365 218 407.5 196 c 128,-1,15
 450 174 450 174 498 157.5 c 128,-1,16
 546 141 546 141 597 132 c 128,-1,17
 648 123 648 123 697 123 c 0,18,19
 751 123 751 123 793 141.5 c 128,-1,20
 835 160 835 160 866 191 c 128,-1,21
 897 222 897 222 918 264 c 128,-1,22
 939 306 939 306 952 352.5 c 128,-1,23
 965 399 965 399 970.5 448 c 128,-1,24
 976 497 976 497 976 543 c 0,0,1
689 -20 m 0,25,26
 440 -20 440 -20 330 117 c 1,27,-1
 330 -465 l 1,28,-1
 144 -487 l 1,29,-1
 144 1565 l 1,30,-1
 328 1565 l 1,31,-1
 328 1004 l 1,32,33
 360 1044 360 1044 400 1078 c 128,-1,34
 440 1112 440 1112 486.5 1137 c 128,-1,35
 533 1162 533 1162 584 1176 c 128,-1,36
 635 1190 635 1190 689 1190 c 0,37,38
 774 1190 774 1190 841.5 1166 c 128,-1,39
 909 1142 909 1142 961 1100 c 128,-1,40
 1013 1058 1013 1058 1050.5 1000 c 128,-1,41
 1088 942 1088 942 1112 875 c 128,-1,42
 1136 808 1136 808 1147 733.5 c 128,-1,43
 1158 659 1158 659 1158 584 c 0,44,45
 1158 468 1158 468 1131 359.5 c 128,-1,46
 1104 251 1104 251 1047 166.5 c 128,-1,47
 990 82 990 82 901 31 c 128,-1,48
 812 -20 812 -20 689 -20 c 0,25,26
EndSplineSet
EndChar

StartChar: dotlessi
Encoding: 305 305 196
Width: 540
Flags: W
HStem: 0 21G<177 359> 1149 20G<177 359>
VStem: 177 182<0 1169>
LayerCount: 2
Fore
SplineSet
177 1169 m 1,0,-1
 359 1169 l 1,1,-1
 359 0 l 1,2,-1
 177 0 l 1,3,-1
 177 1169 l 1,0,-1
EndSplineSet
EndChar

StartChar: OE
Encoding: 338 338 197
Width: 2257
Flags: W
HStem: -43 155<556.728 965.75> 0 143<1412 2201> 776 115<1415 2090> 1436 143<1412 2188> 1459 149<554.418 965.228>
VStem: 102 201<429.485 1140.85> 1218 194<590.5 891 1397 1436>
LayerCount: 2
Fore
SplineSet
1218 0 m 1,0,-1
 1218 1579 l 1,1,-1
 2188 1579 l 1,2,-1
 2188 1436 l 1,3,-1
 1412 1436 l 1,4,-1
 1412 891 l 1,5,-1
 2090 891 l 1,6,-1
 2090 776 l 1,7,-1
 1412 776 l 1,8,-1
 1412 143 l 1,9,-1
 2201 143 l 1,10,-1
 2201 0 l 1,11,-1
 1218 0 l 1,0,-1
1415 806 m 0,12,13
 1415 696 1415 696 1403 590.5 c 128,-1,14
 1391 485 1391 485 1362.5 390.5 c 128,-1,15
 1334 296 1334 296 1285.5 216.5 c 128,-1,16
 1237 137 1237 137 1164 79.5 c 128,-1,17
 1091 22 1091 22 990.5 -10.5 c 128,-1,18
 890 -43 890 -43 758 -43 c 0,19,20
 625 -43 625 -43 524 -9.5 c 128,-1,21
 423 24 423 24 350.5 84 c 128,-1,22
 278 144 278 144 230 226 c 128,-1,23
 182 308 182 308 153.5 405 c 128,-1,24
 125 502 125 502 113.5 609.5 c 128,-1,25
 102 717 102 717 102 829 c 0,26,27
 102 1010 102 1010 144.5 1154.5 c 128,-1,28
 187 1299 187 1299 270 1400 c 128,-1,29
 353 1501 353 1501 475.5 1554.5 c 128,-1,30
 598 1608 598 1608 758 1608 c 0,31,32
 919 1608 919 1608 1042 1554 c 128,-1,33
 1165 1500 1165 1500 1248 1397 c 128,-1,34
 1331 1294 1331 1294 1373 1145 c 128,-1,35
 1415 996 1415 996 1415 806 c 0,12,13
303 775 m 0,36,37
 303 439 303 439 419.5 275.5 c 128,-1,38
 536 112 536 112 758 112 c 0,39,40
 862 112 862 112 946 147.5 c 128,-1,41
 1030 183 1030 183 1089.5 262 c 128,-1,42
 1149 341 1149 341 1181 467.5 c 128,-1,43
 1213 594 1213 594 1213 775 c 256,44,45
 1213 956 1213 956 1183 1085.5 c 128,-1,46
 1153 1215 1153 1215 1095.5 1298 c 128,-1,47
 1038 1381 1038 1381 954.5 1420 c 128,-1,48
 871 1459 871 1459 765 1459 c 0,49,50
 655 1459 655 1459 569 1421.5 c 128,-1,51
 483 1384 483 1384 424 1302 c 128,-1,52
 365 1220 365 1220 334 1090 c 128,-1,53
 303 960 303 960 303 775 c 0,36,37
EndSplineSet
EndChar

StartChar: oe
Encoding: 339 339 198
Width: 2025
Flags: W
HStem: -40 137<459.324 806.052> -20 137<1330.64 1719.28> 567 115<1172 1772> 1039 137<460.093 805.447 1316.83 1668.97>
VStem: 102 183<305.447 831.935> 981 191<303.18 567> 1772 168<682.002 914.575>
LayerCount: 2
Fore
SplineSet
1772 682 m 1,0,1
 1772 861 1772 861 1702.5 957 c 128,-1,2
 1633 1053 1633 1053 1502 1053 c 0,3,4
 1428 1053 1428 1053 1369.5 1026 c 128,-1,5
 1311 999 1311 999 1269 950 c 128,-1,6
 1227 901 1227 901 1202.5 832.5 c 128,-1,7
 1178 764 1178 764 1172 682 c 1,8,-1
 1772 682 l 1,0,1
633 97 m 0,9,10
 736 97 736 97 803.5 139.5 c 128,-1,11
 871 182 871 182 910.5 250 c 128,-1,12
 950 318 950 318 965.5 401.5 c 128,-1,13
 981 485 981 485 981 568 c 0,14,15
 981 623 981 623 974.5 679.5 c 128,-1,16
 968 736 968 736 952 788 c 128,-1,17
 936 840 936 840 910.5 886 c 128,-1,18
 885 932 885 932 846 966 c 128,-1,19
 807 1000 807 1000 754.5 1019.5 c 128,-1,20
 702 1039 702 1039 633 1039 c 256,21,22
 564 1039 564 1039 511.5 1019.5 c 128,-1,23
 459 1000 459 1000 420 966 c 128,-1,24
 381 932 381 932 355.5 886 c 128,-1,25
 330 840 330 840 314 788 c 128,-1,26
 298 736 298 736 291.5 679.5 c 128,-1,27
 285 623 285 623 285 568 c 256,28,29
 285 513 285 513 291.5 456.5 c 128,-1,30
 298 400 298 400 314 348 c 128,-1,31
 330 296 330 296 355.5 250 c 128,-1,32
 381 204 381 204 420 170 c 128,-1,33
 459 136 459 136 511.5 116.5 c 128,-1,34
 564 97 564 97 633 97 c 0,9,10
1886 101 m 1,35,36
 1846 72 1846 72 1795 49.5 c 128,-1,37
 1744 27 1744 27 1691.5 11.5 c 128,-1,38
 1639 -4 1639 -4 1590 -12 c 128,-1,39
 1541 -20 1541 -20 1506 -20 c 0,40,41
 1411 -20 1411 -20 1339.5 0.5 c 128,-1,42
 1268 21 1268 21 1216.5 57 c 128,-1,43
 1165 93 1165 93 1131 141 c 128,-1,44
 1097 189 1097 189 1078 243 c 1,45,46
 1053 166 1053 166 1007.5 112 c 128,-1,47
 962 58 962 58 903 24.5 c 128,-1,48
 844 -9 844 -9 774.5 -24.5 c 128,-1,49
 705 -40 705 -40 633 -40 c 0,50,51
 500 -40 500 -40 400.5 6 c 128,-1,52
 301 52 301 52 234.5 133.5 c 128,-1,53
 168 215 168 215 135 326 c 128,-1,54
 102 437 102 437 102 568 c 0,55,56
 102 634 102 634 111 704.5 c 128,-1,57
 120 775 120 775 143 842.5 c 128,-1,58
 166 910 166 910 204.5 970.5 c 128,-1,59
 243 1031 243 1031 302 1076.5 c 128,-1,60
 361 1122 361 1122 442.5 1149 c 128,-1,61
 524 1176 524 1176 633 1176 c 0,62,63
 796 1176 796 1176 908 1106.5 c 128,-1,64
 1020 1037 1020 1037 1071 888 c 1,65,66
 1125 1037 1125 1037 1224 1113.5 c 128,-1,67
 1323 1190 1323 1190 1475 1190 c 0,68,69
 1585 1190 1585 1190 1671.5 1157 c 128,-1,70
 1758 1124 1758 1124 1817.5 1060 c 128,-1,71
 1877 996 1877 996 1908.5 901.5 c 128,-1,72
 1940 807 1940 807 1940 684 c 0,73,74
 1940 652 1940 652 1938 622.5 c 128,-1,75
 1936 593 1936 593 1932 567 c 1,76,-1
 1172 567 l 1,77,78
 1172 441 1172 441 1196 355 c 128,-1,79
 1220 269 1220 269 1265.5 216 c 128,-1,80
 1311 163 1311 163 1376 140 c 128,-1,81
 1441 117 1441 117 1522 117 c 0,82,83
 1569 117 1569 117 1609 124 c 128,-1,84
 1649 131 1649 131 1685 145.5 c 128,-1,85
 1721 160 1721 160 1754.5 182 c 128,-1,86
 1788 204 1788 204 1824 234 c 1,87,-1
 1886 101 l 1,35,36
EndSplineSet
EndChar

StartChar: florin
Encoding: 402 402 204
Width: 747
Flags: W
HStem: -245 143<-69.582 187.343> -60 20G<-111.84 -85.5> 957 105<91 314 514 811> 1516 143<611.038 856.524>
DStem2: 239 98 439 216 0.0881552 0.996107<-162.822 862.267 984.49 1393.96>
LayerCount: 2
Fore
SplineSet
702 1516 m 0,0,1
 643 1516 643 1516 610 1491.5 c 128,-1,2
 577 1467 577 1467 559 1413 c 128,-1,3
 541 1359 541 1359 532.5 1272.5 c 128,-1,4
 524 1186 524 1186 514 1062 c 1,5,-1
 821 1062 l 1,6,-1
 811 957 l 1,7,-1
 504 957 l 1,8,-1
 439 216 l 2,9,10
 428 90 428 90 400 2.5 c 128,-1,11
 372 -85 372 -85 328 -140 c 128,-1,12
 284 -195 284 -195 223 -220 c 128,-1,13
 162 -245 162 -245 84 -245 c 0,14,15
 29 -245 29 -245 -18 -232.5 c 128,-1,16
 -65 -220 -65 -220 -100 -205 c 0,17,18
 -140 -187 -140 -187 -174 -165 c 1,19,-1
 -100 -40 l 1,20,21
 -71 -58 -71 -58 -41 -71 c 0,22,23
 -15 -83 -15 -83 15 -92.5 c 128,-1,24
 45 -102 45 -102 73 -102 c 0,25,26
 108 -102 108 -102 136.5 -92.5 c 128,-1,27
 165 -83 165 -83 186 -60 c 128,-1,28
 207 -37 207 -37 220.5 1.5 c 128,-1,29
 234 40 234 40 239 98 c 2,30,-1
 314 957 l 1,31,-1
 81 957 l 1,32,-1
 91 1062 l 1,33,-1
 324 1062 l 1,34,35
 339 1226 339 1226 362.5 1339.5 c 128,-1,36
 386 1453 386 1453 427.5 1524 c 128,-1,37
 469 1595 469 1595 532.5 1627 c 128,-1,38
 596 1659 596 1659 691 1659 c 0,39,40
 746 1659 746 1659 793.5 1646.5 c 128,-1,41
 841 1634 841 1634 876 1619 c 0,42,43
 916 1601 916 1601 950 1579 c 1,44,-1
 883 1458 l 1,45,46
 852 1474 852 1474 820 1487 c 0,47,48
 793 1498 793 1498 761.5 1507 c 128,-1,49
 730 1516 730 1516 702 1516 c 0,0,1
EndSplineSet
EndChar

StartChar: circumflex
Encoding: 710 710 205
Width: 1428
Flags: W
HStem: 461 202<565 863>
VStem: 374 680
DStem2: 374 162 502 84 0.503549 0.863966<0 429.533> 762 663 714 461 0.503549 -0.863966<150.351 579.884>
LayerCount: 2
Fore
SplineSet
762 663 m 1,0,-1
 1054 162 l 1,1,-1
 926 84 l 1,2,-1
 714 461 l 1,3,-1
 502 84 l 1,4,-1
 374 162 l 1,5,-1
 666 663 l 1,6,-1
 762 663 l 1,0,-1
EndSplineSet
EndChar

StartChar: caron
Encoding: 711 711 206
Width: 1428
Flags: W
HStem: 61 202<565 863>
VStem: 374 680
DStem2: 502 640 374 562 0.503549 -0.863966<2.93507 432.468> 714 263 762 61 0.503549 0.863966<0 429.533>
LayerCount: 2
Fore
SplineSet
666 61 m 1,0,-1
 374 562 l 1,1,-1
 502 640 l 1,2,-1
 714 263 l 1,3,-1
 926 640 l 1,4,-1
 1054 562 l 1,5,-1
 762 61 l 1,6,-1
 666 61 l 1,0,-1
EndSplineSet
EndChar

StartChar: ring
Encoding: 730 730 207
Width: 1707
Flags: W
HStem: 71 91<748.276 958.724> 460 91<748.276 958.724>
VStem: 611 98<201.498 420.331> 999 97<202.763 419.717>
LayerCount: 2
Fore
SplineSet
709 311 m 256,0,1
 709 280 709 280 719.5 253 c 128,-1,2
 730 226 730 226 749.5 205.5 c 128,-1,3
 769 185 769 185 795 173.5 c 128,-1,4
 821 162 821 162 853 162 c 256,5,6
 885 162 885 162 911.5 173.5 c 128,-1,7
 938 185 938 185 957.5 205.5 c 128,-1,8
 977 226 977 226 988 253 c 128,-1,9
 999 280 999 280 999 311 c 256,10,11
 999 342 999 342 988 369 c 128,-1,12
 977 396 977 396 957.5 416.5 c 128,-1,13
 938 437 938 437 911.5 448.5 c 128,-1,14
 885 460 885 460 853 460 c 256,15,16
 821 460 821 460 795 448.5 c 128,-1,17
 769 437 769 437 749.5 416.5 c 128,-1,18
 730 396 730 396 719.5 369 c 128,-1,19
 709 342 709 342 709 311 c 256,0,1
854 551 m 0,20,21
 906 551 906 551 950.5 532.5 c 128,-1,22
 995 514 995 514 1027.5 481.5 c 128,-1,23
 1060 449 1060 449 1078 405 c 128,-1,24
 1096 361 1096 361 1096 310 c 0,25,26
 1096 260 1096 260 1078 216.5 c 128,-1,27
 1060 173 1060 173 1027.5 140.5 c 128,-1,28
 995 108 995 108 950.5 89.5 c 128,-1,29
 906 71 906 71 854 71 c 0,30,31
 801 71 801 71 756.5 89.5 c 128,-1,32
 712 108 712 108 679.5 140.5 c 128,-1,33
 647 173 647 173 629 216.5 c 128,-1,34
 611 260 611 260 611 310 c 0,35,36
 611 361 611 361 629 405 c 128,-1,37
 647 449 647 449 679.5 481.5 c 128,-1,38
 712 514 712 514 756.5 532.5 c 128,-1,39
 801 551 801 551 854 551 c 0,20,21
EndSplineSet
EndChar

StartChar: tilde
Encoding: 732 732 208
Width: 1707
Flags: W
HStem: 107 139<894.203 1066.83> 226 145<639.018 803.544>
VStem: 471 156<111 200.724> 1075 156<248.303 357>
DStem2: 776.5 351 750.5 207.5 0.896577 -0.442888<-25.0185 260.251>
LayerCount: 2
Fore
SplineSet
1039 107 m 0,0,1
 983 107 983 107 931 125.5 c 128,-1,2
 879 144 879 144 833.5 166.5 c 128,-1,3
 788 189 788 189 750.5 207.5 c 128,-1,4
 713 226 713 226 686 226 c 0,5,6
 656 226 656 226 641.5 201.5 c 128,-1,7
 627 177 627 177 627 111 c 1,8,-1
 471 111 l 1,9,10
 471 371 471 371 672 371 c 0,11,12
 729 371 729 371 776.5 351 c 128,-1,13
 824 331 824 331 874 302 c 0,14,15
 912 280 912 280 946.5 263 c 128,-1,16
 981 246 981 246 1016 246 c 0,17,18
 1075 246 1075 246 1075 357 c 1,19,-1
 1231 357 l 1,20,21
 1231 300 1231 300 1217.5 254 c 128,-1,22
 1204 208 1204 208 1179 175.5 c 128,-1,23
 1154 143 1154 143 1118.5 125 c 128,-1,24
 1083 107 1083 107 1039 107 c 0,0,1
EndSplineSet
EndChar

StartChar: acutecomb
Encoding: 769 769 209
Width: 1097
Flags: W
HStem: 1639 637
VStem: 489 391
LayerCount: 2
Fore
SplineSet
489 1665 m 1,0,-1
 648 2276 l 1,1,-1
 880 2185 l 1,2,-1
 546 1639 l 1,3,-1
 489 1665 l 1,0,-1
EndSplineSet
EndChar

StartChar: uni0306
Encoding: 774 774 210
Width: 780
Flags: W
HStem: 69 110<275.177 492.929>
VStem: 123 117<214.584 308> 526 117<214.584 308>
LayerCount: 2
Fore
SplineSet
643 308 m 1,0,1
 643 197 643 197 581.5 133 c 128,-1,2
 520 69 520 69 385 69 c 0,3,4
 316 69 316 69 266.5 86.5 c 128,-1,5
 217 104 217 104 185 136 c 128,-1,6
 153 168 153 168 138 211.5 c 128,-1,7
 123 255 123 255 123 308 c 1,8,-1
 240 308 l 1,9,10
 240 248 240 248 279.5 213.5 c 128,-1,11
 319 179 319 179 385 179 c 256,12,13
 451 179 451 179 488.5 213.5 c 128,-1,14
 526 248 526 248 526 308 c 1,15,-1
 643 308 l 1,0,1
EndSplineSet
EndChar

StartChar: afii10051
Encoding: 1026 1026 213
Width: 1616
Flags: W
HStem: -232 135<891 1142.78> 0 21G<507 701> 1047 143<876.478 1220.83> 1436 143<51 507 701 1159>
VStem: 507 194<0 927.095 1024 1436> 1305 194<64.326 950.813>
LayerCount: 2
Fore
SplineSet
891 -97 m 1,0,1
 989 -94 989 -94 1066 -78 c 128,-1,2
 1143 -62 1143 -62 1196 -19 c 128,-1,3
 1249 24 1249 24 1277 100.5 c 128,-1,4
 1305 177 1305 177 1305 300 c 2,5,-1
 1305 727 l 2,6,7
 1305 894 1305 894 1250 970.5 c 128,-1,8
 1195 1047 1195 1047 1083 1047 c 0,9,10
 1020 1047 1020 1047 961 1031 c 128,-1,11
 902 1015 902 1015 852 991.5 c 128,-1,12
 802 968 802 968 763 940 c 128,-1,13
 724 912 724 912 701 888 c 1,14,-1
 701 0 l 1,15,-1
 507 0 l 1,16,-1
 507 1436 l 1,17,-1
 51 1436 l 1,18,-1
 51 1579 l 1,19,-1
 1159 1579 l 1,20,-1
 1159 1436 l 1,21,-1
 701 1436 l 1,22,-1
 701 1024 l 1,23,24
 748 1076 748 1076 794.5 1108.5 c 128,-1,25
 841 1141 841 1141 889 1159 c 128,-1,26
 937 1177 937 1177 987.5 1183.5 c 128,-1,27
 1038 1190 1038 1190 1093 1190 c 0,28,29
 1499 1190 1499 1190 1499 727 c 2,30,-1
 1499 270 l 2,31,32
 1499 149 1499 149 1460 55.5 c 128,-1,33
 1421 -38 1421 -38 1344 -102 c 128,-1,34
 1267 -166 1267 -166 1153.5 -199 c 128,-1,35
 1040 -232 1040 -232 891 -232 c 1,36,-1
 891 -97 l 1,0,1
EndSplineSet
EndChar

StartChar: afii10053
Encoding: 1028 1028 215
Width: 1307
Flags: W
HStem: -41 152<549.616 1008.68> 726 114<305 1003> 1458 152<569.848 1054.27>
VStem: 103 202<426.03 726 840 1134.25>
LayerCount: 2
Fore
SplineSet
103 767 m 0,0,1
 103 1186 103 1186 273.5 1398 c 128,-1,2
 444 1610 444 1610 783 1610 c 0,3,4
 820 1610 820 1610 856.5 1607 c 128,-1,5
 893 1604 893 1604 938.5 1595 c 128,-1,6
 984 1586 984 1586 1043 1570.5 c 128,-1,7
 1102 1555 1102 1555 1185 1530 c 1,8,-1
 1140 1385 l 1,9,10
 1077 1407 1077 1407 1027 1421 c 128,-1,11
 977 1435 977 1435 935.5 1443.5 c 128,-1,12
 894 1452 894 1452 858 1455 c 128,-1,13
 822 1458 822 1458 788 1458 c 0,14,15
 677 1458 677 1458 589.5 1425 c 128,-1,16
 502 1392 502 1392 440.5 1318.5 c 128,-1,17
 379 1245 379 1245 344.5 1127 c 128,-1,18
 310 1009 310 1009 305 840 c 1,19,-1
 1003 840 l 1,20,-1
 1003 726 l 1,21,-1
 305 726 l 1,22,23
 311 575 311 575 340 460 c 128,-1,24
 369 345 369 345 423.5 267.5 c 128,-1,25
 478 190 478 190 559.5 150.5 c 128,-1,26
 641 111 641 111 753 111 c 0,27,28
 859 111 859 111 956.5 139 c 128,-1,29
 1054 167 1054 167 1157 218 c 1,30,-1
 1213 79 l 1,31,32
 1174 59 1174 59 1121.5 37.5 c 128,-1,33
 1069 16 1069 16 1010.5 -1.5 c 128,-1,34
 952 -19 952 -19 889.5 -30 c 128,-1,35
 827 -41 827 -41 767 -41 c 0,36,37
 601 -41 601 -41 476.5 13.5 c 128,-1,38
 352 68 352 68 269 172 c 128,-1,39
 186 276 186 276 144.5 426 c 128,-1,40
 103 576 103 576 103 767 c 0,0,1
EndSplineSet
EndChar

StartChar: afii10058
Encoding: 1033 1033 220
Width: 2687
Flags: W
HStem: -20 143<85 329.848> 0 143<88.2419 368.051 1700 2253.23> 795 145<1700 2249.54> 1436 144<751 1506>
VStem: 1506 194<143 795 940 1436> 2411 182<269.899 665.921>
DStem2: 501.5 515 692 446 0.0557816 0.998443<-256.817 933.483>
LayerCount: 2
Fore
SplineSet
2411 491 m 0,0,1
 2411 582 2411 582 2382 640.5 c 128,-1,2
 2353 699 2353 699 2287.5 733.5 c 128,-1,3
 2222 768 2222 768 2117 781.5 c 128,-1,4
 2012 795 2012 795 1860 795 c 2,5,-1
 1700 795 l 1,6,-1
 1700 143 l 1,7,-1
 1905 143 l 2,8,9
 2024 143 2024 143 2108 153.5 c 128,-1,10
 2192 164 2192 164 2248 185 c 128,-1,11
 2304 206 2304 206 2336.5 236 c 128,-1,12
 2369 266 2369 266 2385.5 304.5 c 128,-1,13
 2402 343 2402 343 2406.5 390 c 128,-1,14
 2411 437 2411 437 2411 491 c 0,0,1
1506 0 m 1,15,-1
 1506 1436 l 1,16,-1
 751 1436 l 1,17,-1
 716 842 l 1,18,-1
 692 446 l 2,19,20
 684 318 684 318 644.5 229.5 c 128,-1,21
 605 141 605 141 530.5 85.5 c 128,-1,22
 456 30 456 30 344 5 c 128,-1,23
 232 -20 232 -20 81 -20 c 1,24,-1
 85 123 l 1,25,26
 189 128 189 128 260 144.5 c 128,-1,27
 331 161 331 161 376.5 191.5 c 128,-1,28
 422 222 422 222 446.5 267 c 128,-1,29
 471 312 471 312 484 373.5 c 128,-1,30
 497 435 497 435 501.5 515 c 128,-1,31
 506 595 506 595 512 696 c 2,32,-1
 561 1580 l 1,33,-1
 1700 1580 l 1,34,-1
 1700 940 l 1,35,-1
 1860 940 l 2,36,37
 2063 940 2063 940 2203 909.5 c 128,-1,38
 2343 879 2343 879 2429.5 820 c 128,-1,39
 2516 761 2516 761 2554.5 673.5 c 128,-1,40
 2593 586 2593 586 2593 472 c 0,41,42
 2593 334 2593 334 2548.5 243 c 128,-1,43
 2504 152 2504 152 2416.5 98 c 128,-1,44
 2329 44 2329 44 2198 22 c 128,-1,45
 2067 0 2067 0 1893 0 c 2,46,-1
 1506 0 l 1,15,-1
EndSplineSet
EndChar

StartChar: afii10059
Encoding: 1034 1034 221
Width: 2360
Flags: W
HStem: 0 143<1373 1926.23> 764 115<347 1179> 795 145<1373 1922.54> 1559 20G<153 347 1179 1373>
VStem: 153 194<0 764 879 1579> 1179 194<143 764 940 1579> 2084 182<269.899 665.921>
LayerCount: 2
Fore
SplineSet
2084 491 m 0,0,1
 2084 582 2084 582 2055 640.5 c 128,-1,2
 2026 699 2026 699 1960.5 733.5 c 128,-1,3
 1895 768 1895 768 1790 781.5 c 128,-1,4
 1685 795 1685 795 1533 795 c 2,5,-1
 1373 795 l 1,6,-1
 1373 143 l 1,7,-1
 1578 143 l 2,8,9
 1697 143 1697 143 1781 153.5 c 128,-1,10
 1865 164 1865 164 1921 185 c 128,-1,11
 1977 206 1977 206 2009.5 236 c 128,-1,12
 2042 266 2042 266 2058.5 304.5 c 128,-1,13
 2075 343 2075 343 2079.5 390 c 128,-1,14
 2084 437 2084 437 2084 491 c 0,0,1
1179 764 m 1,15,-1
 347 764 l 1,16,-1
 347 0 l 1,17,-1
 153 0 l 1,18,-1
 153 1579 l 1,19,-1
 347 1579 l 1,20,-1
 347 879 l 1,21,-1
 1179 879 l 1,22,-1
 1179 1579 l 1,23,-1
 1373 1579 l 1,24,-1
 1373 940 l 1,25,-1
 1533 940 l 2,26,27
 1736 940 1736 940 1876 909.5 c 128,-1,28
 2016 879 2016 879 2102.5 820 c 128,-1,29
 2189 761 2189 761 2227.5 673.5 c 128,-1,30
 2266 586 2266 586 2266 472 c 0,31,32
 2266 334 2266 334 2221.5 243 c 128,-1,33
 2177 152 2177 152 2089.5 98 c 128,-1,34
 2002 44 2002 44 1871 22 c 128,-1,35
 1740 0 1740 0 1566 0 c 2,36,-1
 1179 0 l 1,37,-1
 1179 764 l 1,15,-1
EndSplineSet
EndChar

StartChar: afii10060
Encoding: 1035 1035 222
Width: 1652
Flags: W
HStem: 0 21G<524 718 1323 1513> 1053 137<903.314 1236.35> 1436 143<66 524 718 1174>
VStem: 524 194<0 929.709 991 1436> 1323 190<0 951.861>
LayerCount: 2
Fore
SplineSet
718 1436 m 1,0,-1
 718 991 l 1,1,2
 773 1050 773 1050 820 1089 c 0,3,4
 868 1128 868 1128 913.5 1150.5 c 128,-1,5
 959 1173 959 1173 1006 1181.5 c 128,-1,6
 1053 1190 1053 1190 1108 1190 c 0,7,8
 1199 1190 1199 1190 1264 1169.5 c 128,-1,9
 1329 1149 1329 1149 1374 1112 c 128,-1,10
 1419 1075 1419 1075 1446.5 1023 c 128,-1,11
 1474 971 1474 971 1488.5 908 c 128,-1,12
 1503 845 1503 845 1508 773 c 128,-1,13
 1513 701 1513 701 1513 623 c 2,14,-1
 1513 0 l 1,15,-1
 1323 0 l 1,16,-1
 1323 623 l 2,17,18
 1323 734 1323 734 1314 815 c 128,-1,19
 1305 896 1305 896 1280 949 c 128,-1,20
 1255 1002 1255 1002 1210 1027.5 c 128,-1,21
 1165 1053 1165 1053 1092 1053 c 0,22,23
 1029 1053 1029 1053 970 1035.5 c 128,-1,24
 911 1018 911 1018 861 992.5 c 128,-1,25
 811 967 811 967 773 938 c 0,26,27
 738 911 738 911 718 890 c 1,28,-1
 718 0 l 1,29,-1
 524 0 l 1,30,-1
 524 1436 l 1,31,-1
 66 1436 l 1,32,-1
 66 1579 l 1,33,-1
 1174 1579 l 1,34,-1
 1174 1436 l 1,35,-1
 718 1436 l 1,0,-1
EndSplineSet
EndChar

StartChar: afii10145
Encoding: 1039 1039 226
Width: 1527
Flags: W
HStem: -418 21G<691 863> 0 143<347 691 863 1179> 1559 20G<153 347 1179 1373>
VStem: 153 194<143 1579> 691 172<-418 0> 1179 194<143 1579>
LayerCount: 2
Fore
SplineSet
153 1579 m 1,0,-1
 347 1579 l 1,1,-1
 347 143 l 1,2,-1
 1179 143 l 1,3,-1
 1179 1579 l 1,4,-1
 1373 1579 l 1,5,-1
 1373 0 l 1,6,-1
 863 0 l 1,7,-1
 863 -418 l 1,8,-1
 691 -418 l 1,9,-1
 691 0 l 1,10,-1
 153 0 l 1,11,-1
 153 1579 l 1,0,-1
EndSplineSet
EndChar

StartChar: afii10018
Encoding: 1041 1041 228
Width: 1342
Flags: W
HStem: 0 143<348 945.102> 795 145<348 886.893> 1436 143<348 1115>
VStem: 153 195<143 795 940 1436> 1068 182<252.769 649.108>
LayerCount: 2
Fore
SplineSet
348 143 m 1,0,-1
 562 143 l 2,1,2
 724 143 724 143 823.5 155.5 c 128,-1,3
 923 168 923 168 977 205.5 c 128,-1,4
 1031 243 1031 243 1049.5 311 c 128,-1,5
 1068 379 1068 379 1068 490 c 0,6,7
 1068 562 1068 562 1044 613 c 128,-1,8
 1020 664 1020 664 979 698 c 128,-1,9
 938 732 938 732 883.5 751.5 c 128,-1,10
 829 771 829 771 768 780.5 c 128,-1,11
 707 790 707 790 642.5 792.5 c 128,-1,12
 578 795 578 795 517 795 c 2,13,-1
 348 795 l 1,14,-1
 348 143 l 1,0,-1
1250 466 m 0,15,16
 1250 344 1250 344 1213.5 256 c 128,-1,17
 1177 168 1177 168 1094.5 111 c 128,-1,18
 1012 54 1012 54 878 27 c 128,-1,19
 744 0 744 0 550 0 c 2,20,-1
 153 0 l 1,21,-1
 153 1579 l 1,22,-1
 1115 1579 l 1,23,-1
 1115 1436 l 1,24,-1
 348 1436 l 1,25,-1
 348 940 l 1,26,-1
 517 940 l 2,27,28
 718 940 718 940 857.5 911 c 128,-1,29
 997 882 997 882 1084.5 823 c 128,-1,30
 1172 764 1172 764 1211 675 c 128,-1,31
 1250 586 1250 586 1250 466 c 0,15,16
EndSplineSet
EndChar

StartChar: afii10020
Encoding: 1043 1043 230
Width: 1249
Flags: W
HStem: 0 21G<153 347> 1436 143<347 1179>
VStem: 153 194<0 1436>
LayerCount: 2
Fore
SplineSet
347 1436 m 1,0,-1
 347 0 l 1,1,-1
 153 0 l 1,2,-1
 153 1579 l 1,3,-1
 1179 1579 l 1,4,-1
 1179 1436 l 1,5,-1
 347 1436 l 1,0,-1
EndSplineSet
EndChar

StartChar: afii10021
Encoding: 1044 1044 231
Width: 1694
Flags: W
HStem: -389 21G<75 268 1355 1540> -22 117<373 1245> 1436 125<567 1245>
VStem: 75 193<-389 -22> 373 194<513.656 1436> 1245 194<95 1436> 1355 185<-389 -22>
LayerCount: 2
Fore
SplineSet
1245 95 m 1,0,-1
 1245 1436 l 1,1,-1
 567 1436 l 1,2,-1
 567 1069 l 2,3,4
 567 946 567 946 562.5 822 c 128,-1,5
 558 698 558 698 538.5 575 c 128,-1,6
 519 452 519 452 480 331.5 c 128,-1,7
 441 211 441 211 373 95 c 1,8,-1
 1245 95 l 1,0,-1
145 95 m 1,9,10
 197 168 197 168 234.5 241.5 c 128,-1,11
 272 315 272 315 297 393.5 c 128,-1,12
 322 472 322 472 337 558.5 c 128,-1,13
 352 645 352 645 360 742.5 c 128,-1,14
 368 840 368 840 370.5 951 c 128,-1,15
 373 1062 373 1062 373 1191 c 2,16,-1
 373 1561 l 1,17,-1
 1439 1561 l 1,18,-1
 1439 95 l 1,19,-1
 1540 95 l 1,20,-1
 1540 -389 l 1,21,-1
 1355 -389 l 1,22,-1
 1355 -22 l 1,23,-1
 268 -22 l 1,24,-1
 268 -389 l 1,25,-1
 75 -389 l 1,26,-1
 75 95 l 1,27,-1
 145 95 l 1,9,10
EndSplineSet
EndChar

StartChar: afii10024
Encoding: 1046 1046 233
Width: 2070
Flags: W
HStem: 0 21G<55 272.226 939 1133 1799.72 2015> 747 107<753 939 1133 1317> 1559 20G<123 326.862 939 1133 1743.14 1968>
VStem: 55 204<0 204> 123 192<1387 1579> 939 194<0 747 854 1579> 1755 213<1366 1579> 1813 202<0 202>
DStem2: 55 0 259 0 0.551604 0.834106<112.527 962.382> 315 1579 123 1579 0.510128 -0.860099<0 814.208> 1628 572 1317 747 0.553155 -0.833078<-285.778 578.854> 1325 854 1574.5 965 0.510128 0.860099<16.7711 842.926>
LayerCount: 2
Fore
SplineSet
939 747 m 1,0,-1
 753 747 l 1,1,-1
 259 0 l 1,2,-1
 55 0 l 1,3,-1
 445 570 l 2,4,5
 476 615 476 615 502 652.5 c 128,-1,6
 528 690 528 690 554 719 c 128,-1,7
 580 748 580 748 608 768 c 128,-1,8
 636 788 636 788 671 798 c 1,9,10
 633 810 633 810 603.5 833 c 128,-1,11
 574 856 574 856 547.5 888 c 128,-1,12
 521 920 521 920 495.5 960.5 c 128,-1,13
 470 1001 470 1001 442 1049 c 2,14,-1
 123 1579 l 1,15,-1
 315 1579 l 1,16,-1
 745 854 l 1,17,-1
 939 854 l 1,18,-1
 939 1579 l 1,19,-1
 1133 1579 l 1,20,-1
 1133 854 l 1,21,-1
 1325 854 l 1,22,-1
 1755 1579 l 1,23,-1
 1968 1579 l 1,24,-1
 1630 1052 l 2,25,26
 1600 1006 1600 1006 1574.5 965 c 128,-1,27
 1549 924 1549 924 1523 891 c 128,-1,28
 1497 858 1497 858 1467 834 c 128,-1,29
 1437 810 1437 810 1399 798 c 1,30,31
 1433 788 1433 788 1461.5 769 c 128,-1,32
 1490 750 1490 750 1516.5 721.5 c 128,-1,33
 1543 693 1543 693 1569.5 655.5 c 128,-1,34
 1596 618 1596 618 1628 572 c 2,35,-1
 2015 0 l 1,36,-1
 1813 0 l 1,37,-1
 1317 747 l 1,38,-1
 1133 747 l 1,39,-1
 1133 0 l 1,40,-1
 939 0 l 1,41,-1
 939 747 l 1,0,-1
EndSplineSet
EndChar

StartChar: afii10025
Encoding: 1047 1047 234
Width: 1036
Flags: W
HStem: -42 153<203.094 645.744> 731 144<269 554.311> 1458 152<211.156 639.808>
VStem: 739 165<1030.2 1362.31> 763 180<229.739 572.578>
LayerCount: 2
Fore
SplineSet
556 803 m 1,0,1
 650 793 650 793 722.5 757.5 c 128,-1,2
 795 722 795 722 844 667.5 c 128,-1,3
 893 613 893 613 918 542.5 c 128,-1,4
 943 472 943 472 943 392 c 0,5,6
 943 292 943 292 904 212 c 128,-1,7
 865 132 865 132 800 75.5 c 128,-1,8
 735 19 735 19 651 -11.5 c 128,-1,9
 567 -42 567 -42 477 -42 c 0,10,11
 425 -42 425 -42 376 -37 c 128,-1,12
 327 -32 327 -32 278 -21 c 128,-1,13
 229 -10 229 -10 177.5 8.5 c 128,-1,14
 126 27 126 27 70 54 c 1,15,-1
 124 187 l 1,16,17
 158 170 158 170 203 156 c 128,-1,18
 248 142 248 142 296 132 c 128,-1,19
 344 122 344 122 390.5 116.5 c 128,-1,20
 437 111 437 111 474 111 c 0,21,22
 545 111 545 111 594 129.5 c 128,-1,23
 643 148 643 148 675 177 c 128,-1,24
 707 206 707 206 725 241 c 128,-1,25
 743 276 743 276 751.5 309 c 128,-1,26
 760 342 760 342 761.5 369 c 128,-1,27
 763 396 763 396 763 408 c 0,28,29
 763 486 763 486 733.5 546 c 128,-1,30
 704 606 704 606 648.5 647.5 c 128,-1,31
 593 689 593 689 514 710 c 128,-1,32
 435 731 435 731 336 731 c 2,33,-1
 269 731 l 1,34,-1
 269 875 l 1,35,-1
 336 875 l 2,36,37
 540 875 540 875 639.5 962.5 c 128,-1,38
 739 1050 739 1050 739 1203 c 0,39,40
 739 1260 739 1260 723 1307 c 128,-1,41
 707 1354 707 1354 672.5 1387.5 c 128,-1,42
 638 1421 638 1421 584.5 1439.5 c 128,-1,43
 531 1458 531 1458 455 1458 c 0,44,45
 380 1458 380 1458 300 1439.5 c 128,-1,46
 220 1421 220 1421 153 1389 c 1,47,-1
 103 1529 l 1,48,49
 134 1544 134 1544 176.5 1558.5 c 128,-1,50
 219 1573 219 1573 266.5 1584.5 c 128,-1,51
 314 1596 314 1596 363 1603 c 128,-1,52
 412 1610 412 1610 456 1610 c 0,53,54
 548 1610 548 1610 629.5 1581.5 c 128,-1,55
 711 1553 711 1553 772 1500.5 c 128,-1,56
 833 1448 833 1448 868.5 1373.5 c 128,-1,57
 904 1299 904 1299 904 1206 c 0,58,59
 904 858 904 858 556 803 c 1,0,1
EndSplineSet
EndChar

StartChar: afii10026
Encoding: 1048 1048 235
Width: 1560
Flags: W
HStem: 0 21G<153 315 1244 1406> 1559 20G<153 315 1130.73 1406>
VStem: 153 162<0 74 330 1579> 1244 162<0 1434>
DStem2: 315 330 315 74 0.564053 0.825739<0 1435.62>
LayerCount: 2
Fore
SplineSet
315 1579 m 1,0,-1
 315 330 l 1,1,-1
 1144 1579 l 1,2,-1
 1406 1579 l 1,3,-1
 1406 0 l 1,4,-1
 1244 0 l 1,5,-1
 1244 1434 l 1,6,-1
 315 74 l 1,7,-1
 315 0 l 1,8,-1
 153 0 l 1,9,-1
 153 1579 l 1,10,-1
 315 1579 l 1,0,-1
EndSplineSet
EndChar

StartChar: afii10028
Encoding: 1050 1050 237
Width: 1375
Flags: W
HStem: 0 21G<153 347 1102.14 1320> 747 107<347 562> 1559 20G<153 347 1046.48 1253>
VStem: 153 194<0 747 854 1579> 1060 193<1386 1579> 1117 203<0 203>
DStem2: 855 627.5 562 747 0.596383 -0.8027<-241.299 659.947> 570 854 832 952.5 0.559963 0.828517<17.1783 875.057>
LayerCount: 2
Fore
SplineSet
347 0 m 1,0,-1
 153 0 l 1,1,-1
 153 1579 l 1,2,-1
 347 1579 l 1,3,-1
 347 854 l 1,4,-1
 570 854 l 1,5,-1
 1060 1579 l 1,6,-1
 1253 1579 l 1,7,-1
 899 1052 l 2,8,9
 861 995 861 995 832 952.5 c 128,-1,10
 803 910 803 910 777 879.5 c 128,-1,11
 751 849 751 849 724.5 829.5 c 128,-1,12
 698 810 698 810 664 798 c 1,13,14
 700 788 700 788 732.5 762.5 c 128,-1,15
 765 737 765 737 795.5 702.5 c 128,-1,16
 826 668 826 668 855 627.5 c 128,-1,17
 884 587 884 587 914 547 c 2,18,-1
 1320 0 l 1,19,-1
 1117 0 l 1,20,-1
 562 747 l 1,21,-1
 347 747 l 1,22,-1
 347 0 l 1,0,-1
EndSplineSet
EndChar

StartChar: afii10029
Encoding: 1051 1051 238
Width: 1854
Flags: W
HStem: -20 143<85 338.281> 0 21G<1506 1700> 1436 143<751 1506>
VStem: 1506 194<0 1436>
DStem2: 496.5 491.5 689.5 470.5 0.0592063 0.998246<-236.622 957.911>
LayerCount: 2
Fore
SplineSet
1700 0 m 1,0,-1
 1506 0 l 1,1,-1
 1506 1436 l 1,2,-1
 751 1436 l 1,3,-1
 707 693 l 2,4,5
 700 571 700 571 689.5 470.5 c 128,-1,6
 679 370 679 370 656 291 c 128,-1,7
 633 212 633 212 593 153.5 c 128,-1,8
 553 95 553 95 486 56.5 c 128,-1,9
 419 18 419 18 320 -1 c 128,-1,10
 221 -20 221 -20 81 -20 c 1,11,-1
 85 123 l 1,12,13
 177 127 177 127 242.5 138.5 c 128,-1,14
 308 150 308 150 353.5 174.5 c 128,-1,15
 399 199 399 199 427 239.5 c 128,-1,16
 455 280 455 280 471.5 342.5 c 128,-1,17
 488 405 488 405 496.5 491.5 c 128,-1,18
 505 578 505 578 512 696 c 2,19,-1
 561 1579 l 1,20,-1
 1700 1579 l 1,21,-1
 1700 0 l 1,0,-1
EndSplineSet
EndChar

StartChar: afii10033
Encoding: 1055 1055 242
Width: 1527
Flags: W
HStem: 0 21G<153 347 1179 1373> 1436 143<347 1179>
VStem: 153 194<0 1436> 1179 194<0 1436>
LayerCount: 2
Fore
SplineSet
1373 0 m 1,0,-1
 1179 0 l 1,1,-1
 1179 1436 l 1,2,-1
 347 1436 l 1,3,-1
 347 0 l 1,4,-1
 153 0 l 1,5,-1
 153 1579 l 1,6,-1
 1373 1579 l 1,7,-1
 1373 0 l 1,0,-1
EndSplineSet
EndChar

StartChar: afii10037
Encoding: 1059 1059 246
Width: 1118
Flags: W
HStem: -119 125<253 429.803> 1559 20G<38 227.15 869.554 1071>
VStem: 489 152<64.9307 433> 876 195<1384 1579>
LayerCount: 2
Fore
SplineSet
876 1579 m 1,0,-1
 1071 1579 l 1,1,-1
 641 435 l 1,2,-1
 641 201 l 2,3,4
 641 35 641 35 546 -42 c 128,-1,5
 451 -119 451 -119 253 -119 c 1,6,-1
 202 6 l 1,7,8
 263 7 263 7 316 11 c 128,-1,9
 369 15 369 15 407 34 c 128,-1,10
 445 53 445 53 467 93 c 128,-1,11
 489 133 489 133 489 207 c 2,12,-1
 489 433 l 1,13,-1
 38 1579 l 1,14,-1
 220 1579 l 1,15,-1
 565 614 l 1,16,-1
 876 1579 l 1,0,-1
EndSplineSet
EndChar

StartChar: afii10038
Encoding: 1060 1060 247
Width: 1509
Flags: W
HStem: 0 21G<650 840> 153 152<509.868 650 840 1007.93> 1267 152<506.973 650 840 1001.44> 1559 20G<650 840>
VStem: 103 196<536.704 1042> 650 190<0 154.631 305 1267 1420 1579> 1209 197<524.545 1044.78>
LayerCount: 2
Fore
SplineSet
840 0 m 1,0,-1
 650 0 l 1,1,-1
 650 153 l 1,2,3
 103 201 103 201 103 786 c 256,4,5
 103 1371 103 1371 650 1419 c 1,6,-1
 650 1579 l 1,7,-1
 840 1579 l 1,8,-1
 840 1420 l 1,9,10
 978 1415 978 1415 1083.5 1366 c 128,-1,11
 1189 1317 1189 1317 1260.5 1233 c 128,-1,12
 1332 1149 1332 1149 1369 1035.5 c 128,-1,13
 1406 922 1406 922 1406 788 c 0,14,15
 1406 655 1406 655 1372.5 543 c 128,-1,16
 1339 431 1339 431 1269.5 347.5 c 128,-1,17
 1200 264 1200 264 1093.5 213 c 128,-1,18
 987 162 987 162 840 152 c 1,19,-1
 840 0 l 1,0,-1
650 1267 m 1,20,21
 299 1219 299 1219 299 788 c 0,22,23
 299 573 299 573 387.5 452 c 128,-1,24
 476 331 476 331 650 305 c 1,25,-1
 650 1267 l 1,20,21
840 302 m 1,26,27
 1028 323 1028 323 1118.5 443 c 128,-1,28
 1209 563 1209 563 1209 787 c 0,29,30
 1209 1229 1209 1229 840 1270 c 1,31,-1
 840 302 l 1,26,27
EndSplineSet
EndChar

StartChar: afii10040
Encoding: 1062 1062 249
Width: 1634
Flags: W
HStem: -418 21G<1308 1480> 0 143<347 1179> 1559 20G<153 347 1179 1373>
VStem: 153 194<143 1579> 1179 194<143 1579> 1308 172<-418 0>
LayerCount: 2
Fore
SplineSet
153 1579 m 1,0,-1
 347 1579 l 1,1,-1
 347 143 l 1,2,-1
 1179 143 l 1,3,-1
 1179 1579 l 1,4,-1
 1373 1579 l 1,5,-1
 1373 0 l 1,6,-1
 1480 0 l 1,7,-1
 1480 -418 l 1,8,-1
 1308 -418 l 1,9,-1
 1308 0 l 1,10,-1
 153 0 l 1,11,-1
 153 1579 l 1,0,-1
EndSplineSet
EndChar

StartChar: afii10041
Encoding: 1063 1063 250
Width: 1265
Flags: W
HStem: 0 21G<917 1111> 389 143<396.902 729.71> 1559 20G<118 312 917 1111>
VStem: 118 194<625.091 1579> 917 194<0 590 652.198 1579>
LayerCount: 2
Fore
SplineSet
917 590 m 1,0,1
 860 528 860 528 812 489 c 128,-1,2
 764 450 764 450 718 427.5 c 128,-1,3
 672 405 672 405 625.5 397 c 128,-1,4
 579 389 579 389 525 389 c 0,5,6
 429 389 429 389 353.5 416 c 128,-1,7
 278 443 278 443 225.5 499.5 c 128,-1,8
 173 556 173 556 145.5 643.5 c 128,-1,9
 118 731 118 731 118 852 c 2,10,-1
 118 1579 l 1,11,-1
 312 1579 l 1,12,-1
 312 852 l 2,13,14
 312 767 312 767 326 706.5 c 128,-1,15
 340 646 340 646 368.5 607 c 128,-1,16
 397 568 397 568 440 550 c 128,-1,17
 483 532 483 532 542 532 c 0,18,19
 602 532 602 532 659.5 548 c 128,-1,20
 717 564 717 564 766.5 588 c 128,-1,21
 816 612 816 612 855 639.5 c 128,-1,22
 894 667 894 667 917 691 c 1,23,-1
 917 1579 l 1,24,-1
 1111 1579 l 1,25,-1
 1111 0 l 1,26,-1
 917 0 l 1,27,-1
 917 590 l 1,0,1
EndSplineSet
EndChar

StartChar: afii10042
Encoding: 1064 1064 251
Width: 2313
Flags: W
HStem: 0 143<347 1059 1253 1965> 1559 20G<153 347 1059 1253 1965 2159>
VStem: 153 194<143 1579> 1059 194<143 1579> 1965 194<143 1579>
CounterMasks: 1 38
LayerCount: 2
Fore
SplineSet
1253 143 m 1,0,-1
 1965 143 l 1,1,-1
 1965 1579 l 1,2,-1
 2159 1579 l 1,3,-1
 2159 0 l 1,4,-1
 153 0 l 1,5,-1
 153 1579 l 1,6,-1
 347 1579 l 1,7,-1
 347 143 l 1,8,-1
 1059 143 l 1,9,-1
 1059 1579 l 1,10,-1
 1253 1579 l 1,11,-1
 1253 143 l 1,0,-1
EndSplineSet
EndChar

StartChar: afii10043
Encoding: 1065 1065 252
Width: 2420
Flags: W
HStem: -410 21G<2094 2266> 0 143<347 1059 1253 1965> 1559 20G<153 347 1059 1253 1965 2159>
VStem: 153 194<143 1579> 1059 194<143 1579> 1965 194<143 1579> 2094 172<-410 0>
LayerCount: 2
Fore
SplineSet
1253 143 m 1,0,-1
 1965 143 l 1,1,-1
 1965 1579 l 1,2,-1
 2159 1579 l 1,3,-1
 2159 8 l 1,4,-1
 2266 8 l 1,5,-1
 2266 -410 l 1,6,-1
 2094 -410 l 1,7,-1
 2094 0 l 1,8,-1
 153 0 l 1,9,-1
 153 1579 l 1,10,-1
 347 1579 l 1,11,-1
 347 143 l 1,12,-1
 1059 143 l 1,13,-1
 1059 1579 l 1,14,-1
 1253 1579 l 1,15,-1
 1253 143 l 1,0,-1
EndSplineSet
EndChar

StartChar: afii10044
Encoding: 1066 1066 253
Width: 1573
Flags: W
HStem: 0 143<576 1146.85> 795 145<576 1115.89> 1436 143<49 382>
VStem: 382 194<143 795 940 1436> 1297 182<277.779 649.108>
LayerCount: 2
Fore
SplineSet
576 143 m 1,0,-1
 791 143 l 2,1,2
 929 143 929 143 1025 155.5 c 128,-1,3
 1121 168 1121 168 1181.5 205.5 c 128,-1,4
 1242 243 1242 243 1269.5 311 c 128,-1,5
 1297 379 1297 379 1297 490 c 0,6,7
 1297 562 1297 562 1273 613 c 128,-1,8
 1249 664 1249 664 1208 698 c 128,-1,9
 1167 732 1167 732 1112.5 751.5 c 128,-1,10
 1058 771 1058 771 997 780.5 c 128,-1,11
 936 790 936 790 871.5 792.5 c 128,-1,12
 807 795 807 795 746 795 c 2,13,-1
 576 795 l 1,14,-1
 576 143 l 1,0,-1
576 940 m 1,15,-1
 746 940 l 2,16,17
 947 940 947 940 1086.5 911 c 128,-1,18
 1226 882 1226 882 1313.5 823 c 128,-1,19
 1401 764 1401 764 1440 675 c 128,-1,20
 1479 586 1479 586 1479 466 c 0,21,22
 1479 344 1479 344 1442.5 256 c 128,-1,23
 1406 168 1406 168 1323.5 111 c 128,-1,24
 1241 54 1241 54 1107 27 c 128,-1,25
 973 0 973 0 779 0 c 2,26,-1
 382 0 l 1,27,-1
 382 1436 l 1,28,-1
 49 1436 l 1,29,-1
 49 1579 l 1,30,-1
 576 1579 l 1,31,-1
 576 940 l 1,15,-1
EndSplineSet
EndChar

StartChar: afii10045
Encoding: 1067 1067 254
Width: 1865
Flags: W
HStem: 0 143<344 919.541> 795 145<344 883.893> 1559 20G<150 344>
VStem: 150 194<143 795 940 1579> 1065 182<273.056 649.108> 1517 194<0 1579>
LayerCount: 2
Fore
SplineSet
1711 0 m 1,0,-1
 1517 0 l 1,1,-1
 1517 1579 l 1,2,-1
 1711 1614 l 1,3,-1
 1711 0 l 1,0,-1
1247 466 m 0,4,5
 1247 344 1247 344 1210.5 256 c 128,-1,6
 1174 168 1174 168 1091.5 111 c 128,-1,7
 1009 54 1009 54 875 27 c 128,-1,8
 741 0 741 0 547 0 c 2,9,-1
 150 0 l 1,10,-1
 150 1579 l 1,11,-1
 344 1579 l 1,12,-1
 344 940 l 1,13,-1
 514 940 l 2,14,15
 715 940 715 940 854.5 911 c 128,-1,16
 994 882 994 882 1081.5 823 c 128,-1,17
 1169 764 1169 764 1208 675 c 128,-1,18
 1247 586 1247 586 1247 466 c 0,4,5
344 143 m 1,19,-1
 559 143 l 2,20,21
 701 143 701 143 798 155.5 c 128,-1,22
 895 168 895 168 954 205.5 c 128,-1,23
 1013 243 1013 243 1039 311 c 128,-1,24
 1065 379 1065 379 1065 490 c 0,25,26
 1065 562 1065 562 1041 613 c 128,-1,27
 1017 664 1017 664 976 698 c 128,-1,28
 935 732 935 732 880.5 751.5 c 128,-1,29
 826 771 826 771 765 780.5 c 128,-1,30
 704 790 704 790 639.5 792.5 c 128,-1,31
 575 795 575 795 514 795 c 2,32,-1
 344 795 l 1,33,-1
 344 143 l 1,19,-1
EndSplineSet
EndChar

StartChar: afii10046
Encoding: 1068 1068 255
Width: 1341
Flags: W
HStem: 0 143<344 919.541> 795 145<344 883.893> 1559 20G<150 344>
VStem: 150 194<143 795 940 1579> 1065 182<273.056 649.108>
LayerCount: 2
Fore
SplineSet
1247 466 m 0,0,1
 1247 344 1247 344 1210.5 256 c 128,-1,2
 1174 168 1174 168 1091.5 111 c 128,-1,3
 1009 54 1009 54 875 27 c 128,-1,4
 741 0 741 0 547 0 c 2,5,-1
 150 0 l 1,6,-1
 150 1579 l 1,7,-1
 344 1579 l 1,8,-1
 344 940 l 1,9,-1
 514 940 l 2,10,11
 715 940 715 940 854.5 911 c 128,-1,12
 994 882 994 882 1081.5 823 c 128,-1,13
 1169 764 1169 764 1208 675 c 128,-1,14
 1247 586 1247 586 1247 466 c 0,0,1
344 143 m 1,15,-1
 559 143 l 2,16,17
 701 143 701 143 798 155.5 c 128,-1,18
 895 168 895 168 954 205.5 c 128,-1,19
 1013 243 1013 243 1039 311 c 128,-1,20
 1065 379 1065 379 1065 490 c 0,21,22
 1065 562 1065 562 1041 613 c 128,-1,23
 1017 664 1017 664 976 698 c 128,-1,24
 935 732 935 732 880.5 751.5 c 128,-1,25
 826 771 826 771 765 780.5 c 128,-1,26
 704 790 704 790 639.5 792.5 c 128,-1,27
 575 795 575 795 514 795 c 2,28,-1
 344 795 l 1,29,-1
 344 143 l 1,15,-1
EndSplineSet
EndChar

StartChar: afii10047
Encoding: 1069 1069 256
Width: 1287
Flags: W
HStem: -41 152<265.169 734.015> 711 134<405 982> 1458 152<218.933 716.721>
VStem: 982 202<430.698 711 845 1134.25>
LayerCount: 2
Fore
SplineSet
1184 767 m 0,0,1
 1184 576 1184 576 1142.5 426 c 128,-1,2
 1101 276 1101 276 1018 172 c 128,-1,3
 935 68 935 68 810.5 13.5 c 128,-1,4
 686 -41 686 -41 520 -41 c 0,5,6
 426 -41 426 -41 345.5 -22.5 c 128,-1,7
 265 -4 265 -4 204 19 c 0,8,9
 133 45 133 45 74 79 c 1,10,-1
 130 218 l 1,11,12
 179 188 179 188 242 164 c 0,13,14
 296 144 296 144 372.5 127.5 c 128,-1,15
 449 111 449 111 545 111 c 0,16,17
 629 111 629 111 693 136 c 128,-1,18
 757 161 757 161 805 204 c 128,-1,19
 853 247 853 247 885 305 c 128,-1,20
 917 363 917 363 938 430 c 128,-1,21
 959 497 959 497 969 568.5 c 128,-1,22
 979 640 979 640 982 711 c 1,23,-1
 405 711 l 1,24,-1
 405 845 l 1,25,-1
 982 845 l 1,26,27
 976 1002 976 1002 944.5 1117.5 c 128,-1,28
 913 1233 913 1233 853.5 1309 c 128,-1,29
 794 1385 794 1385 705 1421.5 c 128,-1,30
 616 1458 616 1458 495 1458 c 0,31,32
 418 1458 418 1458 354 1446.5 c 128,-1,33
 290 1435 290 1435 244 1421 c 0,34,35
 189 1405 189 1405 147 1385 c 1,36,-1
 102 1530 l 1,37,38
 159 1552 159 1552 224 1570 c 0,39,40
 280 1585 280 1585 352.5 1597.5 c 128,-1,41
 425 1610 425 1610 503 1610 c 0,42,43
 843 1610 843 1610 1013.5 1398 c 128,-1,44
 1184 1186 1184 1186 1184 767 c 0,0,1
EndSplineSet
EndChar

